<?xml version="1.0" encoding="utf-8"?>
<!-- Generator: Adobe Illustrator 26.0.2, SVG Export Plug-In . SVG Version: 6.00 Build 0)  -->
<svg version="1.1" id="Layer_1" xmlns="http://www.w3.org/2000/svg" xmlns:xlink="http://www.w3.org/1999/xlink" x="0px" y="0px"
	 viewBox="0 0 175.7 131.4" style="enable-background:new 0 0 175.7 131.4;" xml:space="preserve">
<style type="text/css">
	.st0{fill-rule:evenodd;clip-rule:evenodd;fill:#FFE599;}
	.st1{fill:none;stroke:#595959;stroke-linejoin:round;stroke-miterlimit:10;}
	.st2{fill-rule:evenodd;clip-rule:evenodd;fill-opacity:0;}
	.st3{fill:#242729;}
	.st4{fill:#202122;}
</style>
<g>
	<g>
		<path class="st0" d="M2.2,22.2L2.2,22.2c0-12,9.7-21.7,21.7-21.7h128.3c5.8,0,11.3,2.3,15.4,6.4s6.4,9.6,6.4,15.4v86.9
			c0,12-9.7,21.7-21.7,21.7H23.9l0,0c-12,0-21.7-9.7-21.7-21.7L2.2,22.2z"/>
		<path class="st1" d="M2.2,22.2L2.2,22.2c0-12,9.7-21.7,21.7-21.7h128.3c5.8,0,11.3,2.3,15.4,6.4s6.4,9.6,6.4,15.4v86.9
			c0,12-9.7,21.7-21.7,21.7H23.9l0,0c-12,0-21.7-9.7-21.7-21.7L2.2,22.2z"/>
		<path class="st2" d="M1.8,28.3L173.9,27"/>
		<path class="st1" d="M1.8,28.3L173.9,27"/>
		<path class="st2" d="M0,4.5h175.7v28.7H0L0,4.5z"/>
		<path d="M23.5,13c0.3,0,0.6,0.1,0.9,0.3c0.1,0,0.1-0.1,0.2-0.1s0.1,0,0.2,0c0.2,0,0.4,0.1,0.5,0.2c0.1,0.1,0.2,0.4,0.2,0.7v0.4
			c0,0.3-0.1,0.6-0.2,0.7s-0.3,0.2-0.5,0.2s-0.3-0.1-0.5-0.2c-0.1-0.1-0.2-0.3-0.2-0.5c-0.3-0.2-0.7-0.4-1.2-0.4
			c-0.5,0-0.8,0.1-1.1,0.3c-0.2,0.2-0.3,0.4-0.3,0.6c0,0.2,0.1,0.3,0.2,0.5c0.1,0.1,0.4,0.2,0.9,0.3l0.9,0.2
			c0.7,0.2,1.3,0.4,1.6,0.7c0.4,0.4,0.6,0.9,0.6,1.5c0,0.6-0.2,1-0.6,1.5c-0.4,0.4-0.9,0.7-1.7,0.8v1.1c0,0.3-0.1,0.5-0.2,0.7
			c-0.1,0.1-0.3,0.2-0.5,0.2c-0.2,0-0.4-0.1-0.5-0.2c-0.1-0.1-0.2-0.4-0.2-0.7v-1.1c-0.3-0.1-0.7-0.2-1-0.3
			c-0.2,0.2-0.4,0.2-0.5,0.2c-0.2,0-0.4-0.1-0.5-0.2s-0.2-0.4-0.2-0.7v-0.8c0-0.3,0.1-0.6,0.2-0.7s0.3-0.2,0.5-0.2
			c0.2,0,0.3,0,0.4,0.1c0.1,0.1,0.2,0.2,0.2,0.4c0.1,0.2,0.1,0.3,0.2,0.4c0.1,0.1,0.3,0.2,0.6,0.3c0.3,0.1,0.6,0.1,0.8,0.1
			c0.5,0,0.9-0.1,1.2-0.4c0.2-0.2,0.3-0.4,0.3-0.7c0-0.2-0.1-0.4-0.2-0.5c-0.1-0.1-0.5-0.2-0.9-0.3l-1-0.2c-0.7-0.1-1.2-0.4-1.5-0.8
			c-0.3-0.4-0.5-0.8-0.5-1.3c0-0.5,0.2-1,0.5-1.4c0.4-0.4,0.8-0.7,1.4-0.8v-0.4c0-0.3,0.1-0.5,0.2-0.7c0.1-0.1,0.3-0.2,0.5-0.2
			c0.2,0,0.4,0.1,0.5,0.2c0.1,0.1,0.2,0.4,0.2,0.7V13z M31.1,17.8c0.2,0.2,0.3,0.3,0.3,0.5c0.1,0.2,0.1,0.4,0.1,0.8v2.1
			c0,0.2,0,0.3,0.1,0.4c0.1,0.1,0.2,0.1,0.4,0.1c0.2,0,0.3,0.1,0.5,0.2c0.1,0.1,0.2,0.3,0.2,0.5s-0.1,0.3-0.2,0.5
			c-0.1,0.1-0.3,0.2-0.5,0.2c-0.3,0-0.6-0.1-0.8-0.2c-0.3-0.1-0.5-0.4-0.7-0.8c-0.1-0.2-0.2-0.5-0.2-0.8V19c0-0.2,0-0.3-0.1-0.4
			s-0.2-0.1-0.4-0.1c-0.2,0-0.4-0.1-0.5-0.2C29.1,18.1,29,18,29,17.8c0-0.2,0.1-0.4,0.2-0.5c0.1-0.1,0.3-0.2,0.5-0.2
			c0.2,0,0.3-0.1,0.4-0.1c0.1-0.1,0.1-0.2,0.1-0.4v-2.2c0-0.5,0.2-0.9,0.5-1.2c0.3-0.4,0.7-0.5,1.2-0.5c0.2,0,0.4,0.1,0.5,0.2
			c0.1,0.1,0.2,0.3,0.2,0.5c0,0.2-0.1,0.3-0.2,0.5c-0.1,0.1-0.3,0.2-0.5,0.2S31.6,14,31.6,14c-0.1,0.1-0.1,0.2-0.1,0.4v2.1
			c0,0.3,0,0.5-0.1,0.7C31.3,17.4,31.2,17.6,31.1,17.8z M38.5,16.4v2.7c0,0.3,0.1,0.5,0.2,0.6c0.2,0.1,0.5,0.2,1,0.2
			c0.7,0,1.3-0.1,1.9-0.4c0.2-0.1,0.4-0.2,0.5-0.2c0.2,0,0.3,0.1,0.4,0.2c0.1,0.1,0.2,0.3,0.2,0.5c0,0.2-0.1,0.3-0.2,0.4
			c-0.2,0.2-0.6,0.4-1.3,0.6c-0.6,0.2-1.2,0.2-1.6,0.2c-0.8,0-1.5-0.2-1.9-0.5c-0.4-0.4-0.6-0.8-0.6-1.3v-2.9h-0.5
			c-0.3,0-0.6-0.1-0.7-0.2c-0.1-0.1-0.2-0.3-0.2-0.5c0-0.2,0.1-0.3,0.2-0.5c0.1-0.1,0.4-0.2,0.7-0.2h0.5v-1.2c0-0.3,0.1-0.6,0.2-0.7
			c0.1-0.1,0.3-0.2,0.5-0.2c0.2,0,0.4,0.1,0.5,0.2s0.2,0.4,0.2,0.7v1.2h2.5c0.3,0,0.6,0.1,0.7,0.2c0.1,0.1,0.2,0.3,0.2,0.5
			c0,0.2-0.1,0.3-0.2,0.5c-0.1,0.1-0.4,0.2-0.7,0.2H38.5z M46,21l-2.3-4.5c-0.2,0-0.4-0.1-0.5-0.2c-0.1-0.1-0.2-0.3-0.2-0.4
			c0-0.2,0.1-0.4,0.2-0.5c0.1-0.1,0.4-0.2,0.7-0.2h1.2c0.3,0,0.6,0.1,0.7,0.2s0.2,0.3,0.2,0.5c0,0.2-0.1,0.3-0.2,0.5
			s-0.4,0.2-0.7,0.2l1.6,3.1l1.6-3.1c-0.3,0-0.5-0.1-0.6-0.2c-0.1-0.1-0.2-0.3-0.2-0.5c0-0.2,0.1-0.3,0.2-0.5
			c0.1-0.1,0.4-0.2,0.7-0.2h1.3c0.3,0,0.5,0.1,0.7,0.2s0.2,0.3,0.2,0.5c0,0.2-0.1,0.3-0.2,0.5s-0.3,0.2-0.5,0.2l-3.1,6
			c0.3,0,0.6,0,0.7,0.1c0.2,0.1,0.3,0.3,0.3,0.6c0,0.2-0.1,0.4-0.2,0.5c-0.1,0.1-0.4,0.2-0.7,0.2H44c-0.3,0-0.6-0.1-0.7-0.2
			c-0.1-0.1-0.2-0.3-0.2-0.5s0.1-0.4,0.2-0.5c0.1-0.1,0.4-0.2,0.7-0.2h1.3L46,21z M53.1,20.3v2.2h0.8c0.3,0,0.6,0.1,0.7,0.2
			c0.1,0.1,0.2,0.3,0.2,0.5s-0.1,0.4-0.2,0.5c-0.1,0.1-0.4,0.2-0.7,0.2h-2.4c-0.3,0-0.6-0.1-0.7-0.2c-0.1-0.1-0.2-0.3-0.2-0.5
			s0.1-0.4,0.2-0.5c0.1-0.1,0.4-0.2,0.7-0.2h0.2v-6h-0.2c-0.3,0-0.6-0.1-0.7-0.2c-0.1-0.1-0.2-0.3-0.2-0.5c0-0.2,0.1-0.3,0.2-0.5
			c0.1-0.1,0.4-0.2,0.7-0.2h1.6v0.5c0.3-0.2,0.6-0.4,1-0.5c0.3-0.1,0.7-0.2,1-0.2c0.9,0,1.7,0.3,2.3,0.9c0.6,0.6,1,1.3,1,2.1
			c0,0.9-0.4,1.6-1.1,2.2c-0.6,0.5-1.3,0.7-2.1,0.7c-0.3,0-0.7,0-1-0.1C53.8,20.6,53.5,20.5,53.1,20.3z M57.1,18
			c0-0.2-0.1-0.4-0.2-0.7c-0.1-0.3-0.4-0.5-0.7-0.7c-0.3-0.2-0.7-0.3-1.1-0.3c-0.7,0-1.2,0.2-1.6,0.8c-0.3,0.3-0.4,0.7-0.4,1
			c0,0.4,0.2,0.7,0.6,1c0.4,0.3,0.9,0.5,1.4,0.5s1-0.2,1.4-0.5S57.1,18.3,57.1,18z M66.1,18.7h-5.5c0.1,0.4,0.4,0.6,0.7,0.8
			s0.8,0.3,1.4,0.3c0.5,0,1.2-0.1,2-0.3c0.3-0.1,0.6-0.1,0.7-0.1c0.2,0,0.3,0.1,0.5,0.2s0.2,0.3,0.2,0.5c0,0.2-0.1,0.3-0.2,0.4
			c-0.2,0.2-0.6,0.3-1.3,0.5c-0.7,0.1-1.3,0.2-1.9,0.2c-1.1,0-1.9-0.3-2.6-0.9c-0.6-0.6-1-1.3-1-2.2c0-0.9,0.3-1.7,1-2.3
			c0.7-0.6,1.5-0.9,2.4-0.9c0.5,0,1,0.1,1.5,0.3c0.5,0.2,0.8,0.4,1,0.6c0.3,0.3,0.6,0.7,0.8,1.2c0.1,0.3,0.2,0.7,0.2,1.1V18.7z
			 M64.7,17.4c-0.2-0.4-0.5-0.7-0.8-0.9c-0.3-0.2-0.7-0.3-1.2-0.3c-0.4,0-0.8,0.1-1.2,0.3s-0.6,0.5-0.8,0.9H64.7z M70.5,17.8
			c-0.2-0.2-0.3-0.3-0.3-0.5c-0.1-0.2-0.1-0.4-0.1-0.7v-2.1c0-0.2,0-0.3-0.1-0.4c-0.1-0.1-0.2-0.1-0.4-0.1c-0.2,0-0.3-0.1-0.5-0.2
			C69,13.6,69,13.4,69,13.2c0-0.2,0.1-0.3,0.2-0.5c0.1-0.1,0.3-0.2,0.5-0.2c0.3,0,0.6,0.1,0.8,0.2c0.3,0.1,0.5,0.4,0.7,0.8
			c0.1,0.2,0.2,0.5,0.2,0.8v2.2c0,0.2,0,0.3,0.1,0.4s0.2,0.1,0.4,0.1c0.2,0,0.3,0.1,0.5,0.2c0.1,0.1,0.2,0.3,0.2,0.5
			c0,0.2-0.1,0.3-0.2,0.5c-0.1,0.1-0.3,0.2-0.5,0.2c-0.2,0-0.3,0.1-0.4,0.1c-0.1,0.1-0.1,0.2-0.1,0.4v2.3c0,0.5-0.2,0.9-0.5,1.2
			c-0.3,0.4-0.7,0.5-1.2,0.5c-0.2,0-0.4-0.1-0.5-0.2C69,22.7,69,22.6,69,22.4c0-0.2,0.1-0.3,0.2-0.5c0.1-0.1,0.3-0.2,0.5-0.2
			s0.3-0.1,0.3-0.1c0.1-0.1,0.1-0.2,0.1-0.4v-2.1c0-0.4,0-0.6,0.1-0.8C70.2,18.1,70.3,17.9,70.5,17.8z"/>
		<path class="st3" d="M84.3,20.4v2.5h-8.8v-2.5h0.9v1.5h7.1v-1.5H84.3z"/>
		<path d="M89.6,13c0.3,0,0.6,0.1,0.9,0.3c0.1,0,0.1-0.1,0.2-0.1s0.1,0,0.2,0c0.2,0,0.4,0.1,0.5,0.2c0.1,0.1,0.2,0.4,0.2,0.7v0.4
			c0,0.3-0.1,0.6-0.2,0.7s-0.3,0.2-0.5,0.2s-0.3-0.1-0.5-0.2c-0.1-0.1-0.2-0.3-0.2-0.5c-0.3-0.2-0.7-0.4-1.2-0.4
			c-0.5,0-0.8,0.1-1.1,0.3c-0.2,0.2-0.3,0.4-0.3,0.6c0,0.2,0.1,0.3,0.2,0.5c0.1,0.1,0.4,0.2,0.9,0.3l0.9,0.2
			c0.7,0.2,1.3,0.4,1.6,0.7c0.4,0.4,0.6,0.9,0.6,1.5c0,0.6-0.2,1-0.6,1.5c-0.4,0.4-0.9,0.7-1.7,0.8v1.1c0,0.3-0.1,0.5-0.2,0.7
			c-0.1,0.1-0.3,0.2-0.5,0.2c-0.2,0-0.4-0.1-0.5-0.2c-0.1-0.1-0.2-0.4-0.2-0.7v-1.1c-0.3-0.1-0.7-0.2-1-0.3
			c-0.2,0.2-0.4,0.2-0.5,0.2c-0.2,0-0.4-0.1-0.5-0.2S86,20,86,19.6v-0.8c0-0.3,0.1-0.6,0.2-0.7s0.3-0.2,0.5-0.2c0.2,0,0.3,0,0.4,0.1
			c0.1,0.1,0.2,0.2,0.2,0.4c0.1,0.2,0.1,0.3,0.2,0.4c0.1,0.1,0.3,0.2,0.6,0.3c0.3,0.1,0.6,0.1,0.8,0.1c0.5,0,0.9-0.1,1.2-0.4
			c0.2-0.2,0.3-0.4,0.3-0.7c0-0.2-0.1-0.4-0.2-0.5c-0.1-0.1-0.5-0.2-0.9-0.3l-1-0.2c-0.7-0.1-1.2-0.4-1.5-0.8
			c-0.3-0.4-0.5-0.8-0.5-1.3c0-0.5,0.2-1,0.5-1.4c0.4-0.4,0.8-0.7,1.4-0.8v-0.4c0-0.3,0.1-0.5,0.2-0.7c0.1-0.1,0.3-0.2,0.5-0.2
			c0.2,0,0.4,0.1,0.5,0.2c0.1,0.1,0.2,0.4,0.2,0.7V13z M97.2,17.8c0.2,0.2,0.3,0.3,0.3,0.5c0.1,0.2,0.1,0.4,0.1,0.8v2.1
			c0,0.2,0,0.3,0.1,0.4c0.1,0.1,0.2,0.1,0.4,0.1c0.2,0,0.3,0.1,0.5,0.2s0.2,0.3,0.2,0.5s-0.1,0.3-0.2,0.5c-0.1,0.1-0.3,0.2-0.5,0.2
			c-0.3,0-0.6-0.1-0.8-0.2c-0.3-0.1-0.5-0.4-0.7-0.8c-0.1-0.2-0.2-0.5-0.2-0.8V19c0-0.2,0-0.3-0.1-0.4s-0.2-0.1-0.4-0.1
			s-0.4-0.1-0.5-0.2c-0.1-0.1-0.2-0.3-0.2-0.5c0-0.2,0.1-0.4,0.2-0.5c0.1-0.1,0.3-0.2,0.5-0.2c0.2,0,0.3-0.1,0.4-0.1
			c0.1-0.1,0.1-0.2,0.1-0.4v-2.2c0-0.5,0.2-0.9,0.5-1.2c0.3-0.4,0.7-0.5,1.2-0.5c0.2,0,0.4,0.1,0.5,0.2c0.1,0.1,0.2,0.3,0.2,0.5
			c0,0.2-0.1,0.3-0.2,0.5s-0.3,0.2-0.5,0.2S97.8,14,97.8,14c-0.1,0.1-0.1,0.2-0.1,0.4v2.1c0,0.3,0,0.5-0.1,0.7
			C97.5,17.4,97.4,17.6,97.2,17.8z M106.4,16.7c-0.2-0.1-0.4-0.2-0.7-0.3c-0.2-0.1-0.5-0.1-0.7-0.1c-0.5,0-0.9,0.1-1.2,0.2
			c-0.1,0.1-0.2,0.2-0.2,0.2s0.1,0.2,0.3,0.3c0.1,0.1,0.5,0.1,0.9,0.2c0.9,0.1,1.5,0.2,1.8,0.4c0.5,0.2,0.8,0.4,1,0.7
			c0.2,0.3,0.4,0.6,0.4,1c0,0.5-0.2,0.9-0.6,1.2c-0.6,0.5-1.4,0.7-2.3,0.7c-0.4,0-0.7,0-1.1-0.1c-0.3-0.1-0.6-0.2-0.9-0.3
			c-0.1,0.1-0.1,0.1-0.2,0.1c-0.1,0-0.1,0-0.2,0c-0.2,0-0.4-0.1-0.5-0.2c-0.1-0.1-0.2-0.4-0.2-0.7v-0.5c0-0.3,0.1-0.6,0.2-0.7
			s0.3-0.2,0.5-0.2c0.2,0,0.3,0,0.4,0.1c0.1,0.1,0.2,0.2,0.3,0.5c0.2,0.2,0.4,0.3,0.7,0.4c0.3,0.1,0.6,0.1,1,0.1
			c0.6,0,1.1-0.1,1.4-0.3c0.2-0.1,0.2-0.2,0.2-0.3c0-0.2-0.1-0.3-0.3-0.4c-0.2-0.1-0.7-0.2-1.4-0.3c-1.1-0.1-1.8-0.3-2.2-0.7
			c-0.4-0.3-0.5-0.7-0.5-1.2s0.2-0.9,0.6-1.2c0.6-0.4,1.3-0.6,2.2-0.6c0.3,0,0.6,0,0.9,0.1c0.3,0.1,0.6,0.1,0.8,0.2
			c0.1-0.1,0.2-0.1,0.2-0.1c0.1,0,0.1,0,0.2,0c0.2,0,0.3,0.1,0.5,0.2c0.1,0.1,0.2,0.4,0.2,0.7v0.3c0,0.3,0,0.5-0.1,0.6
			c-0.1,0.2-0.3,0.3-0.6,0.3c-0.2,0-0.3,0-0.4-0.1C106.5,17,106.4,16.8,106.4,16.7z M113.4,12.6V14h-1.6v-1.4H113.4z M113.6,15.1
			v4.6h1.6c0.3,0,0.5,0.1,0.7,0.2c0.1,0.1,0.2,0.3,0.2,0.5c0,0.2-0.1,0.3-0.2,0.5c-0.1,0.1-0.4,0.2-0.7,0.2h-4.5
			c-0.3,0-0.5-0.1-0.7-0.2c-0.1-0.1-0.2-0.3-0.2-0.5c0-0.2,0.1-0.4,0.2-0.5c0.1-0.1,0.4-0.2,0.7-0.2h1.6v-3.2h-1.1
			c-0.3,0-0.5-0.1-0.7-0.2c-0.1-0.1-0.2-0.3-0.2-0.5c0-0.2,0.1-0.3,0.2-0.5c0.1-0.1,0.4-0.2,0.7-0.2H113.6z M120.2,19.7h2.3
			c0-0.2,0.1-0.4,0.2-0.6s0.3-0.2,0.5-0.2c0.2,0,0.4,0.1,0.5,0.2c0.1,0.1,0.2,0.4,0.2,0.7V21h-5.8v-1.1l3.5-3.5h-2v0.1
			c0,0.3-0.1,0.5-0.2,0.7s-0.3,0.2-0.5,0.2c-0.2,0-0.4-0.1-0.5-0.2s-0.2-0.4-0.2-0.7v-1.5h5.5v1.1L120.2,19.7z M132.3,18.7h-5.5
			c0.1,0.4,0.4,0.6,0.7,0.8s0.8,0.3,1.4,0.3c0.5,0,1.2-0.1,2-0.3c0.3-0.1,0.6-0.1,0.7-0.1c0.2,0,0.3,0.1,0.5,0.2s0.2,0.3,0.2,0.5
			c0,0.2-0.1,0.3-0.2,0.4c-0.2,0.2-0.6,0.3-1.3,0.5c-0.7,0.1-1.3,0.2-1.9,0.2c-1.1,0-1.9-0.3-2.6-0.9c-0.6-0.6-1-1.3-1-2.2
			c0-0.9,0.3-1.7,1-2.3c0.7-0.6,1.5-0.9,2.4-0.9c0.5,0,1,0.1,1.5,0.3c0.5,0.2,0.8,0.4,1,0.6c0.3,0.3,0.6,0.7,0.8,1.2
			c0.1,0.3,0.2,0.7,0.2,1.1V18.7z M130.8,17.4c-0.2-0.4-0.5-0.7-0.8-0.9c-0.3-0.2-0.7-0.3-1.2-0.3c-0.4,0-0.8,0.1-1.2,0.3
			s-0.6,0.5-0.8,0.9H130.8z M136.7,17.8c-0.2-0.2-0.3-0.3-0.3-0.5c-0.1-0.2-0.1-0.4-0.1-0.7v-2.1c0-0.2,0-0.3-0.1-0.4
			c-0.1-0.1-0.2-0.1-0.4-0.1c-0.2,0-0.3-0.1-0.5-0.2c-0.1-0.1-0.2-0.3-0.2-0.5c0-0.2,0.1-0.3,0.2-0.5c0.1-0.1,0.3-0.2,0.5-0.2
			c0.3,0,0.6,0.1,0.8,0.2c0.3,0.1,0.5,0.4,0.7,0.8c0.1,0.2,0.2,0.5,0.2,0.8v2.2c0,0.2,0,0.3,0.1,0.4s0.2,0.1,0.4,0.1
			c0.2,0,0.3,0.1,0.5,0.2c0.1,0.1,0.2,0.3,0.2,0.5c0,0.2-0.1,0.3-0.2,0.5c-0.1,0.1-0.3,0.2-0.5,0.2c-0.2,0-0.3,0.1-0.4,0.1
			c-0.1,0.1-0.1,0.2-0.1,0.4v2.3c0,0.5-0.2,0.9-0.5,1.2c-0.3,0.4-0.7,0.5-1.2,0.5c-0.2,0-0.4-0.1-0.5-0.2c-0.1-0.1-0.2-0.3-0.2-0.5
			c0-0.2,0.1-0.3,0.2-0.5c0.1-0.1,0.3-0.2,0.5-0.2s0.3-0.1,0.3-0.1c0.1-0.1,0.1-0.2,0.1-0.4v-2.1c0-0.4,0-0.6,0.1-0.8
			C136.4,18.1,136.5,17.9,136.7,17.8z"/>
		<path class="st4" d="M143.4,12.2l4.3,9.2c0,0.1,0.1,0.2,0.1,0.3c0,0.1,0,0.2,0,0.2c0,0.2-0.1,0.3-0.2,0.4
			c-0.1,0.1-0.3,0.2-0.5,0.2c-0.2,0-0.3,0-0.4-0.1c-0.1-0.1-0.2-0.2-0.3-0.5l-4.3-9.2c-0.1-0.2-0.2-0.4-0.2-0.5
			c0-0.2,0.1-0.3,0.2-0.4c0.1-0.1,0.3-0.2,0.5-0.2c0.2,0,0.3,0,0.4,0.1C143.2,11.8,143.3,11.9,143.4,12.2z M155.9,16v1.5
			c0,0.9-0.2,1.7-0.8,2.5s-1.2,1.2-2.1,1.2c-0.5,0-1-0.1-1.4-0.3c-0.4-0.2-0.7-0.7-1-1.3c-0.3-0.6-0.5-1.3-0.5-2V16
			c0-0.9,0.2-1.7,0.8-2.5c0.5-0.8,1.2-1.2,2.1-1.2c0.5,0,1,0.1,1.4,0.4c0.4,0.2,0.7,0.7,1.1,1.3C155.7,14.7,155.9,15.3,155.9,16z
			 M154.5,16c0-0.7-0.2-1.4-0.6-1.9c-0.2-0.3-0.6-0.4-1-0.4c-0.4,0-0.7,0.2-1,0.5c-0.4,0.5-0.6,1.1-0.6,1.9v1.5
			c0,0.7,0.2,1.4,0.6,1.9c0.2,0.3,0.5,0.5,1,0.5c0.4,0,0.7-0.2,1-0.5c0.4-0.5,0.6-1.1,0.6-1.8V16z"/>
		<path class="st2" d="M33.2,46.2h109.3v39H33.2V46.2z"/>
		<path d="M52.6,62.5c0.3,0,0.6,0.1,0.9,0.3c0.1,0,0.1-0.1,0.2-0.1s0.1,0,0.2,0c0.2,0,0.4,0.1,0.5,0.2c0.1,0.1,0.2,0.4,0.2,0.7V64
			c0,0.3-0.1,0.6-0.2,0.7s-0.3,0.2-0.5,0.2s-0.3-0.1-0.5-0.2c-0.1-0.1-0.2-0.3-0.2-0.5c-0.3-0.2-0.7-0.4-1.2-0.4
			c-0.5,0-0.8,0.1-1.1,0.3c-0.2,0.2-0.3,0.4-0.3,0.6c0,0.2,0.1,0.3,0.2,0.5c0.1,0.1,0.4,0.2,0.9,0.3l0.9,0.2
			c0.7,0.2,1.3,0.4,1.6,0.7c0.4,0.4,0.6,0.9,0.6,1.5c0,0.6-0.2,1-0.6,1.5c-0.4,0.4-0.9,0.7-1.7,0.8v1.1c0,0.3-0.1,0.5-0.2,0.7
			c-0.1,0.1-0.3,0.2-0.5,0.2c-0.2,0-0.4-0.1-0.5-0.2c-0.1-0.1-0.2-0.4-0.2-0.7v-1.1c-0.3-0.1-0.7-0.2-1-0.3C50,70,49.8,70,49.7,70
			c-0.2,0-0.4-0.1-0.5-0.2S49,69.5,49,69.2v-0.8c0-0.3,0.1-0.6,0.2-0.7s0.3-0.2,0.5-0.2c0.2,0,0.3,0,0.4,0.1
			c0.1,0.1,0.2,0.2,0.2,0.4c0.1,0.2,0.1,0.3,0.2,0.4c0.1,0.1,0.3,0.2,0.6,0.3c0.3,0.1,0.6,0.1,0.8,0.1c0.5,0,0.9-0.1,1.2-0.4
			c0.2-0.2,0.3-0.4,0.3-0.7c0-0.2-0.1-0.4-0.2-0.5c-0.1-0.1-0.5-0.2-0.9-0.3l-1-0.2c-0.7-0.1-1.2-0.4-1.5-0.8
			c-0.3-0.4-0.5-0.8-0.5-1.3c0-0.5,0.2-1,0.5-1.4c0.4-0.4,0.8-0.7,1.4-0.8v-0.4c0-0.3,0.1-0.5,0.2-0.7c0.1-0.1,0.3-0.2,0.5-0.2
			c0.2,0,0.4,0.1,0.5,0.2c0.1,0.1,0.2,0.4,0.2,0.7V62.5z M60.1,67.3c0.2,0.2,0.3,0.3,0.3,0.5c0.1,0.2,0.1,0.4,0.1,0.8v2.1
			c0,0.2,0,0.3,0.1,0.4c0.1,0.1,0.2,0.1,0.4,0.1c0.2,0,0.3,0.1,0.5,0.2s0.2,0.3,0.2,0.5s-0.1,0.3-0.2,0.5c-0.1,0.1-0.3,0.2-0.5,0.2
			c-0.3,0-0.6-0.1-0.8-0.2c-0.3-0.1-0.5-0.4-0.7-0.8c-0.1-0.2-0.2-0.5-0.2-0.8v-2.3c0-0.2,0-0.3-0.1-0.4S58.9,68,58.7,68
			s-0.4-0.1-0.5-0.2c-0.1-0.1-0.2-0.3-0.2-0.5c0-0.2,0.1-0.4,0.2-0.5c0.1-0.1,0.3-0.2,0.5-0.2c0.2,0,0.3-0.1,0.4-0.1
			c0.1-0.1,0.1-0.2,0.1-0.4v-2.2c0-0.5,0.2-0.9,0.5-1.2c0.3-0.4,0.7-0.5,1.2-0.5c0.2,0,0.4,0.1,0.5,0.2c0.1,0.1,0.2,0.3,0.2,0.5
			c0,0.2-0.1,0.3-0.2,0.5s-0.3,0.2-0.5,0.2s-0.3,0.1-0.3,0.1c-0.1,0.1-0.1,0.2-0.1,0.4v2.1c0,0.3,0,0.5-0.1,0.7
			C60.4,66.9,60.3,67.1,60.1,67.3z M70,64.8c0.2-0.1,0.3-0.2,0.5-0.2c0.2,0,0.3,0.1,0.5,0.2s0.2,0.4,0.2,0.7v0.9
			c0,0.3-0.1,0.6-0.2,0.7s-0.3,0.2-0.5,0.2c-0.2,0-0.3-0.1-0.5-0.2c-0.1-0.1-0.2-0.2-0.2-0.5c-0.1-0.2-0.2-0.4-0.4-0.5
			c-0.3-0.2-0.8-0.3-1.3-0.3c-0.6,0-1.1,0.2-1.5,0.6c-0.4,0.4-0.6,0.8-0.6,1.4c0,0.5,0.2,0.9,0.5,1.2c0.4,0.3,1,0.5,1.8,0.5
			c0.6,0,1-0.1,1.4-0.2c0.2-0.1,0.4-0.2,0.6-0.4s0.4-0.2,0.5-0.2c0.2,0,0.3,0.1,0.5,0.2c0.1,0.1,0.2,0.3,0.2,0.5
			c0,0.3-0.2,0.6-0.6,0.8c-0.6,0.4-1.5,0.6-2.6,0.6c-1,0-1.8-0.2-2.4-0.6c-0.8-0.6-1.2-1.4-1.2-2.4c0-0.9,0.3-1.7,1-2.3
			c0.6-0.6,1.5-0.9,2.5-0.9c0.4,0,0.7,0,1,0.1C69.4,64.6,69.7,64.7,70,64.8z M79.3,67.7c0,0.5-0.1,1-0.4,1.5
			c-0.3,0.5-0.7,0.9-1.3,1.2c-0.6,0.3-1.1,0.4-1.8,0.4c-0.6,0-1.2-0.1-1.8-0.4s-1-0.7-1.3-1.1s-0.4-1-0.4-1.5s0.1-1.1,0.4-1.6
			c0.3-0.5,0.7-0.9,1.3-1.2c0.6-0.3,1.1-0.4,1.8-0.4s1.2,0.2,1.8,0.5c0.6,0.3,1,0.7,1.3,1.2C79.2,66.6,79.3,67.1,79.3,67.7z
			 M78,67.7c0-0.4-0.2-0.8-0.5-1.2c-0.4-0.5-1-0.7-1.7-0.7c-0.6,0-1.1,0.2-1.5,0.6s-0.6,0.8-0.6,1.3c0,0.4,0.2,0.8,0.6,1.2
			c0.4,0.4,0.9,0.5,1.5,0.5s1.1-0.2,1.5-0.5C77.8,68.5,78,68.1,78,67.7z M82.5,64.6v0.5c0.2-0.2,0.5-0.4,0.8-0.5
			c0.3-0.1,0.6-0.2,1-0.2c0.8,0,1.4,0.2,1.9,0.7c0.4,0.4,0.5,0.9,0.5,1.5v2.5c0.3,0,0.5,0.1,0.6,0.2c0.1,0.1,0.2,0.3,0.2,0.5
			c0,0.2-0.1,0.3-0.2,0.5c-0.1,0.1-0.4,0.2-0.7,0.2h-1.2c-0.3,0-0.6-0.1-0.7-0.2c-0.1-0.1-0.2-0.3-0.2-0.5s0.1-0.4,0.2-0.5
			c0.1-0.1,0.3-0.2,0.6-0.2v-2.5c0-0.3-0.1-0.5-0.2-0.6c-0.2-0.2-0.5-0.3-0.9-0.3c-0.3,0-0.6,0.1-0.8,0.2c-0.2,0.1-0.5,0.4-0.9,0.8
			v2.5c0.3,0,0.6,0,0.7,0.1c0.2,0.1,0.3,0.3,0.3,0.6c0,0.2-0.1,0.3-0.2,0.5c-0.1,0.1-0.4,0.2-0.7,0.2h-1.5c-0.3,0-0.6-0.1-0.7-0.2
			c-0.1-0.1-0.2-0.3-0.2-0.5c0-0.2,0.1-0.4,0.3-0.6c0.1-0.1,0.3-0.1,0.7-0.1v-3.2c-0.3,0-0.5-0.1-0.6-0.2c-0.1-0.1-0.2-0.3-0.2-0.5
			c0-0.2,0.1-0.3,0.2-0.5c0.1-0.1,0.4-0.2,0.7-0.2H82.5z M91.5,65.9v2.7c0,0.3,0.1,0.5,0.2,0.6c0.2,0.1,0.5,0.2,1,0.2
			c0.7,0,1.3-0.1,1.9-0.4c0.2-0.1,0.4-0.2,0.5-0.2c0.2,0,0.3,0.1,0.4,0.2c0.1,0.1,0.2,0.3,0.2,0.5c0,0.2-0.1,0.3-0.2,0.4
			c-0.2,0.2-0.6,0.4-1.3,0.6c-0.6,0.2-1.2,0.2-1.6,0.2c-0.8,0-1.5-0.2-1.9-0.5c-0.4-0.4-0.6-0.8-0.6-1.3v-2.9h-0.5
			c-0.3,0-0.6-0.1-0.7-0.2c-0.1-0.1-0.2-0.3-0.2-0.5c0-0.2,0.1-0.3,0.2-0.5c0.1-0.1,0.4-0.2,0.7-0.2h0.5v-1.2c0-0.3,0.1-0.6,0.2-0.7
			c0.1-0.1,0.3-0.2,0.5-0.2c0.2,0,0.4,0.1,0.5,0.2c0.1,0.1,0.2,0.4,0.2,0.7v1.2H94c0.3,0,0.6,0.1,0.7,0.2c0.1,0.1,0.2,0.3,0.2,0.5
			c0,0.2-0.1,0.3-0.2,0.5c-0.1,0.1-0.4,0.2-0.7,0.2H91.5z M103.2,68.2h-5.5c0.1,0.4,0.4,0.6,0.7,0.8c0.4,0.2,0.8,0.3,1.4,0.3
			c0.5,0,1.2-0.1,2-0.3c0.3-0.1,0.6-0.1,0.7-0.1c0.2,0,0.3,0.1,0.5,0.2s0.2,0.3,0.2,0.5c0,0.2-0.1,0.3-0.2,0.4
			c-0.2,0.2-0.6,0.3-1.3,0.5c-0.7,0.1-1.3,0.2-1.9,0.2c-1.1,0-1.9-0.3-2.6-0.9c-0.6-0.6-1-1.3-1-2.2c0-0.9,0.3-1.7,1-2.3
			c0.7-0.6,1.5-0.9,2.4-0.9c0.5,0,1,0.1,1.5,0.3c0.5,0.2,0.8,0.4,1,0.6c0.3,0.3,0.6,0.7,0.8,1.2c0.1,0.3,0.2,0.7,0.2,1.1V68.2z
			 M101.7,66.9c-0.2-0.4-0.5-0.7-0.8-0.9c-0.3-0.2-0.7-0.3-1.2-0.3c-0.4,0-0.8,0.1-1.2,0.3c-0.3,0.2-0.6,0.5-0.8,0.9H101.7z
			 M106.5,64.6v0.5c0.2-0.2,0.5-0.4,0.8-0.5s0.6-0.2,1-0.2c0.8,0,1.4,0.2,1.9,0.7c0.4,0.4,0.5,0.9,0.5,1.5v2.5
			c0.3,0,0.5,0.1,0.6,0.2c0.1,0.1,0.2,0.3,0.2,0.5c0,0.2-0.1,0.3-0.2,0.5s-0.4,0.2-0.7,0.2h-1.2c-0.3,0-0.6-0.1-0.7-0.2
			s-0.2-0.3-0.2-0.5s0.1-0.4,0.2-0.5c0.1-0.1,0.3-0.2,0.6-0.2v-2.5c0-0.3-0.1-0.5-0.2-0.6c-0.2-0.2-0.5-0.3-0.9-0.3
			c-0.3,0-0.6,0.1-0.8,0.2c-0.2,0.1-0.5,0.4-0.9,0.8v2.5c0.3,0,0.6,0,0.7,0.1c0.2,0.1,0.3,0.3,0.3,0.6c0,0.2-0.1,0.3-0.2,0.5
			s-0.4,0.2-0.7,0.2h-1.5c-0.3,0-0.6-0.1-0.7-0.2s-0.2-0.3-0.2-0.5c0-0.2,0.1-0.4,0.3-0.6c0.1-0.1,0.3-0.1,0.7-0.1v-3.2
			c-0.3,0-0.5-0.1-0.6-0.2s-0.2-0.3-0.2-0.5c0-0.2,0.1-0.3,0.2-0.5s0.4-0.2,0.7-0.2H106.5z M115.5,65.9v2.7c0,0.3,0.1,0.5,0.2,0.6
			c0.2,0.1,0.5,0.2,1,0.2c0.7,0,1.3-0.1,1.9-0.4c0.2-0.1,0.4-0.2,0.5-0.2c0.2,0,0.3,0.1,0.4,0.2c0.1,0.1,0.2,0.3,0.2,0.5
			c0,0.2-0.1,0.3-0.2,0.4c-0.2,0.2-0.6,0.4-1.3,0.6c-0.6,0.2-1.2,0.2-1.6,0.2c-0.8,0-1.5-0.2-1.9-0.5c-0.4-0.4-0.6-0.8-0.6-1.3v-2.9
			h-0.5c-0.3,0-0.6-0.1-0.7-0.2c-0.1-0.1-0.2-0.3-0.2-0.5c0-0.2,0.1-0.3,0.2-0.5c0.1-0.1,0.4-0.2,0.7-0.2h0.5v-1.2
			c0-0.3,0.1-0.6,0.2-0.7c0.1-0.1,0.3-0.2,0.5-0.2c0.2,0,0.4,0.1,0.5,0.2s0.2,0.4,0.2,0.7v1.2h2.5c0.3,0,0.6,0.1,0.7,0.2
			c0.1,0.1,0.2,0.3,0.2,0.5c0,0.2-0.1,0.3-0.2,0.5c-0.1,0.1-0.4,0.2-0.7,0.2H115.5z M123.6,67.3c-0.2-0.2-0.3-0.3-0.3-0.5
			c-0.1-0.2-0.1-0.4-0.1-0.7V64c0-0.2,0-0.3-0.1-0.4c-0.1-0.1-0.2-0.1-0.4-0.1c-0.2,0-0.3-0.1-0.5-0.2c-0.1-0.1-0.2-0.3-0.2-0.5
			c0-0.2,0.1-0.3,0.2-0.5c0.1-0.1,0.3-0.2,0.5-0.2c0.3,0,0.6,0.1,0.8,0.2c0.3,0.1,0.5,0.4,0.7,0.8c0.1,0.2,0.2,0.5,0.2,0.8v2.2
			c0,0.2,0,0.3,0.1,0.4c0.1,0.1,0.2,0.1,0.4,0.1c0.2,0,0.3,0.1,0.5,0.2c0.1,0.1,0.2,0.3,0.2,0.5c0,0.2-0.1,0.3-0.2,0.5
			c-0.1,0.1-0.3,0.2-0.5,0.2c-0.2,0-0.3,0.1-0.4,0.1c-0.1,0.1-0.1,0.2-0.1,0.4v2.3c0,0.5-0.2,0.9-0.5,1.2c-0.3,0.4-0.7,0.5-1.2,0.5
			c-0.2,0-0.4-0.1-0.5-0.2c-0.1-0.1-0.2-0.3-0.2-0.5c0-0.2,0.1-0.3,0.2-0.5c0.1-0.1,0.3-0.2,0.5-0.2c0.2,0,0.3-0.1,0.3-0.1
			c0.1-0.1,0.1-0.2,0.1-0.4v-2.1c0-0.4,0-0.6,0.1-0.8C123.3,67.6,123.4,67.5,123.6,67.3z"/>
	</g>
</g>
</svg>
