<svg id="Layer_1" data-name="Layer 1" xmlns="http://www.w3.org/2000/svg" viewBox="0 0 808.15 262.87"><defs><style>.cls-1{fill:#ffe599;}.cls-1,.cls-3{fill-rule:evenodd;}.cls-2{fill:none;stroke:#595959;stroke-linejoin:round;}.cls-3{fill-opacity:0;}.cls-4{fill:#242729;}.cls-5{fill:#202122;}</style></defs><path class="cls-1" d="M21.68,82h0A21.74,21.74,0,0,1,43.42,60.28h128.3A21.75,21.75,0,0,1,193.46,82v87a21.74,21.74,0,0,1-21.74,21.74H43.42A21.74,21.74,0,0,1,21.68,169Z"/><path class="cls-2" d="M21.68,82h0A21.74,21.74,0,0,1,43.42,60.28h128.3A21.75,21.75,0,0,1,193.46,82v87a21.74,21.74,0,0,1-21.74,21.74H43.42A21.74,21.74,0,0,1,21.68,169Z"/><path class="cls-3" d="M21.29,88.12l172.15-1.33"/><path class="cls-2" d="M21.29,88.12l172.15-1.33"/><path class="cls-3" d="M19.5,64.26H195.25V93H19.5Z"/><path d="M52.6,72.34v3a4.28,4.28,0,0,1,1-.47,3.61,3.61,0,0,1,1-.16,3.15,3.15,0,0,1,2.34,1,3.09,3.09,0,0,1,1,2.31A2.89,2.89,0,0,1,57,80.14a3.38,3.38,0,0,1-2.42.86,3.88,3.88,0,0,1-1-.14,4.2,4.2,0,0,1-1-.41v.33H51a1,1,0,0,1-.69-.19.63.63,0,0,1-.2-.48.6.6,0,0,1,.2-.47,1.09,1.09,0,0,1,.69-.19h.24V73.67H51a1,1,0,0,1-.69-.19.63.63,0,0,1-.2-.48.63.63,0,0,1,.2-.47,1.05,1.05,0,0,1,.69-.19Zm4,5.66A1.82,1.82,0,0,0,56,76.61,1.9,1.9,0,0,0,54.6,76a1.92,1.92,0,0,0-1.42.58A1.85,1.85,0,0,0,52.6,78a1.58,1.58,0,0,0,.52,1.21,2.17,2.17,0,0,0,1.48.47,2.11,2.11,0,0,0,1.47-.47A1.5,1.5,0,0,0,56.6,78ZM63,72.34v7.11h1.59a1,1,0,0,1,.69.19.61.61,0,0,1,.21.49.59.59,0,0,1-.21.46,1,1,0,0,1-.69.19H60a1,1,0,0,1-.68-.19.6.6,0,0,1-.21-.48.58.58,0,0,1,.21-.47,1,1,0,0,1,.68-.19h1.6V73.67H60.55a1,1,0,0,1-.7-.19.63.63,0,0,1-.2-.48.63.63,0,0,1,.2-.47,1.1,1.1,0,0,1,.7-.19Zm10.8,5.6a2.83,2.83,0,0,1-.44,1.48,3,3,0,0,1-1.27,1.16,3.86,3.86,0,0,1-3.5,0,3,3,0,0,1-1.26-1.14,2.91,2.91,0,0,1-.44-1.52,3.13,3.13,0,0,1,.44-1.56,3,3,0,0,1,1.26-1.22,3.81,3.81,0,0,1,1.75-.44,3.55,3.55,0,0,1,1.75.46,2.9,2.9,0,0,1,1.27,1.2A3.17,3.17,0,0,1,73.76,77.94Zm-1.35,0A1.75,1.75,0,0,0,72,76.77,2.11,2.11,0,0,0,70.3,76a2.08,2.08,0,0,0-1.51.58A1.77,1.77,0,0,0,68.18,78a1.58,1.58,0,0,0,.61,1.18,2.26,2.26,0,0,0,1.51.53,2.2,2.2,0,0,0,1.5-.53A1.6,1.6,0,0,0,72.41,77.94Zm4.19-5.6v3a3.94,3.94,0,0,1,1-.47,3.49,3.49,0,0,1,1-.16,3.19,3.19,0,0,1,2.35,1,3.13,3.13,0,0,1,1,2.31A2.86,2.86,0,0,1,81,80.14a3.38,3.38,0,0,1-2.42.86,3.94,3.94,0,0,1-1-.14,4.14,4.14,0,0,1-1-.41v.33H75a1,1,0,0,1-.69-.19.59.59,0,0,1-.2-.48.57.57,0,0,1,.2-.47,1.05,1.05,0,0,1,.69-.19h.23V73.67H75a1,1,0,0,1-.69-.19.59.59,0,0,1-.2-.48.6.6,0,0,1,.2-.47,1,1,0,0,1,.69-.19Zm4,5.66a1.82,1.82,0,0,0-.6-1.39A1.88,1.88,0,0,0,78.6,76a1.91,1.91,0,0,0-1.42.58A1.81,1.81,0,0,0,76.6,78a1.57,1.57,0,0,0,.51,1.21,2.2,2.2,0,0,0,1.49.47,2.14,2.14,0,0,0,1.47-.47A1.53,1.53,0,0,0,80.6,78Z"/><path class="cls-4" d="M91.78,80.22v2.45H83V80.22h.86v1.5h7.12v-1.5Z"/><path d="M97.14,72.77a3.58,3.58,0,0,1,.91.26.76.76,0,0,1,.18-.09l.19,0a.61.61,0,0,1,.49.22,1,1,0,0,1,.18.68v.42a1,1,0,0,1-.18.69.62.62,0,0,1-.47.21A.64.64,0,0,1,98,75a.75.75,0,0,1-.2-.51,1.85,1.85,0,0,0-1.18-.38,1.7,1.7,0,0,0-1.07.27.75.75,0,0,0-.35.58.66.66,0,0,0,.2.45,2.36,2.36,0,0,0,.88.33l.89.19a3.41,3.41,0,0,1,1.61.68,2,2,0,0,1,.62,1.53,2.21,2.21,0,0,1-.57,1.49,2.84,2.84,0,0,1-1.66.84v1.14a.93.93,0,0,1-.19.67.58.58,0,0,1-.48.22.61.61,0,0,1-.49-.22,1,1,0,0,1-.18-.67V80.42a5,5,0,0,1-1-.34.9.9,0,0,1-.54.23.69.69,0,0,1-.5-.2,1.06,1.06,0,0,1-.18-.69v-.83a1,1,0,0,1,.18-.68.64.64,0,0,1,.49-.21.58.58,0,0,1,.39.13.66.66,0,0,1,.23.4,1,1,0,0,0,.22.41,1.39,1.39,0,0,0,.58.34,2.4,2.4,0,0,0,.84.15,2,2,0,0,0,1.24-.4.77.77,0,0,0,.33-.65.78.78,0,0,0-.22-.55,2.14,2.14,0,0,0-.94-.34l-1-.21a2.76,2.76,0,0,1-1.55-.76,1.93,1.93,0,0,1-.5-1.33,2,2,0,0,1,.53-1.36,2.38,2.38,0,0,1,1.43-.76v-.36a1,1,0,0,1,.18-.68.64.64,0,0,1,.49-.21.6.6,0,0,1,.48.21,1,1,0,0,1,.19.68Zm7.59,4.78a1.53,1.53,0,0,1,.32.51,2.67,2.67,0,0,1,.09.82V81a.62.62,0,0,0,.09.38.61.61,0,0,0,.38.12.65.65,0,0,1,.45.22.69.69,0,0,1,0,.94.67.67,0,0,1-.5.2,1.71,1.71,0,0,1-.83-.23,1.9,1.9,0,0,1-.7-.75,1.52,1.52,0,0,1-.19-.79V78.75a.62.62,0,0,0-.09-.39.65.65,0,0,0-.39-.14.76.76,0,0,1-.47-.2.71.71,0,0,1-.16-.47.64.64,0,0,1,.16-.47.7.7,0,0,1,.47-.2.87.87,0,0,0,.37-.13.67.67,0,0,0,.11-.41V74.11a1.64,1.64,0,0,1,.52-1.22,1.62,1.62,0,0,1,1.2-.53.67.67,0,0,1,.5.2.63.63,0,0,1,.2.47.6.6,0,0,1-.17.45.65.65,0,0,1-.45.22.61.61,0,0,0-.35.11.63.63,0,0,0-.12.41v2.12a2.19,2.19,0,0,1-.09.71A1.72,1.72,0,0,1,104.73,77.55Zm9.17-1.11a2.4,2.4,0,0,0-.68-.3,2.55,2.55,0,0,0-.74-.11,2.51,2.51,0,0,0-1.23.25c-.14.07-.21.16-.21.25s.09.19.27.28a3.46,3.46,0,0,0,.94.21,10.56,10.56,0,0,1,1.84.37,2.15,2.15,0,0,1,1,.72,1.57,1.57,0,0,1,.37,1,1.48,1.48,0,0,1-.62,1.19,3.73,3.73,0,0,1-2.35.7,5.17,5.17,0,0,1-1.07-.11,3.29,3.29,0,0,1-.9-.3.64.64,0,0,1-.21.14.47.47,0,0,1-.22,0,.65.65,0,0,1-.5-.2,1,1,0,0,1-.19-.69v-.45a1,1,0,0,1,.19-.69.59.59,0,0,1,.48-.2.52.52,0,0,1,.39.14.76.76,0,0,1,.27.45,2.08,2.08,0,0,0,.72.39,3.73,3.73,0,0,0,1,.13,3.05,3.05,0,0,0,1.42-.28c.16-.1.25-.2.25-.3s-.12-.32-.35-.44a5.64,5.64,0,0,0-1.42-.28,4,4,0,0,1-2.15-.66,1.52,1.52,0,0,1,.06-2.36,3.47,3.47,0,0,1,2.16-.64,3.57,3.57,0,0,1,.87.1,3.32,3.32,0,0,1,.83.25,1.1,1.1,0,0,1,.23-.13.56.56,0,0,1,.64.16,1,1,0,0,1,.19.69v.32a1.35,1.35,0,0,1-.09.6.68.68,0,0,1-.58.29.63.63,0,0,1-.42-.14A.75.75,0,0,1,113.9,76.44Zm7-4.1v1.41h-1.6V72.34Zm.17,2.54v4.57h1.61a1,1,0,0,1,.67.19.59.59,0,0,1,.22.49.57.57,0,0,1-.22.46.94.94,0,0,1-.67.19h-4.55a1,1,0,0,1-.69-.19.63.63,0,0,1-.2-.48.6.6,0,0,1,.2-.47,1.09,1.09,0,0,1,.69-.19h1.61V76.2h-1.08A1,1,0,0,1,118,76a.64.64,0,0,1-.21-.49.61.61,0,0,1,.21-.47,1,1,0,0,1,.68-.18Zm6.62,4.57h2.35a.79.79,0,0,1,.2-.56.64.64,0,0,1,.45-.19.61.61,0,0,1,.49.21,1,1,0,0,1,.18.68v1.19h-5.79V79.67l3.51-3.47h-2v.14a1,1,0,0,1-.19.68.69.69,0,0,1-1,0,1,1,0,0,1-.19-.68V74.88h5.53V76Zm12.06-1h-5.47a1.63,1.63,0,0,0,.74.84,2.79,2.79,0,0,0,1.44.32,8.4,8.4,0,0,0,2-.32,3.68,3.68,0,0,1,.7-.12.58.58,0,0,1,.45.19.61.61,0,0,1,.19.47.55.55,0,0,1-.2.43,3,3,0,0,1-1.29.47,8.64,8.64,0,0,1-1.92.22,3.61,3.61,0,0,1-2.58-.91,3,3,0,0,1-1-2.23,2.86,2.86,0,0,1,1-2.28,3.62,3.62,0,0,1,2.41-.88,3.9,3.9,0,0,1,1.48.28,3.33,3.33,0,0,1,1,.61,4.2,4.2,0,0,1,.78,1.21,2.83,2.83,0,0,1,.2,1.14Zm-1.47-1.33a2,2,0,0,0-.81-.86,2.35,2.35,0,0,0-1.17-.28,2.41,2.41,0,0,0-1.17.28,2.11,2.11,0,0,0-.81.86Zm5.83.38a1.79,1.79,0,0,1-.33-.52,2.46,2.46,0,0,1-.08-.69V74.22a.56.56,0,0,0-.1-.38.62.62,0,0,0-.38-.14.69.69,0,0,1-.45-.22.67.67,0,0,1,0-.92.69.69,0,0,1,.5-.2,1.71,1.71,0,0,1,.84.23,1.91,1.91,0,0,1,.71.75,1.59,1.59,0,0,1,.18.77v2.23a.55.55,0,0,0,.1.39.6.6,0,0,0,.39.15.63.63,0,0,1,.45.2.64.64,0,0,1,.17.47.63.63,0,0,1-.64.67q-.3,0-.36.12a.65.65,0,0,0-.11.41v2.34a1.66,1.66,0,0,1-.53,1.24,1.62,1.62,0,0,1-1.19.53.71.71,0,0,1-.51-.2.6.6,0,0,1-.2-.47.64.64,0,0,1,.17-.46.76.76,0,0,1,.47-.21.65.65,0,0,0,.34-.11.63.63,0,0,0,.12-.41V78.88a3.13,3.13,0,0,1,.08-.82A1.3,1.3,0,0,1,144.16,77.55Z"/><path class="cls-5" d="M150.92,72l4.29,9.18c0,.05,0,.16.11.34a.73.73,0,0,1,0,.22.51.51,0,0,1-.19.4.58.58,0,0,1-.45.19.66.66,0,0,1-.42-.12,1.5,1.5,0,0,1-.3-.46l-4.28-9.18a1.49,1.49,0,0,1-.15-.5.6.6,0,0,1,.18-.44.63.63,0,0,1,.47-.2.57.57,0,0,1,.39.12A1,1,0,0,1,150.92,72Zm12.44,3.88V77.3a4.58,4.58,0,0,1-.75,2.48A2.39,2.39,0,0,1,160.47,81a2.71,2.71,0,0,1-1.38-.34,3.46,3.46,0,0,1-1-1.32,4.16,4.16,0,0,1-.5-2V75.83a4.61,4.61,0,0,1,.75-2.49,2.38,2.38,0,0,1,2.14-1.2,2.44,2.44,0,0,1,1.36.36,3.23,3.23,0,0,1,1.06,1.3A4.32,4.32,0,0,1,163.36,75.83Zm-1.33,0a3.07,3.07,0,0,0-.61-1.91,1.17,1.17,0,0,0-1-.44,1.25,1.25,0,0,0-1,.49,3,3,0,0,0-.57,1.86V77.3a2.94,2.94,0,0,0,.62,1.89,1.12,1.12,0,0,0,1,.45,1.16,1.16,0,0,0,1-.5A2.86,2.86,0,0,0,162,77.3Z"/><path class="cls-3" d="M52.73,106H162v39H52.73Z"/><path d="M72.05,122.28a3.36,3.36,0,0,1,.91.26.82.82,0,0,1,.19-.09.58.58,0,0,1,.19,0,.61.61,0,0,1,.48.22,1,1,0,0,1,.19.69v.42a1.05,1.05,0,0,1-.19.69.63.63,0,0,1-.47.2.7.7,0,0,1-.47-.17.85.85,0,0,1-.2-.52,1.8,1.8,0,0,0-1.17-.37,1.75,1.75,0,0,0-1.08.26.74.74,0,0,0-.34.58.59.59,0,0,0,.2.45,2,2,0,0,0,.87.33l.89.19a3.31,3.31,0,0,1,1.61.69,2,2,0,0,1,.63,1.53,2.16,2.16,0,0,1-.58,1.48,2.9,2.9,0,0,1-1.66.85v1.14a1,1,0,0,1-.18.67.64.64,0,0,1-.49.22.61.61,0,0,1-.48-.22,1,1,0,0,1-.19-.67v-1.14a5.22,5.22,0,0,1-1-.35.86.86,0,0,1-.53.24.63.63,0,0,1-.5-.21,1,1,0,0,1-.19-.68v-.83a1,1,0,0,1,.19-.69.59.59,0,0,1,.48-.2.61.61,0,0,1,.39.12.62.62,0,0,1,.24.41.85.85,0,0,0,.22.4,1.39,1.39,0,0,0,.57.35,2.7,2.7,0,0,0,.85.14,1.93,1.93,0,0,0,1.23-.39.8.8,0,0,0,.33-.66.74.74,0,0,0-.22-.55,2.09,2.09,0,0,0-.94-.34l-1-.2a2.74,2.74,0,0,1-1.54-.77,1.87,1.87,0,0,1-.5-1.33,2,2,0,0,1,.53-1.36,2.36,2.36,0,0,1,1.42-.76v-.36a.94.94,0,0,1,.19-.67.58.58,0,0,1,.48-.22.61.61,0,0,1,.49.22,1,1,0,0,1,.18.67Zm7.6,4.78a1.52,1.52,0,0,1,.31.52,2.55,2.55,0,0,1,.09.81v2.12a.54.54,0,0,0,.1.38.56.56,0,0,0,.37.12.69.69,0,0,1,.45.22.66.66,0,0,1,.18.47.61.61,0,0,1-.21.47.65.65,0,0,1-.5.2,1.74,1.74,0,0,1-.83-.23,1.9,1.9,0,0,1-.7-.75,1.61,1.61,0,0,1-.19-.78v-2.35a.66.66,0,0,0-.09-.39.6.6,0,0,0-.39-.14.78.78,0,0,1-.47-.2.74.74,0,0,1-.16-.47.7.7,0,0,1,.16-.47.78.78,0,0,1,.47-.2.63.63,0,0,0,.37-.13.6.6,0,0,0,.11-.4v-2.24a1.7,1.7,0,0,1,.52-1.22,1.62,1.62,0,0,1,1.2-.53.63.63,0,0,1,.5.21.59.59,0,0,1,.21.46A.65.65,0,0,1,81,123a.69.69,0,0,1-.45.22c-.19,0-.3,0-.34.11a.54.54,0,0,0-.13.4v2.13a2.16,2.16,0,0,1-.09.7A1.55,1.55,0,0,1,79.65,127.06Zm9.81-2.44a.73.73,0,0,1,.5-.22.62.62,0,0,1,.47.21,1,1,0,0,1,.18.67v.86a1.06,1.06,0,0,1-.18.69.66.66,0,0,1-.49.2.69.69,0,0,1-.47-.16,1,1,0,0,1-.2-.48.74.74,0,0,0-.39-.53,2.57,2.57,0,0,0-1.35-.32,2.05,2.05,0,0,0-1.51.57,1.83,1.83,0,0,0-.56,1.39,1.52,1.52,0,0,0,.54,1.23,2.89,2.89,0,0,0,1.82.46,4.35,4.35,0,0,0,1.36-.18,1.77,1.77,0,0,0,.59-.36.84.84,0,0,1,.5-.25.61.61,0,0,1,.47.21.66.66,0,0,1,.2.48,1.07,1.07,0,0,1-.59.83,4.83,4.83,0,0,1-2.64.59,4.05,4.05,0,0,1-2.43-.64,2.77,2.77,0,0,1-1.17-2.37,3.13,3.13,0,0,1,1-2.35,3.39,3.39,0,0,1,2.48-.93,4.2,4.2,0,0,1,1,.11A3.57,3.57,0,0,1,89.46,124.62Zm9.39,2.83a2.86,2.86,0,0,1-.44,1.49,3.1,3.1,0,0,1-1.27,1.15,3.86,3.86,0,0,1-3.5,0A3,3,0,0,1,92.38,129a2.87,2.87,0,0,1-.44-1.51,3.14,3.14,0,0,1,.44-1.57,3.09,3.09,0,0,1,1.26-1.22,3.77,3.77,0,0,1,1.75-.43,3.65,3.65,0,0,1,1.75.45,3,3,0,0,1,1.27,1.2A3.17,3.17,0,0,1,98.85,127.45Zm-1.35,0a1.75,1.75,0,0,0-.45-1.17,2.24,2.24,0,0,0-3.17-.16,1.81,1.81,0,0,0-.61,1.35,1.58,1.58,0,0,0,.61,1.17,2.26,2.26,0,0,0,1.51.53,2.2,2.2,0,0,0,1.5-.53A1.59,1.59,0,0,0,97.5,127.45Zm4.53-3.06v.45a2.59,2.59,0,0,1,.8-.47,2.91,2.91,0,0,1,1-.15,2.46,2.46,0,0,1,1.88.73,2.17,2.17,0,0,1,.54,1.53V129a1,1,0,0,1,.63.18.68.68,0,0,1,0,1,1.06,1.06,0,0,1-.69.18h-1.2a1,1,0,0,1-.69-.18.7.7,0,0,1,0-1,1,1,0,0,1,.64-.18v-2.53a.77.77,0,0,0-.23-.63,1.38,1.38,0,0,0-.92-.27,1.73,1.73,0,0,0-.81.19,3.83,3.83,0,0,0-.88.75V129a1.58,1.58,0,0,1,.66.09.68.68,0,0,1,.11,1.05,1.06,1.06,0,0,1-.69.18h-1.52a1,1,0,0,1-.68-.18.66.66,0,0,1,.11-1.05,1.55,1.55,0,0,1,.67-.09v-3.25a1,1,0,0,1-.63-.19.66.66,0,0,1-.2-.49.61.61,0,0,1,.2-.46,1,1,0,0,1,.69-.19Zm9,1.33v2.67a.73.73,0,0,0,.18.58,1.77,1.77,0,0,0,1,.2,4.13,4.13,0,0,0,1.88-.44,1.44,1.44,0,0,1,.53-.15.55.55,0,0,1,.43.2.6.6,0,0,1,0,.91,3.16,3.16,0,0,1-1.26.57,6.2,6.2,0,0,1-1.58.25,2.78,2.78,0,0,1-1.87-.53,1.71,1.71,0,0,1-.61-1.33v-2.93h-.49a1.05,1.05,0,0,1-.69-.19.66.66,0,0,1-.2-.49.61.61,0,0,1,.2-.46,1,1,0,0,1,.69-.19h.49v-1.2a1,1,0,0,1,.17-.69.61.61,0,0,1,.48-.21.64.64,0,0,1,.49.21,1,1,0,0,1,.18.69v1.2h2.47a1,1,0,0,1,.69.19.59.59,0,0,1,.2.48.6.6,0,0,1-.2.47,1,1,0,0,1-.69.19ZM122.71,128h-5.46a1.63,1.63,0,0,0,.73.85,2.8,2.8,0,0,0,1.44.31,8.29,8.29,0,0,0,2-.31,3.19,3.19,0,0,1,.7-.13.58.58,0,0,1,.45.19.61.61,0,0,1,.19.47.57.57,0,0,1-.2.44,3.17,3.17,0,0,1-1.28.46,8.79,8.79,0,0,1-1.93.22,3.61,3.61,0,0,1-2.57-.9,3,3,0,0,1-1-2.24,2.87,2.87,0,0,1,1-2.28,3.66,3.66,0,0,1,2.41-.87,3.72,3.72,0,0,1,1.48.28,3.14,3.14,0,0,1,1,.61,4,4,0,0,1,.78,1.2,2.83,2.83,0,0,1,.2,1.14Zm-1.46-1.32a2,2,0,0,0-.82-.86,2.25,2.25,0,0,0-1.17-.29,2.31,2.31,0,0,0-1.17.29,2.05,2.05,0,0,0-.81.86Zm4.78-2.3v.45a2.55,2.55,0,0,1,.79-.47,2.93,2.93,0,0,1,1-.15,2.43,2.43,0,0,1,1.87.73,2.13,2.13,0,0,1,.55,1.53V129a.9.9,0,0,1,.62.18.65.65,0,0,1,0,1,1,1,0,0,1-.68.18h-1.21a1.06,1.06,0,0,1-.69-.18.66.66,0,0,1-.2-.49.6.6,0,0,1,.19-.47.94.94,0,0,1,.64-.18v-2.53a.81.81,0,0,0-.23-.63,1.39,1.39,0,0,0-.93-.27,1.73,1.73,0,0,0-.81.19,3.63,3.63,0,0,0-.87.75V129a1.5,1.5,0,0,1,.65.09.63.63,0,0,1,.31.58.6.6,0,0,1-.2.47,1,1,0,0,1-.69.18h-1.51a1.06,1.06,0,0,1-.69-.18.66.66,0,0,1-.2-.49.63.63,0,0,1,.31-.56,1.58,1.58,0,0,1,.67-.09v-3.25a.9.9,0,0,1-.62-.19.64.64,0,0,1-.21-.49.59.59,0,0,1,.21-.46,1,1,0,0,1,.68-.19Zm9,1.33v2.67a.77.77,0,0,0,.17.58,1.83,1.83,0,0,0,1,.2,4.09,4.09,0,0,0,1.87-.44,1.49,1.49,0,0,1,.53-.15.57.57,0,0,1,.44.2.62.62,0,0,1,0,.91,3.22,3.22,0,0,1-1.27.57,6.13,6.13,0,0,1-1.57.25,2.81,2.81,0,0,1-1.88-.53,1.71,1.71,0,0,1-.61-1.33v-2.93h-.48a1,1,0,0,1-.69-.19.63.63,0,0,1-.2-.49.58.58,0,0,1,.2-.46,1,1,0,0,1,.69-.19h.48v-1.2a1.09,1.09,0,0,1,.17-.69.64.64,0,0,1,.49-.21.6.6,0,0,1,.48.21,1,1,0,0,1,.19.69v1.2h2.47a1,1,0,0,1,.69.19.63.63,0,0,1,.2.48.63.63,0,0,1-.2.47,1.05,1.05,0,0,1-.69.19Zm8,1.34a1.6,1.6,0,0,1-.33-.52,2.38,2.38,0,0,1-.08-.68v-2.13a.47.47,0,0,0-.11-.37.51.51,0,0,0-.37-.14.74.74,0,0,1-.45-.22.65.65,0,0,1-.18-.46.59.59,0,0,1,.21-.46.66.66,0,0,1,.5-.21,1.63,1.63,0,0,1,.84.24,1.71,1.71,0,0,1,.7.75,1.45,1.45,0,0,1,.19.76v2.24a.43.43,0,0,0,.49.53.72.72,0,0,1,.45.2.66.66,0,0,1,.17.47.7.7,0,0,1-.17.47.73.73,0,0,1-.47.2c-.2,0-.32.06-.36.13a.62.62,0,0,0-.11.4v2.35a1.66,1.66,0,0,1-.53,1.23,1.58,1.58,0,0,1-1.19.53.69.69,0,0,1-.51-.2.64.64,0,0,1,0-.92.72.72,0,0,1,.46-.22.58.58,0,0,0,.35-.11.61.61,0,0,0,.12-.41v-2.12a3,3,0,0,1,.08-.81A1.33,1.33,0,0,1,143.07,127.06Z"/></svg>