<?xml version="1.0" encoding="utf-8"?>
<!-- Generator: Adobe Illustrator 26.2.1, SVG Export Plug-In . SVG Version: 6.00 Build 0)  -->
<svg version="1.1" id="Layer_1" xmlns="http://www.w3.org/2000/svg" xmlns:xlink="http://www.w3.org/1999/xlink" x="0px" y="0px"
	 viewBox="0 0 808.2 262.9" style="enable-background:new 0 0 808.2 262.9;" xml:space="preserve">
<style type="text/css">
	.st0{font-family:'Nunito-Regular';}
	.st1{font-size:48px;}
	.st2{fill-rule:evenodd;clip-rule:evenodd;fill:#FFE599;}
	.st3{fill:none;stroke:#595959;stroke-linejoin:round;}
	.st4{fill-rule:evenodd;clip-rule:evenodd;fill-opacity:0;}
	.st5{fill:#242729;}
	.st6{fill:#202122;}
</style>
<text transform="matrix(1 0 0 1 16.6899 145.8419)" class="st0 st1">gitoid(${contents}) = sha1(</text>
<text transform="matrix(1 0 0 1 781.27 145.8419)" class="st0 st1">)</text>
<path class="st2" d="M598.1,91.8L598.1,91.8c0-12,9.7-21.7,21.7-21.7h128.3c12,0,21.7,9.7,21.7,21.7v87c0,12-9.7,21.7-21.7,21.7
	c0,0,0,0,0,0H619.8c-12,0-21.7-9.7-21.7-21.7l0,0V91.8z"/>
<path class="st3" d="M598.1,91.8L598.1,91.8c0-12,9.7-21.7,21.7-21.7h128.3c12,0,21.7,9.7,21.7,21.7v87c0,12-9.7,21.7-21.7,21.7
	c0,0,0,0,0,0H619.8c-12,0-21.7-9.7-21.7-21.7l0,0V91.8z"/>
<path class="st4" d="M597.7,97.9l172.2-1.3"/>
<path class="st3" d="M597.7,97.9l172.2-1.3"/>
<path class="st4" d="M595.9,74.1h175.8v28.7H595.9V74.1z"/>
<path d="M629,82.1v3c0.3-0.2,0.6-0.4,1-0.5c0.3-0.1,0.7-0.2,1-0.2c0.9,0,1.7,0.4,2.3,1c0.6,0.6,1,1.4,1,2.3c0,0.8-0.3,1.6-0.9,2.1
	c-0.7,0.6-1.5,0.9-2.4,0.9c-0.3,0-0.7,0-1-0.1c-0.3-0.1-0.7-0.2-1-0.4v0.3h-1.6c-0.2,0-0.5,0-0.7-0.2c-0.1-0.1-0.2-0.3-0.2-0.5
	c0-0.2,0.1-0.4,0.2-0.5c0.2-0.1,0.4-0.2,0.7-0.2h0.2v-5.8h-0.2c-0.2,0-0.5,0-0.7-0.2c-0.1-0.1-0.2-0.3-0.2-0.5
	c0-0.2,0.1-0.3,0.2-0.5c0.2-0.1,0.4-0.2,0.7-0.2L629,82.1z M633,87.8c0-0.5-0.2-1-0.6-1.4c-0.4-0.4-0.9-0.6-1.4-0.6
	c-0.5,0-1,0.2-1.4,0.6c-0.4,0.4-0.6,0.9-0.6,1.4c0,0.5,0.2,0.9,0.5,1.2c0.4,0.3,0.9,0.5,1.5,0.5c0.5,0,1.1-0.1,1.5-0.5
	C632.9,88.7,633,88.3,633,87.8z M639.4,82.1v7.1h1.6c0.2,0,0.5,0,0.7,0.2c0.1,0.1,0.2,0.3,0.2,0.5c0,0.2-0.1,0.3-0.2,0.5
	c-0.2,0.1-0.4,0.2-0.7,0.2h-4.6c-0.2,0-0.5,0-0.7-0.2c-0.1-0.1-0.2-0.3-0.2-0.5c0-0.2,0.1-0.4,0.2-0.5c0.2-0.1,0.4-0.2,0.7-0.2h1.6
	v-5.8h-1c-0.2,0-0.5,0-0.7-0.2c-0.1-0.1-0.2-0.3-0.2-0.5c0-0.2,0.1-0.3,0.2-0.5c0.2-0.1,0.5-0.2,0.7-0.2L639.4,82.1z M650.2,87.7
	c0,0.5-0.2,1-0.4,1.5c-0.3,0.5-0.7,0.9-1.3,1.2c-1.1,0.6-2.4,0.6-3.5,0c-0.5-0.3-1-0.6-1.3-1.1c-0.3-0.5-0.4-1-0.4-1.5
	c0-0.5,0.2-1.1,0.4-1.6c0.3-0.5,0.7-0.9,1.3-1.2c0.5-0.3,1.1-0.4,1.8-0.4c0.6,0,1.2,0.2,1.8,0.5c0.5,0.3,1,0.7,1.3,1.2
	C650.1,86.6,650.2,87.2,650.2,87.7L650.2,87.7z M648.9,87.7c0-0.4-0.2-0.8-0.5-1.2c-0.4-0.5-1-0.8-1.7-0.8c-0.6,0-1.1,0.2-1.5,0.6
	c-0.4,0.4-0.6,0.9-0.6,1.4c0,0.5,0.2,0.9,0.6,1.2c0.4,0.4,1,0.5,1.5,0.5c0.5,0,1.1-0.2,1.5-0.5C648.6,88.7,648.8,88.2,648.9,87.7
	L648.9,87.7z M653.1,82.1v3c0.3-0.2,0.6-0.4,1-0.5c0.3-0.1,0.7-0.2,1-0.2c0.9,0,1.7,0.4,2.3,1c0.6,0.6,1,1.4,1,2.3
	c0,0.8-0.4,1.6-1,2.1c-0.7,0.6-1.5,0.9-2.4,0.9c-0.3,0-0.7-0.1-1-0.1c-0.3-0.1-0.7-0.2-1-0.4v0.3h-1.6c-0.2,0-0.5,0-0.7-0.2
	c-0.1-0.1-0.2-0.3-0.2-0.5c0-0.2,0.1-0.4,0.2-0.5c0.2-0.1,0.4-0.2,0.7-0.2h0.2v-5.8h-0.2c-0.2,0-0.5,0-0.7-0.2
	c-0.1-0.1-0.2-0.3-0.2-0.5c0-0.2,0.1-0.4,0.2-0.5c0.2-0.1,0.4-0.2,0.7-0.2L653.1,82.1z M657.1,87.8c0-0.5-0.2-1-0.6-1.4
	c-0.4-0.4-0.9-0.6-1.4-0.6c-0.5,0-1,0.2-1.4,0.6c-0.4,0.4-0.6,0.9-0.6,1.4c0,0.5,0.2,0.9,0.5,1.2c0.4,0.3,1,0.5,1.5,0.5
	c0.5,0,1.1-0.1,1.5-0.5C656.9,88.7,657,88.3,657.1,87.8L657.1,87.8z"/>
<path class="st5" d="M668.2,90v2.4h-8.8V90h0.9v1.5h7.1V90H668.2z"/>
<path d="M673.6,82.6c0.3,0,0.6,0.1,0.9,0.3c0.1,0,0.1-0.1,0.2-0.1h0.2c0.2,0,0.4,0.1,0.5,0.2c0.1,0.2,0.2,0.4,0.2,0.7v0.4
	c0,0.2,0,0.5-0.2,0.7c-0.1,0.1-0.3,0.2-0.5,0.2c-0.2,0-0.3-0.1-0.4-0.2c-0.1-0.1-0.2-0.3-0.2-0.5c-0.3-0.3-0.8-0.4-1.2-0.4
	c-0.4,0-0.8,0.1-1.1,0.3c-0.2,0.1-0.3,0.3-0.3,0.6c0,0.2,0.1,0.3,0.2,0.4c0.3,0.2,0.6,0.3,0.9,0.3l0.9,0.2c0.6,0.1,1.1,0.3,1.6,0.7
	c0.4,0.4,0.6,1,0.6,1.5c0,0.6-0.2,1.1-0.6,1.5c-0.4,0.5-1,0.8-1.7,0.8v1.1c0,0.2,0,0.5-0.2,0.7c-0.1,0.1-0.3,0.2-0.5,0.2
	c-0.2,0-0.4-0.1-0.5-0.2c-0.1-0.2-0.2-0.4-0.2-0.7v-1.2c-0.3-0.1-0.7-0.2-1-0.3c-0.1,0.1-0.3,0.2-0.5,0.2c-0.2,0-0.4-0.1-0.5-0.2
	c-0.1-0.2-0.2-0.4-0.2-0.7v-0.8c0-0.2,0-0.5,0.2-0.7c0.1-0.1,0.3-0.2,0.5-0.2c0.1,0,0.3,0,0.4,0.1c0.1,0.1,0.2,0.2,0.2,0.4
	c0,0.2,0.1,0.3,0.2,0.4c0.2,0.2,0.4,0.3,0.6,0.3c0.3,0.1,0.6,0.2,0.8,0.2c0.4,0,0.9-0.1,1.2-0.4c0.2-0.1,0.3-0.4,0.3-0.7
	c0-0.2-0.1-0.4-0.2-0.6c-0.3-0.2-0.6-0.3-0.9-0.3l-1-0.2c-0.6-0.1-1.1-0.3-1.6-0.8c-0.3-0.4-0.5-0.8-0.5-1.3c0-0.5,0.2-1,0.5-1.4
	c0.4-0.4,0.9-0.7,1.4-0.8v-0.4c0-0.2,0-0.5,0.2-0.7c0.1-0.1,0.3-0.2,0.5-0.2c0.2,0,0.4,0.1,0.5,0.2c0.1,0.2,0.2,0.4,0.2,0.7
	L673.6,82.6z M681.2,87.4c0.1,0.1,0.2,0.3,0.3,0.5c0.1,0.3,0.1,0.5,0.1,0.8v2.1c0,0.1,0,0.3,0.1,0.4c0.1,0.1,0.2,0.1,0.4,0.1
	c0.2,0,0.3,0.1,0.5,0.2c0.2,0.3,0.2,0.7,0,0.9c-0.1,0.1-0.3,0.2-0.5,0.2c-0.3,0-0.6-0.1-0.8-0.2c-0.3-0.2-0.5-0.4-0.7-0.8
	c-0.1-0.2-0.2-0.5-0.2-0.8v-2.3c0-0.1,0-0.3-0.1-0.4c-0.1-0.1-0.2-0.1-0.4-0.1c-0.2,0-0.3-0.1-0.5-0.2c-0.1-0.1-0.2-0.3-0.2-0.5
	c0-0.2,0-0.3,0.2-0.5c0.1-0.1,0.3-0.2,0.5-0.2c0.1,0,0.3-0.1,0.4-0.1c0.1-0.1,0.1-0.3,0.1-0.4v-2.2c0-0.5,0.2-0.9,0.5-1.2
	c0.3-0.3,0.7-0.5,1.2-0.5c0.2,0,0.4,0.1,0.5,0.2c0.1,0.1,0.2,0.3,0.2,0.5c0,0.2-0.1,0.3-0.2,0.4c-0.1,0.1-0.3,0.2-0.5,0.2
	c-0.1,0-0.2,0-0.3,0.1c-0.1,0.1-0.1,0.3-0.1,0.4v2.1c0,0.2,0,0.5-0.1,0.7C681.4,87,681.3,87.2,681.2,87.4z M690.3,86.2
	c-0.2-0.1-0.4-0.2-0.7-0.3c-0.2-0.1-0.5-0.1-0.7-0.1c-0.4,0-0.8,0.1-1.2,0.2c-0.1,0.1-0.2,0.2-0.2,0.2s0.1,0.2,0.3,0.3
	c0.3,0.1,0.6,0.2,0.9,0.2c0.6,0.1,1.2,0.2,1.8,0.4c0.4,0.1,0.7,0.4,1,0.7c0.2,0.3,0.4,0.6,0.4,1c0,0.5-0.2,0.9-0.6,1.2
	c-0.7,0.5-1.5,0.7-2.3,0.7c-0.4,0-0.7,0-1.1-0.1c-0.3-0.1-0.6-0.2-0.9-0.3c-0.1,0.1-0.1,0.1-0.2,0.1c-0.1,0-0.1,0-0.2,0
	c-0.2,0-0.4-0.1-0.5-0.2c-0.1-0.2-0.2-0.4-0.2-0.7v-0.4c0-0.2,0-0.5,0.2-0.7c0.1-0.1,0.3-0.2,0.5-0.2c0.1,0,0.3,0,0.4,0.1
	c0.1,0.1,0.2,0.3,0.3,0.4c0.2,0.2,0.5,0.3,0.7,0.4c0.3,0.1,0.7,0.1,1,0.1c0.5,0,1-0.1,1.4-0.3c0.2-0.1,0.2-0.2,0.2-0.3
	s-0.1-0.3-0.4-0.4c-0.5-0.2-0.9-0.2-1.4-0.3c-0.8,0-1.5-0.2-2.1-0.7c-0.6-0.5-0.7-1.5-0.2-2.1c0.1-0.1,0.1-0.2,0.2-0.2
	c0.6-0.4,1.4-0.7,2.2-0.6c0.3,0,0.6,0,0.9,0.1c0.3,0,0.6,0.1,0.8,0.2c0.1-0.1,0.1-0.1,0.2-0.1c0.2-0.1,0.5,0,0.6,0.2
	c0.1,0.2,0.2,0.4,0.2,0.7v0.3c0,0.2,0,0.4-0.1,0.6c-0.1,0.2-0.4,0.3-0.6,0.3c-0.2,0-0.3,0-0.4-0.1C690.4,86.5,690.4,86.4,690.3,86.2
	z M697.3,82.1v1.4h-1.6v-1.4H697.3z M697.5,84.7v4.6h1.6c0.2,0,0.5,0,0.7,0.2c0.1,0.1,0.2,0.3,0.2,0.5c0,0.2-0.1,0.3-0.2,0.5
	c-0.2,0.1-0.4,0.2-0.7,0.2h-4.5c-0.2,0-0.5,0-0.7-0.2c-0.1-0.1-0.2-0.3-0.2-0.5c0-0.2,0.1-0.4,0.2-0.5c0.2-0.1,0.4-0.2,0.7-0.2h1.6
	V86h-1.1c-0.2,0-0.5-0.1-0.7-0.2c-0.1-0.1-0.2-0.3-0.2-0.5c0-0.2,0.1-0.4,0.2-0.5c0.2-0.1,0.4-0.2,0.7-0.2L697.5,84.7z M704.1,89.3
	h2.3c0-0.2,0.1-0.4,0.2-0.6c0.1-0.1,0.3-0.2,0.5-0.2c0.2,0,0.4,0.1,0.5,0.2c0.1,0.2,0.2,0.4,0.2,0.7v1.2H702v-1.1l3.5-3.5h-2v0.1
	c0,0.2,0,0.5-0.2,0.7c-0.3,0.3-0.7,0.3-1,0c0,0,0,0,0,0c-0.1-0.2-0.2-0.4-0.2-0.7v-1.5h5.5v1.1L704.1,89.3z M716.2,88.3h-5.5
	c0.1,0.4,0.4,0.7,0.7,0.8c0.4,0.2,0.9,0.3,1.4,0.3c0.7,0,1.3-0.1,2-0.3c0.2-0.1,0.5-0.1,0.7-0.1c0.2,0,0.3,0.1,0.5,0.2
	c0.1,0.1,0.2,0.3,0.2,0.5c0,0.2-0.1,0.3-0.2,0.4c-0.4,0.3-0.8,0.4-1.3,0.5c-0.6,0.1-1.3,0.2-1.9,0.2c-0.9,0-1.9-0.3-2.6-0.9
	c-0.6-0.6-1-1.4-1-2.2c0-0.9,0.3-1.7,1-2.3c0.7-0.6,1.5-0.9,2.4-0.9c0.5,0,1,0.1,1.5,0.3c0.4,0.1,0.7,0.3,1,0.6
	c0.3,0.4,0.6,0.8,0.8,1.2c0.1,0.4,0.2,0.8,0.2,1.1L716.2,88.3z M714.7,86.9c-0.2-0.4-0.5-0.7-0.8-0.9c-0.4-0.2-0.8-0.3-1.2-0.3
	c-0.4,0-0.8,0.1-1.2,0.3c-0.3,0.2-0.6,0.5-0.8,0.9H714.7z M720.5,87.3c-0.1-0.2-0.3-0.3-0.3-0.5c-0.1-0.2-0.1-0.5-0.1-0.7V84
	c0-0.1,0-0.3-0.1-0.4c-0.1-0.1-0.2-0.1-0.4-0.1c-0.2,0-0.3-0.1-0.5-0.2c-0.2-0.3-0.2-0.7,0-0.9c0.1-0.1,0.3-0.2,0.5-0.2
	c0.3,0,0.6,0.1,0.8,0.2c0.3,0.2,0.5,0.4,0.7,0.8c0.1,0.2,0.2,0.5,0.2,0.8v2.2c0,0.1,0,0.3,0.1,0.4c0.1,0.1,0.2,0.1,0.4,0.2
	c0.2,0,0.3,0.1,0.5,0.2c0.1,0.1,0.2,0.3,0.2,0.5c0,0.3-0.2,0.6-0.6,0.7c0,0,0,0-0.1,0c-0.2,0-0.3,0-0.4,0.1
	c-0.1,0.1-0.1,0.3-0.1,0.4v2.3c0,0.5-0.2,0.9-0.5,1.2c-0.3,0.3-0.7,0.5-1.2,0.5c-0.2,0-0.4-0.1-0.5-0.2c-0.1-0.1-0.2-0.3-0.2-0.5
	c0-0.2,0.1-0.3,0.2-0.5c0.1-0.1,0.3-0.2,0.5-0.2c0.1,0,0.2,0,0.3-0.1c0.1-0.1,0.1-0.3,0.1-0.4v-2.1c0-0.3,0-0.6,0.1-0.8
	C720.3,87.7,720.4,87.5,720.5,87.3L720.5,87.3z"/>
<path class="st6" d="M727.3,81.8l4.3,9.2c0,0.1,0,0.2,0.1,0.3c0,0.1,0,0.1,0,0.2c0,0.2-0.1,0.3-0.2,0.4c-0.1,0.1-0.3,0.2-0.5,0.2
	c-0.1,0-0.3,0-0.4-0.1c-0.1-0.1-0.2-0.3-0.3-0.5l-4.3-9.2c-0.1-0.2-0.1-0.3-0.2-0.5c0-0.2,0.1-0.3,0.2-0.4c0.1-0.1,0.3-0.2,0.5-0.2
	c0.1,0,0.3,0,0.4,0.1C727.2,81.5,727.3,81.6,727.3,81.8z M739.8,85.7v1.4c0,0.9-0.3,1.7-0.8,2.5c-0.4,0.8-1.3,1.2-2.1,1.2
	c-0.5,0-1-0.1-1.4-0.3c-0.4-0.4-0.8-0.8-1-1.3c-0.3-0.6-0.5-1.3-0.5-2v-1.5c0-0.9,0.3-1.7,0.8-2.5c0.4-0.8,1.3-1.2,2.1-1.2
	c0.5,0,1,0.1,1.4,0.4c0.5,0.3,0.8,0.8,1.1,1.3C739.6,84.2,739.8,84.9,739.8,85.7L739.8,85.7z M738.5,85.7c0-0.7-0.2-1.4-0.6-1.9
	c-0.2-0.3-0.6-0.5-1-0.4c-0.4,0-0.8,0.2-1,0.5c-0.4,0.5-0.6,1.2-0.6,1.9v1.4c0,0.7,0.2,1.4,0.6,1.9c0.2,0.3,0.6,0.5,1,0.4
	c0.4,0,0.8-0.2,1-0.5c0.4-0.5,0.6-1.2,0.5-1.8L738.5,85.7z"/>
<path class="st4" d="M629.2,115.8h109.3v39H629.2V115.8z"/>
<path d="M648.5,132.1c0.3,0,0.6,0.1,0.9,0.3c0.1,0,0.1-0.1,0.2-0.1c0.1,0,0.1,0,0.2,0c0.2,0,0.4,0.1,0.5,0.2
	c0.1,0.2,0.2,0.4,0.2,0.7v0.4c0,0.2,0,0.5-0.2,0.7c-0.1,0.1-0.3,0.2-0.5,0.2c-0.2,0-0.3-0.1-0.5-0.2c-0.1-0.1-0.2-0.3-0.2-0.5
	c-0.3-0.3-0.7-0.4-1.2-0.4c-0.4,0-0.8,0.1-1.1,0.3c-0.2,0.1-0.3,0.3-0.3,0.6c0,0.2,0.1,0.3,0.2,0.4c0.3,0.2,0.6,0.3,0.9,0.3l0.9,0.2
	c0.6,0.1,1.1,0.3,1.6,0.7c0.4,0.4,0.7,1,0.6,1.5c0,0.5-0.2,1.1-0.6,1.5c-0.4,0.5-1,0.8-1.7,0.9v1.1c0,0.2,0,0.5-0.2,0.7
	c-0.1,0.1-0.3,0.2-0.5,0.2c-0.2,0-0.4-0.1-0.5-0.2c-0.1-0.2-0.2-0.4-0.2-0.7v-1.1c-0.3-0.1-0.7-0.2-1-0.4c-0.1,0.1-0.3,0.2-0.5,0.2
	c-0.2,0-0.4-0.1-0.5-0.2c-0.1-0.2-0.2-0.4-0.2-0.7v-0.8c0-0.2,0-0.5,0.2-0.7c0.1-0.1,0.3-0.2,0.5-0.2c0.1,0,0.3,0,0.4,0.1
	c0.1,0.1,0.2,0.2,0.2,0.4c0,0.2,0.1,0.3,0.2,0.4c0.2,0.2,0.4,0.3,0.6,0.4c0.3,0.1,0.6,0.1,0.8,0.1c0.4,0,0.9-0.1,1.2-0.4
	c0.2-0.2,0.3-0.4,0.3-0.7c0-0.2-0.1-0.4-0.2-0.6c-0.3-0.2-0.6-0.3-0.9-0.3l-1-0.2c-0.6-0.1-1.1-0.4-1.5-0.8
	c-0.3-0.4-0.5-0.8-0.5-1.3c0-0.5,0.2-1,0.5-1.4c0.4-0.4,0.9-0.7,1.4-0.8v-0.4c0-0.2,0-0.5,0.2-0.7c0.1-0.1,0.3-0.2,0.5-0.2
	c0.2,0,0.4,0.1,0.5,0.2c0.1,0.2,0.2,0.4,0.2,0.7L648.5,132.1z M656.1,136.9c0.1,0.2,0.2,0.3,0.3,0.5c0.1,0.3,0.1,0.5,0.1,0.8v2.1
	c0,0.1,0,0.3,0.1,0.4c0.1,0.1,0.2,0.1,0.4,0.1c0.2,0,0.3,0.1,0.4,0.2c0.1,0.1,0.2,0.3,0.2,0.5c0,0.2-0.1,0.4-0.2,0.5
	c-0.1,0.1-0.3,0.2-0.5,0.2c-0.3,0-0.6-0.1-0.8-0.2c-0.3-0.2-0.5-0.4-0.7-0.8c-0.1-0.2-0.2-0.5-0.2-0.8v-2.4c0-0.1,0-0.3-0.1-0.4
	c-0.1-0.1-0.2-0.1-0.4-0.1c-0.2,0-0.3-0.1-0.5-0.2c-0.1-0.1-0.2-0.3-0.2-0.5c0-0.2,0.1-0.3,0.2-0.5c0.1-0.1,0.3-0.2,0.5-0.2
	c0.1,0,0.3,0,0.4-0.1c0.1-0.1,0.1-0.3,0.1-0.4v-2.2c0-0.5,0.2-0.9,0.5-1.2c0.3-0.3,0.7-0.5,1.2-0.5c0.2,0,0.4,0.1,0.5,0.2
	c0.1,0.1,0.2,0.3,0.2,0.5c0,0.2,0,0.3-0.1,0.5c-0.1,0.1-0.3,0.2-0.5,0.2c-0.2,0-0.3,0-0.3,0.1c-0.1,0.1-0.1,0.3-0.1,0.4v2.1
	c0,0.2,0,0.5-0.1,0.7C656.3,136.5,656.2,136.7,656.1,136.9z M665.9,134.4c0.1-0.1,0.3-0.2,0.5-0.2c0.2,0,0.4,0.1,0.5,0.2
	c0.1,0.2,0.2,0.4,0.2,0.7v0.9c0,0.2,0,0.5-0.2,0.7c-0.1,0.1-0.3,0.2-0.5,0.2c-0.2,0-0.3-0.1-0.5-0.2c-0.1-0.1-0.2-0.3-0.2-0.5
	c0-0.2-0.2-0.4-0.4-0.5c-0.4-0.2-0.9-0.3-1.3-0.3c-0.6,0-1.1,0.2-1.5,0.6c-0.4,0.4-0.6,0.9-0.6,1.4c0,0.5,0.2,0.9,0.5,1.2
	c0.5,0.4,1.2,0.5,1.8,0.5c0.5,0,0.9,0,1.4-0.2c0.2-0.1,0.4-0.2,0.6-0.4c0.1-0.1,0.3-0.2,0.5-0.2c0.2,0,0.4,0.1,0.5,0.2
	c0.1,0.1,0.2,0.3,0.2,0.5c0,0.4-0.3,0.7-0.6,0.8c-0.8,0.4-1.7,0.6-2.6,0.6c-0.9,0-1.7-0.2-2.4-0.6c-0.8-0.5-1.2-1.4-1.2-2.4
	c0-0.9,0.3-1.7,1-2.3c0.7-0.6,1.6-1,2.5-0.9c0.3,0,0.7,0,1,0.1C665.3,134.2,665.6,134.3,665.9,134.4z M675.3,137.3
	c0,0.5-0.2,1-0.4,1.5c-0.3,0.5-0.7,0.9-1.3,1.1c-1.1,0.6-2.4,0.6-3.5,0c-0.5-0.2-1-0.6-1.3-1.1c-0.3-0.5-0.4-1-0.4-1.5
	c0-0.6,0.2-1.1,0.4-1.6c0.3-0.5,0.7-0.9,1.3-1.2c0.5-0.3,1.1-0.4,1.8-0.4c0.6,0,1.2,0.2,1.8,0.4c0.5,0.3,1,0.7,1.3,1.2
	C675.1,136.2,675.3,136.7,675.3,137.3z M673.9,137.3c0-0.4-0.2-0.8-0.5-1.2c-0.8-0.9-2.2-1-3.2-0.2c0,0,0,0,0,0
	c-0.4,0.3-0.6,0.8-0.6,1.3c0,0.5,0.2,0.9,0.6,1.2c0.4,0.4,1,0.5,1.5,0.5c0.5,0,1.1-0.2,1.5-0.5C673.7,138.2,673.9,137.7,673.9,137.3
	z M678.5,134.2v0.4c0.2-0.2,0.5-0.4,0.8-0.5c0.3-0.1,0.7-0.2,1-0.2c0.7,0,1.4,0.2,1.9,0.7c0.4,0.4,0.6,1,0.5,1.5v2.5
	c0.2,0,0.4,0.1,0.6,0.2c0.3,0.3,0.3,0.7,0,1c0,0,0,0,0,0c-0.2,0.1-0.4,0.2-0.7,0.2h-1.2c-0.2,0-0.5,0-0.7-0.2c-0.3-0.3-0.3-0.7,0-1
	c0,0,0,0,0,0c0.2-0.1,0.4-0.2,0.6-0.2v-2.5c0-0.2-0.1-0.5-0.2-0.6c-0.3-0.2-0.6-0.3-0.9-0.3c-0.3,0-0.6,0.1-0.8,0.2
	c-0.3,0.2-0.6,0.5-0.9,0.8v2.5c0.2,0,0.4,0,0.7,0.1c0.3,0.2,0.4,0.6,0.2,0.9c0,0-0.1,0.1-0.1,0.1c-0.2,0.1-0.4,0.2-0.7,0.2h-1.5
	c-0.2,0-0.5,0-0.7-0.2c-0.3-0.2-0.3-0.7,0-0.9c0,0,0.1-0.1,0.1-0.1c0.2-0.1,0.4-0.1,0.7-0.1v-3.2c-0.2,0-0.4-0.1-0.6-0.2
	c-0.1-0.1-0.2-0.3-0.2-0.5c0-0.2,0.1-0.3,0.2-0.5c0.2-0.1,0.4-0.2,0.7-0.2L678.5,134.2z M687.5,135.5v2.7c0,0.2,0,0.4,0.2,0.6
	c0.3,0.2,0.7,0.2,1,0.2c0.7,0,1.3-0.1,1.9-0.4c0.2-0.1,0.3-0.1,0.5-0.1c0.2,0,0.3,0.1,0.4,0.2c0.3,0.2,0.3,0.6,0.1,0.8
	c0,0,0,0-0.1,0.1c-0.4,0.3-0.8,0.5-1.3,0.6c-0.5,0.2-1,0.2-1.6,0.2c-0.7,0.1-1.3-0.1-1.9-0.5c-0.4-0.3-0.6-0.8-0.6-1.3v-2.9h-0.5
	c-0.2,0-0.5,0-0.7-0.2c-0.1-0.1-0.2-0.3-0.2-0.5c0-0.2,0.1-0.3,0.2-0.5c0.2-0.1,0.4-0.2,0.7-0.2h0.5V133c0-0.2,0-0.5,0.2-0.7
	c0.1-0.1,0.3-0.2,0.5-0.2c0.2,0,0.4,0.1,0.5,0.2c0.1,0.2,0.2,0.4,0.2,0.7v1.2h2.5c0.2,0,0.5,0,0.7,0.2c0.1,0.1,0.2,0.3,0.2,0.5
	c0,0.2-0.1,0.4-0.2,0.5c-0.2,0.1-0.4,0.2-0.7,0.2L687.5,135.5z M699.1,137.8h-5.5c0.1,0.4,0.4,0.7,0.7,0.9c0.4,0.2,0.9,0.3,1.4,0.3
	c0.7,0,1.3-0.1,2-0.3c0.2-0.1,0.5-0.1,0.7-0.1c0.2,0,0.3,0.1,0.5,0.2c0.1,0.1,0.2,0.3,0.2,0.5c0,0.2-0.1,0.3-0.2,0.4
	c-0.4,0.2-0.8,0.4-1.3,0.5c-0.6,0.1-1.3,0.2-1.9,0.2c-0.9,0-1.9-0.3-2.6-0.9c-0.6-0.6-1-1.4-1-2.2c0-0.9,0.3-1.7,1-2.3
	c0.7-0.6,1.5-0.9,2.4-0.9c0.5,0,1,0.1,1.5,0.3c0.4,0.1,0.7,0.3,1,0.6c0.3,0.3,0.6,0.8,0.8,1.2c0.1,0.4,0.2,0.8,0.2,1.1L699.1,137.8z
	 M697.7,136.5c-0.2-0.4-0.5-0.7-0.8-0.9c-0.4-0.2-0.8-0.3-1.2-0.3c-0.4,0-0.8,0.1-1.2,0.3c-0.3,0.2-0.6,0.5-0.8,0.9H697.7z
	 M702.5,134.2v0.4c0.2-0.2,0.5-0.4,0.8-0.5c0.3-0.1,0.7-0.2,1-0.1c0.7,0,1.4,0.2,1.9,0.7c0.4,0.4,0.6,1,0.5,1.5v2.5
	c0.2,0,0.4,0,0.6,0.2c0.3,0.2,0.3,0.6,0.1,0.9c0,0-0.1,0.1-0.1,0.1c-0.2,0.1-0.4,0.2-0.7,0.2h-1.2c-0.2,0-0.5,0-0.7-0.2
	c-0.1-0.1-0.2-0.3-0.2-0.5c0-0.2,0.1-0.3,0.2-0.5c0.2-0.1,0.4-0.2,0.6-0.2v-2.5c0-0.2-0.1-0.5-0.2-0.6c-0.3-0.2-0.6-0.3-0.9-0.3
	c-0.3,0-0.6,0.1-0.8,0.2c-0.3,0.2-0.6,0.5-0.9,0.8v2.4c0.2,0,0.4,0,0.7,0.1c0.2,0.1,0.3,0.3,0.3,0.6c0,0.2-0.1,0.4-0.2,0.5
	c-0.2,0.1-0.4,0.2-0.7,0.2h-1.5c-0.2,0-0.5,0-0.7-0.2c-0.1-0.1-0.2-0.3-0.2-0.5c0-0.2,0.1-0.4,0.3-0.6c0.2-0.1,0.4-0.1,0.7-0.1v-3.2
	c-0.2,0-0.4-0.1-0.6-0.2c-0.1-0.1-0.2-0.3-0.2-0.5c0-0.2,0.1-0.3,0.2-0.5c0.2-0.1,0.4-0.2,0.7-0.2L702.5,134.2z M711.5,135.5v2.7
	c0,0.2,0,0.4,0.2,0.6c0.3,0.2,0.7,0.2,1,0.2c0.6,0,1.3-0.1,1.9-0.4c0.2-0.1,0.3-0.1,0.5-0.1c0.2,0,0.3,0.1,0.4,0.2
	c0.3,0.2,0.3,0.6,0,0.9c0,0,0,0,0,0c-0.4,0.3-0.8,0.5-1.3,0.6c-0.5,0.2-1,0.2-1.6,0.2c-0.7,0.1-1.3-0.1-1.9-0.5
	c-0.4-0.3-0.6-0.8-0.6-1.3v-2.9h-0.5c-0.2,0-0.5,0-0.7-0.2c-0.1-0.1-0.2-0.3-0.2-0.5c0-0.2,0.1-0.3,0.2-0.5c0.2-0.1,0.4-0.2,0.7-0.2
	h0.5V133c0-0.2,0-0.5,0.2-0.7c0.1-0.1,0.3-0.2,0.5-0.2c0.2,0,0.4,0.1,0.5,0.2c0.1,0.2,0.2,0.4,0.2,0.7v1.2h2.5c0.2,0,0.5,0,0.7,0.2
	c0.1,0.1,0.2,0.3,0.2,0.5c0,0.2-0.1,0.3-0.2,0.5c-0.2,0.1-0.4,0.2-0.7,0.2L711.5,135.5z M719.5,136.9c-0.1-0.2-0.3-0.3-0.3-0.5
	c-0.1-0.2-0.1-0.5-0.1-0.7v-2.1c0-0.1,0-0.3-0.1-0.4c-0.1-0.1-0.2-0.1-0.4-0.1c-0.2,0-0.3-0.1-0.5-0.2c-0.1-0.1-0.2-0.3-0.2-0.5
	c0-0.2,0.1-0.3,0.2-0.5c0.1-0.1,0.3-0.2,0.5-0.2c0.3,0,0.6,0.1,0.8,0.2c0.3,0.2,0.5,0.4,0.7,0.8c0.1,0.2,0.2,0.5,0.2,0.8v2.2
	c-0.1,0.2,0.1,0.5,0.3,0.5c0.1,0,0.1,0,0.2,0c0.2,0,0.3,0.1,0.5,0.2c0.1,0.1,0.2,0.3,0.2,0.5c0,0.2-0.1,0.3-0.2,0.5
	c-0.1,0.1-0.3,0.2-0.5,0.2c-0.2,0-0.3,0.1-0.4,0.1c-0.1,0.1-0.1,0.3-0.1,0.4v2.4c0,0.5-0.2,0.9-0.5,1.2c-0.3,0.3-0.7,0.5-1.2,0.5
	c-0.2,0-0.4-0.1-0.5-0.2c-0.3-0.2-0.3-0.7,0-0.9c0,0,0,0,0,0c0.1-0.1,0.3-0.2,0.5-0.2c0.1,0,0.2,0,0.4-0.1c0.1-0.1,0.1-0.3,0.1-0.4
	v-2.1c0-0.3,0-0.5,0.1-0.8C719.2,137.2,719.3,137,719.5,136.9L719.5,136.9z"/>
</svg>
