<svg id="Layer_1" data-name="Layer 1" xmlns="http://www.w3.org/2000/svg" viewBox="0 0 808.15 262.87"><defs><style>.cls-1{fill:#ffe599;}.cls-1,.cls-3{fill-rule:evenodd;}.cls-2{fill:none;stroke:#595959;stroke-linejoin:round;}.cls-3{fill-opacity:0;}.cls-4{fill:#242729;}.cls-5{fill:#202122;}</style></defs><path d="M49.25,122.34a1.88,1.88,0,0,1,.53,1.39v20.35q0,5.23-2.69,7.89c-1.8,1.78-4.45,2.67-8,2.67a16.52,16.52,0,0,1-8.55-2c-1.15-.64-1.72-1.37-1.72-2.2a1.68,1.68,0,0,1,.36-1.11,1.15,1.15,0,0,1,.93-.43,4.6,4.6,0,0,1,1.73.67,21.46,21.46,0,0,0,3.31,1.39,12.49,12.49,0,0,0,3.89.53,6.81,6.81,0,0,0,5.14-1.8,7.3,7.3,0,0,0,1.73-5.25v-4.13a7.39,7.39,0,0,1-3.1,3.45,9.69,9.69,0,0,1-4.92,1.2,10.32,10.32,0,0,1-5.45-1.44,9.68,9.68,0,0,1-3.69-4.08,14.63,14.63,0,0,1,0-12.19,9.68,9.68,0,0,1,3.69-4.08,10.32,10.32,0,0,1,5.45-1.44,9.51,9.51,0,0,1,4.85,1.2,7.76,7.76,0,0,1,3.12,3.41v-2.59a1.94,1.94,0,0,1,.5-1.39,1.85,1.85,0,0,1,1.42-.53A1.94,1.94,0,0,1,49.25,122.34ZM44,139.5a10.84,10.84,0,0,0,0-12.29,6.56,6.56,0,0,0-5.3-2.23,6.73,6.73,0,0,0-5.36,2.23,9,9,0,0,0-1.94,6.12,9.13,9.13,0,0,0,1.94,6.17,6.76,6.76,0,0,0,5.36,2.23A6.62,6.62,0,0,0,44,139.5Z"/><path d="M57.07,116.1a2.32,2.32,0,0,1-.72-1.78,2.27,2.27,0,0,1,.72-1.73,2.62,2.62,0,0,1,1.87-.67,2.66,2.66,0,0,1,1.88.67,2.3,2.3,0,0,1,.71,1.73,2.35,2.35,0,0,1-.71,1.78,2.7,2.7,0,0,1-1.88.67A2.66,2.66,0,0,1,57.07,116.1Zm.46,29.3A1.82,1.82,0,0,1,57,144V123.73a1.82,1.82,0,0,1,.55-1.42,2,2,0,0,1,1.41-.5,1.94,1.94,0,0,1,1.39.5,1.85,1.85,0,0,1,.53,1.42V144a1.82,1.82,0,0,1-.53,1.44,2.25,2.25,0,0,1-2.8,0Z"/><path d="M81,144.37a1.38,1.38,0,0,1-.6,1.22,2.79,2.79,0,0,1-1.8.31l-1.29-.09a8.13,8.13,0,0,1-5.67-2.31q-1.81-2-1.82-6.09v-12H66.57A1.86,1.86,0,0,1,65.3,125a1.38,1.38,0,0,1-.45-1.08,1.52,1.52,0,0,1,.45-1.15,1.78,1.78,0,0,1,1.27-.43h3.22v-5.43a1.86,1.86,0,0,1,.53-1.41,2,2,0,0,1,1.44-.51,1.92,1.92,0,0,1,1.39.51,1.86,1.86,0,0,1,.53,1.41v5.43H79a1.68,1.68,0,0,1,1.22.43,1.53,1.53,0,0,1,.46,1.15,1.39,1.39,0,0,1-.46,1.08,1.76,1.76,0,0,1-1.22.41H73.68V137.6a5.57,5.57,0,0,0,1.08,3.82A4.66,4.66,0,0,0,78,142.74l1.29.09C80.41,142.93,81,143.44,81,144.37Z"/><path d="M98.4,123.44a1.73,1.73,0,0,1-.43,1.22,2.26,2.26,0,0,1-1.49.55l-1.44.15a6.46,6.46,0,0,0-4.78,2.28,7.38,7.38,0,0,0-1.56,4.68V144a1.82,1.82,0,0,1-.53,1.44,2.25,2.25,0,0,1-2.8,0,1.83,1.83,0,0,1-.56-1.42V123.73a1.81,1.81,0,0,1,.58-1.42,2.06,2.06,0,0,1,1.39-.5,1.84,1.84,0,0,1,1.3.5,1.81,1.81,0,0,1,.53,1.37v2.69a7.3,7.3,0,0,1,2.85-3.22,9.63,9.63,0,0,1,4.25-1.29l.67,0C97.73,121.71,98.4,122.26,98.4,123.44Z"/><path d="M120.29,140.67a1.64,1.64,0,0,1,.38,1.11c0,.8-.56,1.53-1.68,2.2a14.39,14.39,0,0,1-3.65,1.52,15,15,0,0,1-3.74.5,11.42,11.42,0,0,1-8.57-3.22q-3.15-3.21-3.14-8.88a13.91,13.91,0,0,1,1.39-6.36,10.35,10.35,0,0,1,3.91-4.29,10.75,10.75,0,0,1,5.74-1.54,9.25,9.25,0,0,1,7.24,3,11.53,11.53,0,0,1,2.69,8.06,2.08,2.08,0,0,1-.38,1.39,1.59,1.59,0,0,1-1.25.44H103.78q.42,8.25,7.82,8.25a9.35,9.35,0,0,0,3.22-.5,21,21,0,0,0,2.87-1.37,4.68,4.68,0,0,1,1.68-.72A1.18,1.18,0,0,1,120.29,140.67Zm-14.24-14a8.74,8.74,0,0,0-2.18,5.42h13.58a8.31,8.31,0,0,0-1.77-5.45,6,6,0,0,0-4.71-1.9A6.54,6.54,0,0,0,106.05,126.66Z"/><path d="M133,116.5a6.09,6.09,0,0,0-1.3,4.25v1.54H137a1.7,1.7,0,0,1,1.25.43,1.59,1.59,0,0,1,.43,1.15,1.45,1.45,0,0,1-.43,1.11,1.87,1.87,0,0,1-1.25.38h-5.33V144a1.82,1.82,0,0,1-.55,1.42,2,2,0,0,1-1.37.5,2,2,0,0,1-1.42-.5,1.86,1.86,0,0,1-.55-1.42V125.36h-3.21a1.87,1.87,0,0,1-1.28-.41,1.38,1.38,0,0,1-.45-1.08,1.52,1.52,0,0,1,.45-1.15,1.79,1.79,0,0,1,1.28-.43h3.21v-.87a10,10,0,0,1,2.16-6.79,8.65,8.65,0,0,1,6.19-2.76l1.25-.1a3.12,3.12,0,0,1,1.8.25,1.27,1.27,0,0,1,.56,1.19c0,.93-.57,1.46-1.69,1.59l-1.24.1A5.51,5.51,0,0,0,133,116.5Z"/><path d="M143.61,133a43.73,43.73,0,0,1,5.09-20.5,1.9,1.9,0,0,1,1.68-1.1,1.42,1.42,0,0,1,1,.38,1.28,1.28,0,0,1,.4,1,1.92,1.92,0,0,1-.14.72,49.39,49.39,0,0,0,0,39.08,2.16,2.16,0,0,1,.14.72,1.25,1.25,0,0,1-.4,1,1.45,1.45,0,0,1-1,.36,1.9,1.9,0,0,1-1.68-1.1A43.73,43.73,0,0,1,143.61,133Z"/><path d="M177.48,142.86A12.19,12.19,0,0,1,170.3,146v3.7a1.81,1.81,0,0,1-.45,1.29,1.63,1.63,0,0,1-1.23.48,1.6,1.6,0,0,1-1.22-.48,1.77,1.77,0,0,1-.46-1.29V146a21.25,21.25,0,0,1-5.66-1.15,13.07,13.07,0,0,1-4.66-2.74,2,2,0,0,1-.77-1.63,1.88,1.88,0,0,1,.39-1.18,1.13,1.13,0,0,1,.91-.5,2.73,2.73,0,0,1,1.39.53,16.73,16.73,0,0,0,9.65,3.36,9.6,9.6,0,0,0,5.9-1.59,5.3,5.3,0,0,0,2.12-4.51,3.81,3.81,0,0,0-1.08-2.81,7.38,7.38,0,0,0-2.74-1.68,42.84,42.84,0,0,0-4.49-1.27A45,45,0,0,1,162,129a9.72,9.72,0,0,1-3.81-2.79,7.5,7.5,0,0,1-1.59-5,8.68,8.68,0,0,1,1.3-4.68,9.68,9.68,0,0,1,3.62-3.38,13.39,13.39,0,0,1,5.35-1.58v-3.7a1.76,1.76,0,0,1,.48-1.27,1.58,1.58,0,0,1,1.2-.51,1.63,1.63,0,0,1,1.23.48,1.84,1.84,0,0,1,.45,1.3v3.7a17.48,17.48,0,0,1,4.9,1.19,11.62,11.62,0,0,1,4,2.65A2,2,0,0,1,180,117a1.79,1.79,0,0,1-.41,1.17,1.17,1.17,0,0,1-.93.51,2.34,2.34,0,0,1-1.35-.53,16.48,16.48,0,0,0-4.1-2.54,12.07,12.07,0,0,0-4.63-.82,9.11,9.11,0,0,0-5.79,1.68,5.5,5.5,0,0,0-2.13,4.56,4.38,4.38,0,0,0,1.17,3.21,7.73,7.73,0,0,0,2.91,1.85,44.27,44.27,0,0,0,4.75,1.42,43.48,43.48,0,0,1,5.64,1.73,9.23,9.23,0,0,1,3.62,2.61,7,7,0,0,1,1.49,4.68A8.4,8.4,0,0,1,177.48,142.86Z"/><path d="M198.93,151.64a1.64,1.64,0,0,1,0,2.28,1.85,1.85,0,0,1-1.22.38H194.4a4.8,4.8,0,0,1-3.6-1.27,4.93,4.93,0,0,1-1.25-3.62v-10.9a4.58,4.58,0,0,0-.74-2.88,3.49,3.49,0,0,0-2.62-1,1.83,1.83,0,0,1-1.25-.48,1.62,1.62,0,0,1,0-2.2,1.83,1.83,0,0,1,1.25-.48,3.56,3.56,0,0,0,2.62-1,4.44,4.44,0,0,0,.74-2.85v-10.9a4.9,4.9,0,0,1,1.25-3.62,4.81,4.81,0,0,1,3.6-1.28h3.31a1.81,1.81,0,0,1,1.22.39,1.4,1.4,0,0,1,.46,1.15,1.42,1.42,0,0,1-.46,1.13,1.76,1.76,0,0,1-1.22.41h-2.26c-1.37,0-2.06.72-2.06,2.16V128a5.37,5.37,0,0,1-1,3.41,4.4,4.4,0,0,1-2.47,1.63,4.4,4.4,0,0,1,2.47,1.63,5.37,5.37,0,0,1,1,3.41v11c0,1.44.69,2.16,2.06,2.16h2.26A1.76,1.76,0,0,1,198.93,151.64Z"/><path d="M206.52,144.51a9.94,9.94,0,0,1-3.89-4.22,14.05,14.05,0,0,1-1.37-6.34,13.78,13.78,0,0,1,1.42-6.38,10.36,10.36,0,0,1,4-4.32,11,11,0,0,1,5.85-1.54,13.64,13.64,0,0,1,3.63.5,10.11,10.11,0,0,1,3.14,1.47,4.16,4.16,0,0,1,1.23,1.13,2.18,2.18,0,0,1,.36,1.22,1.68,1.68,0,0,1-.36,1.11,1.2,1.2,0,0,1-.94.43,1.76,1.76,0,0,1-.72-.19,4.64,4.64,0,0,1-.65-.39,2.13,2.13,0,0,0-.36-.24,15.65,15.65,0,0,0-2.37-1.29,7.1,7.1,0,0,0-2.76-.48,6.64,6.64,0,0,0-5.45,2.37,10.14,10.14,0,0,0-2,6.6,9.83,9.83,0,0,0,2,6.53,6.71,6.71,0,0,0,5.45,2.3,7.39,7.39,0,0,0,2.8-.48,13,13,0,0,0,2.38-1.29,9.87,9.87,0,0,1,1-.58,1.9,1.9,0,0,1,.81-.24,1.13,1.13,0,0,1,.89.43,1.68,1.68,0,0,1,.36,1.11,2,2,0,0,1-.33,1.13,4.77,4.77,0,0,1-1.25,1.12,11.53,11.53,0,0,1-3.24,1.47,13.94,13.94,0,0,1-3.82.55A11.15,11.15,0,0,1,206.52,144.51Z"/><path d="M229.51,144.51a9.9,9.9,0,0,1-3.89-4.25,15.66,15.66,0,0,1,0-12.81,9.9,9.9,0,0,1,3.89-4.25,11.26,11.26,0,0,1,5.83-1.49,11.42,11.42,0,0,1,5.86,1.49,9.88,9.88,0,0,1,3.91,4.25,15.66,15.66,0,0,1,0,12.81,9.88,9.88,0,0,1-3.91,4.25,11.42,11.42,0,0,1-5.86,1.49A11.26,11.26,0,0,1,229.51,144.51Zm11.14-4q1.84-2.28,1.84-6.64a10.32,10.32,0,0,0-1.87-6.61,7.17,7.17,0,0,0-10.56,0,10.32,10.32,0,0,0-1.87,6.61c0,2.88.61,5.08,1.85,6.62a7.29,7.29,0,0,0,10.61,0Z"/><path d="M272.44,131v13a1.74,1.74,0,0,1-1.92,1.92,2,2,0,0,1-1.44-.5,1.88,1.88,0,0,1-.52-1.42V131.21a7.25,7.25,0,0,0-1.28-4.75,5,5,0,0,0-4-1.48,6.85,6.85,0,0,0-5.14,2,7.32,7.32,0,0,0-1.92,5.33V144a2,2,0,0,1-.5,1.42,1.91,1.91,0,0,1-1.42.5,2,2,0,0,1-1.44-.5,1.89,1.89,0,0,1-.53-1.42V123.73a1.88,1.88,0,0,1,.53-1.39,1.91,1.91,0,0,1,1.44-.53,1.78,1.78,0,0,1,1.37.53,1.84,1.84,0,0,1,.5,1.34v2.45a7.86,7.86,0,0,1,3.22-3.29,9.67,9.67,0,0,1,4.7-1.13Q272.44,121.71,272.44,131Z"/><path d="M292,144.37a1.38,1.38,0,0,1-.6,1.22,2.79,2.79,0,0,1-1.8.31l-1.3-.09q-3.84-.28-5.66-2.31t-1.83-6.09v-12h-3.21a1.83,1.83,0,0,1-1.27-.41,1.36,1.36,0,0,1-.46-1.08,1.49,1.49,0,0,1,.46-1.15,1.75,1.75,0,0,1,1.27-.43h3.21v-5.43a1.86,1.86,0,0,1,.53-1.41,2,2,0,0,1,1.44-.51,1.9,1.9,0,0,1,1.39.51,1.83,1.83,0,0,1,.53,1.41v5.43h5.33a1.68,1.68,0,0,1,1.22.43,1.49,1.49,0,0,1,.46,1.15,1.36,1.36,0,0,1-.46,1.08,1.76,1.76,0,0,1-1.22.41h-5.33V137.6a5.57,5.57,0,0,0,1.08,3.82,4.66,4.66,0,0,0,3.24,1.32l1.3.09C291.47,142.93,292,143.44,292,144.37Z"/><path d="M314.88,140.67a1.64,1.64,0,0,1,.38,1.11c0,.8-.56,1.53-1.68,2.2a14.39,14.39,0,0,1-3.65,1.52,15,15,0,0,1-3.74.5,11.42,11.42,0,0,1-8.57-3.22q-3.15-3.21-3.14-8.88a13.91,13.91,0,0,1,1.39-6.36,10.35,10.35,0,0,1,3.91-4.29,10.75,10.75,0,0,1,5.74-1.54,9.25,9.25,0,0,1,7.24,3,11.53,11.53,0,0,1,2.69,8.06,2.08,2.08,0,0,1-.38,1.39,1.59,1.59,0,0,1-1.25.44H298.36q.43,8.25,7.83,8.25a9.25,9.25,0,0,0,3.21-.5,20.51,20.51,0,0,0,2.88-1.37,4.68,4.68,0,0,1,1.68-.72A1.18,1.18,0,0,1,314.88,140.67Zm-14.24-14a8.74,8.74,0,0,0-2.18,5.42H312a8.31,8.31,0,0,0-1.77-5.45,6,6,0,0,0-4.71-1.9A6.54,6.54,0,0,0,300.64,126.66Z"/><path d="M341.32,131v13a1.74,1.74,0,0,1-1.92,1.92,2,2,0,0,1-1.44-.5,1.88,1.88,0,0,1-.52-1.42V131.21a7.25,7.25,0,0,0-1.28-4.75,5,5,0,0,0-4.05-1.48,6.85,6.85,0,0,0-5.14,2,7.32,7.32,0,0,0-1.92,5.33V144a2,2,0,0,1-.5,1.42,1.91,1.91,0,0,1-1.42.5,2,2,0,0,1-1.44-.5,1.89,1.89,0,0,1-.53-1.42V123.73a1.88,1.88,0,0,1,.53-1.39,1.91,1.91,0,0,1,1.44-.53,1.78,1.78,0,0,1,1.37.53,1.84,1.84,0,0,1,.5,1.34v2.45a7.86,7.86,0,0,1,3.22-3.29,9.67,9.67,0,0,1,4.7-1.13Q341.32,121.71,341.32,131Z"/><path d="M360.91,144.37a1.38,1.38,0,0,1-.6,1.22,2.79,2.79,0,0,1-1.8.31l-1.3-.09q-3.84-.28-5.66-2.31t-1.83-6.09v-12h-3.21a1.83,1.83,0,0,1-1.27-.41,1.36,1.36,0,0,1-.46-1.08,1.49,1.49,0,0,1,.46-1.15,1.75,1.75,0,0,1,1.27-.43h3.21v-5.43a1.86,1.86,0,0,1,.53-1.41,2,2,0,0,1,1.44-.51,1.9,1.9,0,0,1,1.39.51,1.83,1.83,0,0,1,.53,1.41v5.43h5.33a1.68,1.68,0,0,1,1.22.43,1.49,1.49,0,0,1,.46,1.15,1.36,1.36,0,0,1-.46,1.08,1.76,1.76,0,0,1-1.22.41h-5.33V137.6a5.57,5.57,0,0,0,1.08,3.82,4.66,4.66,0,0,0,3.24,1.32l1.3.09C360.35,142.93,360.91,143.44,360.91,144.37Z"/><path d="M379.44,131.94a1.62,1.62,0,0,1,0,2.2,1.85,1.85,0,0,1-1.25.48,3.43,3.43,0,0,0-2.59,1,4.55,4.55,0,0,0-.73,2.9l0,10.9a5,5,0,0,1-1.25,3.62,4.8,4.8,0,0,1-3.6,1.27h-3.31a1.88,1.88,0,0,1-1.23-.38,1.67,1.67,0,0,1,0-2.28,1.79,1.79,0,0,1,1.23-.41h2.2a1.89,1.89,0,0,0,2.12-2.16v-11a5.31,5.31,0,0,1,1-3.41,4.4,4.4,0,0,1,2.47-1.63,4.4,4.4,0,0,1-2.47-1.63,5.31,5.31,0,0,1-1-3.41V117.06a1.89,1.89,0,0,0-2.12-2.16h-2.2a1.79,1.79,0,0,1-1.23-.41,1.45,1.45,0,0,1-.45-1.13,1.42,1.42,0,0,1,.45-1.15,1.83,1.83,0,0,1,1.23-.39H370a4.81,4.81,0,0,1,3.6,1.28,4.94,4.94,0,0,1,1.25,3.62v10.9a4.38,4.38,0,0,0,.74,2.85,3.56,3.56,0,0,0,2.62,1A1.85,1.85,0,0,1,379.44,131.94Z"/><path d="M385.19,154.64a1.43,1.43,0,0,1-1-.36,1.2,1.2,0,0,1-.41-.94,3.43,3.43,0,0,1,.19-.76,49.84,49.84,0,0,0,0-39.08,3.47,3.47,0,0,1-.19-.77,1.19,1.19,0,0,1,.41-.93,1.43,1.43,0,0,1,1-.36,1.91,1.91,0,0,1,1.73,1.1,44.21,44.21,0,0,1,0,41A1.91,1.91,0,0,1,385.19,154.64Z"/><path d="M412.7,128.26a1.55,1.55,0,0,1-.43-1.12,1.35,1.35,0,0,1,.45-1,1.53,1.53,0,0,1,1.08-.43h20.35a1.48,1.48,0,0,1,1.11.45,1.58,1.58,0,0,1,.43,1.13,1.34,1.34,0,0,1-.46,1,1.49,1.49,0,0,1-1.08.43H413.8A1.43,1.43,0,0,1,412.7,128.26Zm0,9.6a1.55,1.55,0,0,1-.43-1.12,1.35,1.35,0,0,1,.45-1,1.53,1.53,0,0,1,1.08-.43h20.35a1.48,1.48,0,0,1,1.11.45,1.58,1.58,0,0,1,.43,1.13,1.34,1.34,0,0,1-.46,1,1.49,1.49,0,0,1-1.08.43H413.8A1.43,1.43,0,0,1,412.7,137.86Z"/><path d="M457.75,145.47a12.68,12.68,0,0,1-3.53-1.49A4.56,4.56,0,0,1,453,142.9a2,2,0,0,1-.36-1.22,1.49,1.49,0,0,1,.36-1,1.21,1.21,0,0,1,.94-.41,3.61,3.61,0,0,1,1.68.72,15.83,15.83,0,0,0,2.86,1.37,10.72,10.72,0,0,0,3.52.5,7.53,7.53,0,0,0,4-.91,3,3,0,0,0,1.44-2.64,2.62,2.62,0,0,0-.53-1.7,4.37,4.37,0,0,0-1.83-1.16,26.43,26.43,0,0,0-3.79-1,14.27,14.27,0,0,1-6.05-2.45,5.17,5.17,0,0,1-1.82-4.17,6,6,0,0,1,1.15-3.65,7.75,7.75,0,0,1,3.19-2.5,11.4,11.4,0,0,1,4.64-.91,13.29,13.29,0,0,1,3.62.5,10.89,10.89,0,0,1,3.1,1.42,3.14,3.14,0,0,1,1.63,2.4,1.53,1.53,0,0,1-.39,1.06,1.16,1.16,0,0,1-.91.43,3.58,3.58,0,0,1-1.73-.82,15.34,15.34,0,0,0-2.54-1.34,8.05,8.05,0,0,0-3-.48,5.91,5.91,0,0,0-3.62,1,3.18,3.18,0,0,0-1.37,2.69,2.67,2.67,0,0,0,.51,1.7,4,4,0,0,0,1.68,1.15,19.06,19.06,0,0,0,3.38,1,24,24,0,0,1,5.06,1.58,5.2,5.2,0,0,1,3.34,5.28,5.74,5.74,0,0,1-2.54,4.87,11.22,11.22,0,0,1-6.73,1.85A16.31,16.31,0,0,1,457.75,145.47Z"/><path d="M495.16,124q2.11,2.33,2.11,6.94v13a1.88,1.88,0,0,1-.52,1.42,1.94,1.94,0,0,1-1.4.5,2,2,0,0,1-1.44-.5,1.88,1.88,0,0,1-.52-1.42V131.07a7,7,0,0,0-1.28-4.61,5,5,0,0,0-4.05-1.48,6.85,6.85,0,0,0-5.14,2,7.32,7.32,0,0,0-1.92,5.33V144a2,2,0,0,1-.5,1.42,1.91,1.91,0,0,1-1.42.5,2,2,0,0,1-1.44-.5,1.89,1.89,0,0,1-.53-1.42V113.46a1.78,1.78,0,0,1,.56-1.35,2,2,0,0,1,1.41-.53,1.91,1.91,0,0,1,1.42.51,1.86,1.86,0,0,1,.5,1.37V126a7.72,7.72,0,0,1,3.22-3.21,9.74,9.74,0,0,1,4.7-1.11Q493,121.71,495.16,124Z"/><path d="M522.71,130.93v13a2,2,0,0,1-.5,1.4,1.81,1.81,0,0,1-1.37.52,1.89,1.89,0,0,1-1.39-.52,1.92,1.92,0,0,1-.53-1.4v-2.3a6.83,6.83,0,0,1-2.78,3.19,8.24,8.24,0,0,1-4.32,1.13,9.46,9.46,0,0,1-4.16-.91,7.49,7.49,0,0,1-3-2.55,6.29,6.29,0,0,1-1.1-3.6,5.87,5.87,0,0,1,1.34-4.1,8.13,8.13,0,0,1,4.42-2.11,43.79,43.79,0,0,1,8.54-.65h1.06V130.5a6.3,6.3,0,0,0-1.18-4.23,4.83,4.83,0,0,0-3.81-1.34,14.08,14.08,0,0,0-6.62,1.77,4.38,4.38,0,0,1-1.83.82,1.23,1.23,0,0,1-1-.43,1.59,1.59,0,0,1-.38-1.11,1.81,1.81,0,0,1,.4-1.17,5.13,5.13,0,0,1,1.32-1,16,16,0,0,1,3.82-1.51,17.27,17.27,0,0,1,4.25-.55Q522.7,121.71,522.71,130.93Zm-5.64,10a7,7,0,0,0,1.85-5v-1.39h-.86a43.12,43.12,0,0,0-6.44.36,6.27,6.27,0,0,0-3.14,1.2,3.16,3.16,0,0,0-.94,2.47,4,4,0,0,0,1.37,3.09,5,5,0,0,0,3.44,1.23A6.21,6.21,0,0,0,517.07,141Z"/><path d="M551.18,142.78a1.54,1.54,0,0,1,.48,1.2,1.65,1.65,0,0,1-.46,1.25,1.91,1.91,0,0,1-1.37.43H533.94a1.9,1.9,0,0,1-1.36-.43,1.62,1.62,0,0,1-.46-1.25,1.54,1.54,0,0,1,.48-1.2,2,2,0,0,1,1.34-.43h6V116.62L534.66,120a1.41,1.41,0,0,1-.76.24,1.5,1.5,0,0,1-1.18-.62,2.1,2.1,0,0,1-.5-1.35,1.52,1.52,0,0,1,.76-1.44l7.3-4.75a3.05,3.05,0,0,1,1.68-.53,1.82,1.82,0,0,1,1.34.53,2,2,0,0,1,.53,1.49v28.75h6A2,2,0,0,1,551.18,142.78Z"/><path d="M560,133a43.73,43.73,0,0,1,5.09-20.5,1.88,1.88,0,0,1,1.68-1.1,1.4,1.4,0,0,1,1,.38,1.28,1.28,0,0,1,.41,1,2.13,2.13,0,0,1-.14.72,49.27,49.27,0,0,0,0,39.08,2.44,2.44,0,0,1,.14.72,1.25,1.25,0,0,1-.41,1,1.43,1.43,0,0,1-1,.36,1.88,1.88,0,0,1-1.68-1.1A43.73,43.73,0,0,1,560,133Z"/><path class="cls-1" d="M573.71,90h0a21.74,21.74,0,0,1,21.74-21.74h128.3A21.75,21.75,0,0,1,745.49,90v87a21.74,21.74,0,0,1-21.74,21.74H595.45A21.74,21.74,0,0,1,573.71,177Z"/><path class="cls-2" d="M573.71,90h0a21.74,21.74,0,0,1,21.74-21.74h128.3A21.75,21.75,0,0,1,745.49,90v87a21.74,21.74,0,0,1-21.74,21.74H595.45A21.74,21.74,0,0,1,573.71,177Z"/><path class="cls-3" d="M573.32,96.11l172.15-1.32"/><path class="cls-2" d="M573.32,96.11l172.15-1.32"/><path class="cls-3" d="M571.53,72.25H747.28V101H571.53Z"/><path d="M604.63,80.34v3a4.73,4.73,0,0,1,1-.47,3.6,3.6,0,0,1,1-.15,3.14,3.14,0,0,1,2.34,1A3.1,3.1,0,0,1,610,86a2.87,2.87,0,0,1-.92,2.17,3.33,3.33,0,0,1-2.42.86,3.51,3.51,0,0,1-1-.14,4.65,4.65,0,0,1-1-.4v.32h-1.56a1.06,1.06,0,0,1-.69-.18.66.66,0,0,1-.2-.49.6.6,0,0,1,.2-.47,1.09,1.09,0,0,1,.69-.18h.24V81.66h-.24a1.06,1.06,0,0,1-.69-.18.66.66,0,0,1-.2-.49.65.65,0,0,1,.2-.47,1.06,1.06,0,0,1,.69-.18Zm4,5.65A1.83,1.83,0,0,0,608,84.6a1.94,1.94,0,0,0-1.41-.58,2,2,0,0,0-1.42.58,1.89,1.89,0,0,0-.58,1.38,1.56,1.56,0,0,0,.52,1.2,2.17,2.17,0,0,0,1.48.47,2.11,2.11,0,0,0,1.47-.47A1.5,1.5,0,0,0,608.63,86ZM615,80.34v7.11h1.6a1,1,0,0,1,.68.18.65.65,0,0,1,0,1,1,1,0,0,1-.68.18h-4.54a1,1,0,0,1-.68-.18.64.64,0,0,1-.21-.49.58.58,0,0,1,.21-.47,1,1,0,0,1,.68-.18h1.6V81.66h-1.06a1.12,1.12,0,0,1-.71-.18.66.66,0,0,1-.2-.49.65.65,0,0,1,.2-.47,1.12,1.12,0,0,1,.71-.18Zm10.8,5.59a2.8,2.8,0,0,1-.44,1.48,3,3,0,0,1-1.27,1.16,3.86,3.86,0,0,1-3.5,0,3,3,0,0,1-1.26-1.14,2.88,2.88,0,0,1-.44-1.52,3.13,3.13,0,0,1,.44-1.56,3.09,3.09,0,0,1,1.26-1.22,3.8,3.8,0,0,1,1.75-.43,3.65,3.65,0,0,1,1.75.45,2.9,2.9,0,0,1,1.27,1.2A3.17,3.17,0,0,1,625.79,85.93Zm-1.35,0a1.75,1.75,0,0,0-.45-1.17,2.24,2.24,0,0,0-3.17-.16,1.81,1.81,0,0,0-.61,1.35,1.58,1.58,0,0,0,.61,1.17,2.26,2.26,0,0,0,1.51.53,2.2,2.2,0,0,0,1.5-.53A1.59,1.59,0,0,0,624.44,85.93Zm4.19-5.59v3a4.51,4.51,0,0,1,1-.47,3.48,3.48,0,0,1,1-.15,3.18,3.18,0,0,1,2.35,1A3.14,3.14,0,0,1,634,86a2.84,2.84,0,0,1-.93,2.17,3.33,3.33,0,0,1-2.42.86,3.6,3.6,0,0,1-1-.14,4.58,4.58,0,0,1-1-.4v.32h-1.56a1,1,0,0,1-.69-.18.63.63,0,0,1-.2-.49.57.57,0,0,1,.2-.47,1.06,1.06,0,0,1,.69-.18h.23V81.66h-.23a1,1,0,0,1-.69-.18.63.63,0,0,1-.2-.49.61.61,0,0,1,.2-.47,1,1,0,0,1,.69-.18Zm4,5.65a1.84,1.84,0,0,0-.6-1.39,1.92,1.92,0,0,0-1.4-.58,2,2,0,0,0-1.42.58,1.85,1.85,0,0,0-.58,1.38,1.55,1.55,0,0,0,.51,1.2,2.2,2.2,0,0,0,1.49.47,2.14,2.14,0,0,0,1.47-.47A1.53,1.53,0,0,0,632.63,86Z"/><path class="cls-4" d="M643.81,88.21v2.45H635V88.21h.86v1.5H643v-1.5Z"/><path d="M649.17,80.76a3.47,3.47,0,0,1,.91.26.76.76,0,0,1,.18-.09l.19,0a.61.61,0,0,1,.49.22,1,1,0,0,1,.18.69v.42a1,1,0,0,1-.18.68.61.61,0,0,1-.47.21A.68.68,0,0,1,650,83a.8.8,0,0,1-.2-.52,1.85,1.85,0,0,0-1.18-.37,1.72,1.72,0,0,0-1.07.26.75.75,0,0,0-.35.58.6.6,0,0,0,.21.45,1.94,1.94,0,0,0,.87.33l.89.19a3.31,3.31,0,0,1,1.61.69,2,2,0,0,1,.63,1.53,2.21,2.21,0,0,1-.58,1.48,2.84,2.84,0,0,1-1.66.84v1.15a1,1,0,0,1-.19.67.61.61,0,0,1-.48.22.64.64,0,0,1-.49-.22,1,1,0,0,1-.18-.67V88.41a4.44,4.44,0,0,1-1-.34.86.86,0,0,1-.54.24.66.66,0,0,1-.5-.21,1,1,0,0,1-.18-.69v-.82a1,1,0,0,1,.18-.69.63.63,0,0,1,.49-.2.61.61,0,0,1,.39.12.66.66,0,0,1,.23.41,1.07,1.07,0,0,0,.22.4,1.51,1.51,0,0,0,.58.35,2.64,2.64,0,0,0,.84.14,2,2,0,0,0,1.24-.39.8.8,0,0,0,.33-.66.78.78,0,0,0-.22-.55,2.14,2.14,0,0,0-.94-.34l-1-.2a2.77,2.77,0,0,1-1.55-.77,1.91,1.91,0,0,1-.5-1.33,2,2,0,0,1,.54-1.36,2.33,2.33,0,0,1,1.42-.76V80.4a1,1,0,0,1,.18-.67.61.61,0,0,1,.49-.22.58.58,0,0,1,.48.22.94.94,0,0,1,.19.67Zm7.59,4.78a1.56,1.56,0,0,1,.32.52,2.55,2.55,0,0,1,.09.81V89a.4.4,0,0,0,.47.5.69.69,0,0,1,.45.22.65.65,0,0,1,.17.47.6.6,0,0,1-.2.47.67.67,0,0,1-.5.2,1.71,1.71,0,0,1-.83-.23,1.9,1.9,0,0,1-.7-.75,1.5,1.5,0,0,1-.19-.78V86.74a.66.66,0,0,0-.09-.39.65.65,0,0,0-.39-.14.76.76,0,0,1-.47-.2.69.69,0,0,1-.16-.47.65.65,0,0,1,.16-.47.76.76,0,0,1,.47-.2.66.66,0,0,0,.37-.13.66.66,0,0,0,.11-.4V82.1a1.66,1.66,0,0,1,.52-1.22,1.62,1.62,0,0,1,1.2-.53.64.64,0,0,1,.5.21.58.58,0,0,1,.2.46.64.64,0,0,1-.17.46.69.69,0,0,1-.45.22c-.19,0-.3,0-.35.11a.58.58,0,0,0-.12.4v2.13a2.16,2.16,0,0,1-.09.7A1.6,1.6,0,0,1,656.76,85.54Zm9.17-1.11a2.94,2.94,0,0,0-.68-.3,2.55,2.55,0,0,0-.74-.11,2.62,2.62,0,0,0-1.23.25c-.14.08-.21.16-.21.25s.09.19.27.29a3.69,3.69,0,0,0,.94.2,10.56,10.56,0,0,1,1.84.37,2.15,2.15,0,0,1,1,.72,1.57,1.57,0,0,1,.37,1,1.47,1.47,0,0,1-.62,1.19,3.73,3.73,0,0,1-2.35.7,4.57,4.57,0,0,1-1.07-.11,3.65,3.65,0,0,1-.9-.29.85.85,0,0,1-.21.14.6.6,0,0,1-.22,0,.62.62,0,0,1-.5-.2,1,1,0,0,1-.19-.69v-.45a1,1,0,0,1,.19-.69.63.63,0,0,1,.48-.2.56.56,0,0,1,.39.14.76.76,0,0,1,.27.45,2.08,2.08,0,0,0,.72.39,3.37,3.37,0,0,0,1,.13,2.9,2.9,0,0,0,1.42-.28c.17-.1.25-.19.25-.3s-.12-.32-.35-.44a6.16,6.16,0,0,0-1.42-.28,4,4,0,0,1-2.15-.65,1.5,1.5,0,0,1-.53-1.18,1.46,1.46,0,0,1,.59-1.18,3.41,3.41,0,0,1,2.16-.64,4.14,4.14,0,0,1,.87.09,3.8,3.8,0,0,1,.83.25l.23-.13a.54.54,0,0,1,.19,0,.56.56,0,0,1,.45.2,1,1,0,0,1,.19.69v.33a1.3,1.3,0,0,1-.09.59.71.71,0,0,1-1,.16A.78.78,0,0,1,665.93,84.43ZM673,80.34v1.4h-1.6v-1.4Zm.17,2.53v4.58h1.61a1,1,0,0,1,.67.18.63.63,0,0,1,0,1,1,1,0,0,1-.67.18h-4.55a1,1,0,0,1-.68-.18.64.64,0,0,1-.21-.49.58.58,0,0,1,.21-.47,1,1,0,0,1,.68-.18h1.61V84.2h-1.08a1,1,0,0,1-.68-.19.64.64,0,0,1-.21-.49.59.59,0,0,1,.21-.46,1,1,0,0,1,.68-.19Zm6.62,4.58h2.35a.87.87,0,0,1,.2-.57.64.64,0,0,1,.45-.18.6.6,0,0,1,.49.2,1,1,0,0,1,.19.69v1.18h-5.8V87.66l3.51-3.46h-2v.14a1,1,0,0,1-.19.67.69.69,0,0,1-1,0,1,1,0,0,1-.19-.67V82.87h5.53V84Zm12.06-1h-5.46a1.63,1.63,0,0,0,.73.85,2.8,2.8,0,0,0,1.44.31,8.29,8.29,0,0,0,2-.31,3.19,3.19,0,0,1,.7-.13.58.58,0,0,1,.45.19.61.61,0,0,1,.19.47.57.57,0,0,1-.2.44,3.17,3.17,0,0,1-1.28.46,8.79,8.79,0,0,1-1.93.22,3.61,3.61,0,0,1-2.57-.9,3,3,0,0,1-1-2.24,2.86,2.86,0,0,1,1-2.28,3.66,3.66,0,0,1,2.41-.87,3.72,3.72,0,0,1,1.48.28,3,3,0,0,1,1,.61,4,4,0,0,1,.78,1.2,2.83,2.83,0,0,1,.2,1.14Zm-1.46-1.33a2,2,0,0,0-.82-.85,2.25,2.25,0,0,0-1.17-.29,2.31,2.31,0,0,0-1.17.29,2,2,0,0,0-.81.85Zm5.82.38a2,2,0,0,1-.33-.52,2.44,2.44,0,0,1-.07-.68V82.21a.51.51,0,0,0-.11-.37.56.56,0,0,0-.38-.14.74.74,0,0,1-.45-.22.64.64,0,0,1-.17-.46.58.58,0,0,1,.2-.46.66.66,0,0,1,.5-.21,1.63,1.63,0,0,1,.84.24,1.79,1.79,0,0,1,.71.75,1.55,1.55,0,0,1,.18.76v2.24a.59.59,0,0,0,.1.39.6.6,0,0,0,.39.14.68.68,0,0,1,.45.2.62.62,0,0,1,.17.47.65.65,0,0,1-.17.47.71.71,0,0,1-.47.2c-.2,0-.32.06-.36.13a.62.62,0,0,0-.11.4v2.35a1.62,1.62,0,0,1-.53,1.23,1.58,1.58,0,0,1-1.19.53.71.71,0,0,1-.51-.2.67.67,0,0,1,0-.92.72.72,0,0,1,.47-.22.57.57,0,0,0,.34-.11.61.61,0,0,0,.13-.41V86.87a3.09,3.09,0,0,1,.07-.81A1.45,1.45,0,0,1,696.19,85.54Z"/><path class="cls-5" d="M703,80l4.28,9.17s0,.16.11.34a.79.79,0,0,1,0,.22.55.55,0,0,1-.18.41.65.65,0,0,1-.46.18.68.68,0,0,1-.42-.12,1.31,1.31,0,0,1-.3-.45l-4.28-9.19a1.49,1.49,0,0,1-.15-.5.62.62,0,0,1,.18-.44.69.69,0,0,1,.47-.2.57.57,0,0,1,.39.12A1.21,1.21,0,0,1,703,80Zm12.43,3.87v1.47a4.58,4.58,0,0,1-.75,2.48A2.37,2.37,0,0,1,712.5,89a2.56,2.56,0,0,1-1.37-.34,3.41,3.41,0,0,1-1-1.31,4.34,4.34,0,0,1-.5-2V83.82a4.58,4.58,0,0,1,.75-2.48,2.37,2.37,0,0,1,2.14-1.21,2.44,2.44,0,0,1,1.36.36,3.23,3.23,0,0,1,1.06,1.3A4.35,4.35,0,0,1,715.39,83.82Zm-1.33,0a3.09,3.09,0,0,0-.61-1.91,1.16,1.16,0,0,0-1-.43,1.25,1.25,0,0,0-1,.48,3,3,0,0,0-.57,1.86v1.47a2.94,2.94,0,0,0,.62,1.89,1.12,1.12,0,0,0,1,.45,1.14,1.14,0,0,0,1-.5,2.86,2.86,0,0,0,.59-1.84Z"/><path class="cls-3" d="M604.76,114H714.05v39H604.76Z"/><path d="M624.08,130.27a3.06,3.06,0,0,1,.91.27.87.87,0,0,1,.19-.1.58.58,0,0,1,.19,0,.62.62,0,0,1,.48.22,1,1,0,0,1,.19.69v.42a1,1,0,0,1-.19.69.62.62,0,0,1-.47.2.7.7,0,0,1-.47-.17.85.85,0,0,1-.2-.52,1.8,1.8,0,0,0-1.17-.37,1.83,1.83,0,0,0-1.08.26.74.74,0,0,0-.34.58.62.62,0,0,0,.2.46,2.16,2.16,0,0,0,.87.32l.89.19a3.51,3.51,0,0,1,1.61.69,2,2,0,0,1,.63,1.53,2.15,2.15,0,0,1-.58,1.48,2.87,2.87,0,0,1-1.66.85v1.14a1,1,0,0,1-.18.67.61.61,0,0,1-.49.22.58.58,0,0,1-.48-.22.94.94,0,0,1-.19-.67v-1.14a4.64,4.64,0,0,1-1-.35.86.86,0,0,1-.53.24.65.65,0,0,1-.5-.2,1,1,0,0,1-.19-.69v-.83a1,1,0,0,1,.19-.69.63.63,0,0,1,.48-.2.61.61,0,0,1,.39.12.65.65,0,0,1,.24.41.89.89,0,0,0,.22.41,1.39,1.39,0,0,0,.57.34,2.75,2.75,0,0,0,.85.14,1.93,1.93,0,0,0,1.23-.39.78.78,0,0,0,.33-.66.72.72,0,0,0-.22-.54,2.07,2.07,0,0,0-.94-.35l-1-.2a2.74,2.74,0,0,1-1.54-.77,1.84,1.84,0,0,1-.5-1.32,1.94,1.94,0,0,1,.53-1.36,2.37,2.37,0,0,1,1.42-.77v-.36a1,1,0,0,1,.19-.67.58.58,0,0,1,.48-.22.61.61,0,0,1,.49.22,1,1,0,0,1,.18.67Zm7.6,4.78a1.52,1.52,0,0,1,.31.52,2.64,2.64,0,0,1,.09.81v2.13a.53.53,0,0,0,.1.37.55.55,0,0,0,.37.13.68.68,0,0,1,.45.21.67.67,0,0,1,.18.47.59.59,0,0,1-.21.47.63.63,0,0,1-.5.21,1.58,1.58,0,0,1-.82-.24,1.73,1.73,0,0,1-.71-.75,1.61,1.61,0,0,1-.19-.78v-2.34a.62.62,0,0,0-.09-.39.6.6,0,0,0-.39-.15.73.73,0,0,1-.47-.2.81.81,0,0,1,0-.94.78.78,0,0,1,.47-.2.83.83,0,0,0,.38-.12.69.69,0,0,0,.1-.41v-2.23a1.68,1.68,0,0,1,.52-1.22,1.59,1.59,0,0,1,1.2-.53.62.62,0,0,1,.5.2.59.59,0,0,1,.21.47.63.63,0,0,1-.18.45.65.65,0,0,1-.45.22.54.54,0,0,0-.34.11.55.55,0,0,0-.13.4v2.13a2.12,2.12,0,0,1-.09.7A1.45,1.45,0,0,1,631.68,135.05Zm9.81-2.43a.69.69,0,0,1,.5-.22.61.61,0,0,1,.47.2,1,1,0,0,1,.18.67v.86a1.06,1.06,0,0,1-.18.69.66.66,0,0,1-.49.2.73.73,0,0,1-.47-.15,1.09,1.09,0,0,1-.2-.49.74.74,0,0,0-.39-.53,2.53,2.53,0,0,0-1.34-.31,2.07,2.07,0,0,0-1.52.56,1.83,1.83,0,0,0-.56,1.39,1.52,1.52,0,0,0,.54,1.23,2.82,2.82,0,0,0,1.82.46,4.7,4.7,0,0,0,1.36-.17,2.18,2.18,0,0,0,.59-.36.79.79,0,0,1,.5-.25.6.6,0,0,1,.47.2.69.69,0,0,1,.2.48c0,.3-.2.57-.59.83a4.82,4.82,0,0,1-2.64.6,4.07,4.07,0,0,1-2.42-.64,2.79,2.79,0,0,1-1.18-2.38,3.09,3.09,0,0,1,1-2.34,3.36,3.36,0,0,1,2.48-.94,4.69,4.69,0,0,1,1,.11A3.22,3.22,0,0,1,641.49,132.62Zm9.39,2.82a2.86,2.86,0,0,1-.44,1.49,3,3,0,0,1-1.27,1.15,3.78,3.78,0,0,1-3.5,0,3,3,0,0,1-1.26-1.14,2.87,2.87,0,0,1-.44-1.51,3.13,3.13,0,0,1,.44-1.56,3,3,0,0,1,1.26-1.22,3.81,3.81,0,0,1,1.75-.44,3.65,3.65,0,0,1,1.75.45,2.92,2.92,0,0,1,1.27,1.21A3.14,3.14,0,0,1,650.88,135.44Zm-1.35,0a1.79,1.79,0,0,0-.45-1.17,2.25,2.25,0,0,0-3.17-.15,1.77,1.77,0,0,0-.61,1.34,1.55,1.55,0,0,0,.61,1.17,2.21,2.21,0,0,0,1.51.53,2.15,2.15,0,0,0,1.5-.53A1.57,1.57,0,0,0,649.53,135.44Zm4.53-3.06v.45a2.56,2.56,0,0,1,.8-.46,2.67,2.67,0,0,1,.95-.16,2.46,2.46,0,0,1,1.88.73,2.17,2.17,0,0,1,.54,1.53V137a.9.9,0,0,1,.63.19.6.6,0,0,1,.2.48.63.63,0,0,1-.2.47,1.05,1.05,0,0,1-.69.19H657a1,1,0,0,1-.69-.19.62.62,0,0,1-.2-.48.61.61,0,0,1,.18-.47.92.92,0,0,1,.65-.19v-2.53a.79.79,0,0,0-.24-.63,1.42,1.42,0,0,0-.92-.26,1.73,1.73,0,0,0-.81.18,3.83,3.83,0,0,0-.88.75V137a1.58,1.58,0,0,1,.66.09.68.68,0,0,1,.11,1,1.05,1.05,0,0,1-.69.19h-1.52a1,1,0,0,1-.68-.19.63.63,0,0,1-.21-.48.66.66,0,0,1,.32-.57,1.55,1.55,0,0,1,.67-.09v-3.25a.9.9,0,0,1-.63-.19.63.63,0,0,1-.2-.48.62.62,0,0,1,.2-.47,1,1,0,0,1,.69-.19Zm9,1.33v2.67c0,.29,0,.49.17.58a1.77,1.77,0,0,0,1,.2,4,4,0,0,0,1.88-.44,1.44,1.44,0,0,1,.53-.15.62.62,0,0,1,.44.2.63.63,0,0,1,.2.47.6.6,0,0,1-.2.44,3.28,3.28,0,0,1-1.27.58,6.68,6.68,0,0,1-1.58.25,2.78,2.78,0,0,1-1.87-.54,1.69,1.69,0,0,1-.61-1.32v-2.94h-.49a1,1,0,0,1-.68-.19.6.6,0,0,1-.21-.48.59.59,0,0,1,.21-.47,1,1,0,0,1,.68-.19h.49v-1.2a1.06,1.06,0,0,1,.17-.69.64.64,0,0,1,.48-.2.66.66,0,0,1,.49.2,1.05,1.05,0,0,1,.19.69v1.2h2.46a1,1,0,0,1,.69.19.61.61,0,0,1,.2.48.59.59,0,0,1-.2.47,1,1,0,0,1-.69.19Zm11.67,2.3h-5.47a1.65,1.65,0,0,0,.73.84,2.82,2.82,0,0,0,1.44.31,8.29,8.29,0,0,0,2-.31,4.14,4.14,0,0,1,.7-.13.62.62,0,0,1,.45.19.63.63,0,0,1,.19.47.57.57,0,0,1-.2.44,3.14,3.14,0,0,1-1.28.47,9.44,9.44,0,0,1-1.93.22,3.62,3.62,0,0,1-2.57-.91,2.94,2.94,0,0,1-1-2.23,2.89,2.89,0,0,1,1-2.29,3.66,3.66,0,0,1,2.41-.87,3.8,3.8,0,0,1,1.49.28,3.19,3.19,0,0,1,1,.61,4,4,0,0,1,.78,1.2,2.9,2.9,0,0,1,.21,1.14Zm-1.47-1.33a2.07,2.07,0,0,0-.82-.86,2.25,2.25,0,0,0-1.17-.28,2.3,2.3,0,0,0-1.17.28,2.11,2.11,0,0,0-.81.86Zm4.78-2.3v.45a2.52,2.52,0,0,1,.79-.46,2.69,2.69,0,0,1,1-.16,2.43,2.43,0,0,1,1.87.73,2.13,2.13,0,0,1,.55,1.53V137a.85.85,0,0,1,.62.19.57.57,0,0,1,.21.48.61.61,0,0,1-.21.47,1,1,0,0,1-.68.19H681a1.05,1.05,0,0,1-.69-.19.66.66,0,0,1-.2-.48.58.58,0,0,1,.19-.47.89.89,0,0,1,.64-.19v-2.53a.82.82,0,0,0-.23-.63,1.45,1.45,0,0,0-.93-.26,1.73,1.73,0,0,0-.81.18,3.63,3.63,0,0,0-.87.75V137a1.5,1.5,0,0,1,.65.09.63.63,0,0,1,.31.58.6.6,0,0,1-.2.47,1,1,0,0,1-.69.19h-1.51a1.05,1.05,0,0,1-.69-.19.66.66,0,0,1-.2-.48.65.65,0,0,1,.31-.57,1.58,1.58,0,0,1,.67-.09v-3.25a.85.85,0,0,1-.62-.19.6.6,0,0,1-.21-.48.59.59,0,0,1,.21-.47,1,1,0,0,1,.68-.19Zm9,1.33v2.67a.76.76,0,0,0,.17.58,1.83,1.83,0,0,0,1,.2,4,4,0,0,0,1.87-.44,1.49,1.49,0,0,1,.53-.15.69.69,0,0,1,.64.67.57.57,0,0,1-.2.44,3.2,3.2,0,0,1-1.27.58,6.61,6.61,0,0,1-1.57.25,2.81,2.81,0,0,1-1.88-.54,1.69,1.69,0,0,1-.61-1.32v-2.94h-.48a1,1,0,0,1-.69-.19.59.59,0,0,1-.2-.48.59.59,0,0,1,.2-.47,1,1,0,0,1,.69-.19h.48v-1.2a1.13,1.13,0,0,1,.17-.69.66.66,0,0,1,.49-.2.63.63,0,0,1,.48.2,1,1,0,0,1,.19.69v1.2h2.47a1,1,0,0,1,.69.19.64.64,0,0,1,.2.48.62.62,0,0,1-.2.47,1,1,0,0,1-.69.19Zm8,1.34a1.57,1.57,0,0,1-.33-.51,2.51,2.51,0,0,1-.08-.69v-2.13a.48.48,0,0,0-.11-.37.56.56,0,0,0-.37-.14.69.69,0,0,1-.45-.22.63.63,0,0,1-.18-.45.59.59,0,0,1,.21-.47.65.65,0,0,1,.5-.2,1.61,1.61,0,0,1,.84.23,1.83,1.83,0,0,1,.7.75,1.47,1.47,0,0,1,.19.77v2.23a.55.55,0,0,0,.1.39.6.6,0,0,0,.39.14.72.72,0,0,1,.45.2.67.67,0,0,1-.47,1.14c-.2,0-.32.07-.36.13a.63.63,0,0,0-.11.41v2.34a1.66,1.66,0,0,1-.53,1.23,1.59,1.59,0,0,1-1.19.54.66.66,0,0,1-.51-.21.59.59,0,0,1-.21-.47.64.64,0,0,1,.18-.45.77.77,0,0,1,.46-.22.58.58,0,0,0,.35-.11.6.6,0,0,0,.12-.4v-2.13a3.09,3.09,0,0,1,.08-.81A1.33,1.33,0,0,1,695.1,135.05Z"/><path d="M755.51,154.64a1.43,1.43,0,0,1-1-.36,1.17,1.17,0,0,1-.41-.94,2.92,2.92,0,0,1,.19-.76,50,50,0,0,0,0-39.08,3,3,0,0,1-.19-.77,1.16,1.16,0,0,1,.41-.93,1.43,1.43,0,0,1,1-.36,1.92,1.92,0,0,1,1.73,1.1,44.21,44.21,0,0,1,0,41A1.92,1.92,0,0,1,755.51,154.64Z"/></svg>