<svg id="Layer_1" data-name="Layer 1" xmlns="http://www.w3.org/2000/svg" viewBox="0 0 808.15 262.87"><defs><style>.cls-1{font-size:48px;font-family:Nunito-Regular, Nunito;}.cls-2{letter-spacing:0.01em;}.cls-3{letter-spacing:-0.01em;}.cls-4{letter-spacing:0em;}.cls-5{letter-spacing:-0.01em;}.cls-6{letter-spacing:0.08em;}.cls-7{fill:#ffe599;}.cls-7,.cls-9{fill-rule:evenodd;}.cls-8{fill:none;stroke:#595959;stroke-linejoin:round;}.cls-9{fill-opacity:0;}.cls-10{fill:#242729;}.cls-11{fill:#202122;}</style></defs><text class="cls-1" transform="translate(25.25 145.66)">g<tspan class="cls-2" x="28.13" y="0">i</tspan><tspan x="39.65" y="0">t</tspan><tspan class="cls-3" x="55.97" y="0">r</tspan><tspan class="cls-4" x="72.43" y="0">e</tspan><tspan x="97.68" y="0">f($</tspan><tspan class="cls-5" x="157.29" y="0">{</tspan><tspan x="173.81" y="0">conten</tspan><tspan class="cls-6" x="319.58" y="0">t</tspan><tspan x="339.74" y="0">}) = sha1(</tspan></text><path class="cls-7" d="M573.71,90h0a21.74,21.74,0,0,1,21.74-21.74h128.3A21.75,21.75,0,0,1,745.49,90v87a21.74,21.74,0,0,1-21.74,21.74H595.45A21.74,21.74,0,0,1,573.71,177Z"/><path class="cls-8" d="M573.71,90h0a21.74,21.74,0,0,1,21.74-21.74h128.3A21.75,21.75,0,0,1,745.49,90v87a21.74,21.74,0,0,1-21.74,21.74H595.45A21.74,21.74,0,0,1,573.71,177Z"/><path class="cls-9" d="M573.32,96.11l172.15-1.32"/><path class="cls-8" d="M573.32,96.11l172.15-1.32"/><path class="cls-9" d="M571.53,72.25H747.28V101H571.53Z"/><path d="M604.63,80.34v3a4.73,4.73,0,0,1,1-.47,3.6,3.6,0,0,1,1-.15,3.14,3.14,0,0,1,2.34,1A3.1,3.1,0,0,1,610,86a2.87,2.87,0,0,1-.92,2.17,3.33,3.33,0,0,1-2.42.86,3.51,3.51,0,0,1-1-.14,4.65,4.65,0,0,1-1-.4v.32h-1.56a1.06,1.06,0,0,1-.69-.18.66.66,0,0,1-.2-.49.6.6,0,0,1,.2-.47,1.09,1.09,0,0,1,.69-.18h.24V81.66h-.24a1.06,1.06,0,0,1-.69-.18.66.66,0,0,1-.2-.49.65.65,0,0,1,.2-.47,1.06,1.06,0,0,1,.69-.18Zm4,5.65A1.83,1.83,0,0,0,608,84.6a1.94,1.94,0,0,0-1.41-.58,2,2,0,0,0-1.42.58,1.89,1.89,0,0,0-.58,1.38,1.56,1.56,0,0,0,.52,1.2,2.17,2.17,0,0,0,1.48.47,2.11,2.11,0,0,0,1.47-.47A1.5,1.5,0,0,0,608.63,86ZM615,80.34v7.11h1.6a1,1,0,0,1,.68.18.65.65,0,0,1,0,1,1,1,0,0,1-.68.18h-4.54a1,1,0,0,1-.68-.18.64.64,0,0,1-.21-.49.58.58,0,0,1,.21-.47,1,1,0,0,1,.68-.18h1.6V81.66h-1.06a1.12,1.12,0,0,1-.71-.18.66.66,0,0,1-.2-.49.65.65,0,0,1,.2-.47,1.12,1.12,0,0,1,.71-.18Zm10.8,5.59a2.8,2.8,0,0,1-.44,1.48,3,3,0,0,1-1.27,1.16,3.86,3.86,0,0,1-3.5,0,3,3,0,0,1-1.26-1.14,2.88,2.88,0,0,1-.44-1.52,3.13,3.13,0,0,1,.44-1.56,3.09,3.09,0,0,1,1.26-1.22,3.8,3.8,0,0,1,1.75-.43,3.65,3.65,0,0,1,1.75.45,2.9,2.9,0,0,1,1.27,1.2A3.17,3.17,0,0,1,625.79,85.93Zm-1.35,0a1.75,1.75,0,0,0-.45-1.17,2.24,2.24,0,0,0-3.17-.16,1.81,1.81,0,0,0-.61,1.35,1.58,1.58,0,0,0,.61,1.17,2.26,2.26,0,0,0,1.51.53,2.2,2.2,0,0,0,1.5-.53A1.59,1.59,0,0,0,624.44,85.93Zm4.19-5.59v3a4.51,4.51,0,0,1,1-.47,3.48,3.48,0,0,1,1-.15,3.18,3.18,0,0,1,2.35,1A3.14,3.14,0,0,1,634,86a2.84,2.84,0,0,1-.93,2.17,3.33,3.33,0,0,1-2.42.86,3.6,3.6,0,0,1-1-.14,4.58,4.58,0,0,1-1-.4v.32h-1.56a1,1,0,0,1-.69-.18.63.63,0,0,1-.2-.49.57.57,0,0,1,.2-.47,1.06,1.06,0,0,1,.69-.18h.23V81.66h-.23a1,1,0,0,1-.69-.18.63.63,0,0,1-.2-.49.61.61,0,0,1,.2-.47,1,1,0,0,1,.69-.18Zm4,5.65a1.84,1.84,0,0,0-.6-1.39,1.92,1.92,0,0,0-1.4-.58,2,2,0,0,0-1.42.58,1.85,1.85,0,0,0-.58,1.38,1.55,1.55,0,0,0,.51,1.2,2.2,2.2,0,0,0,1.49.47,2.14,2.14,0,0,0,1.47-.47A1.53,1.53,0,0,0,632.63,86Z"/><path class="cls-10" d="M643.81,88.21v2.45H635V88.21h.86v1.5H643v-1.5Z"/><path d="M649.17,80.76a3.47,3.47,0,0,1,.91.26.76.76,0,0,1,.18-.09l.19,0a.61.61,0,0,1,.49.22,1,1,0,0,1,.18.69v.42a1,1,0,0,1-.18.68.61.61,0,0,1-.47.21A.68.68,0,0,1,650,83a.8.8,0,0,1-.2-.52,1.85,1.85,0,0,0-1.18-.37,1.72,1.72,0,0,0-1.07.26.75.75,0,0,0-.35.58.6.6,0,0,0,.21.45,1.94,1.94,0,0,0,.87.33l.89.19a3.31,3.31,0,0,1,1.61.69,2,2,0,0,1,.63,1.53,2.21,2.21,0,0,1-.58,1.48,2.84,2.84,0,0,1-1.66.84v1.15a1,1,0,0,1-.19.67.61.61,0,0,1-.48.22.64.64,0,0,1-.49-.22,1,1,0,0,1-.18-.67V88.41a4.44,4.44,0,0,1-1-.34.86.86,0,0,1-.54.24.66.66,0,0,1-.5-.21,1,1,0,0,1-.18-.69v-.82a1,1,0,0,1,.18-.69.63.63,0,0,1,.49-.2.61.61,0,0,1,.39.12.66.66,0,0,1,.23.41,1.07,1.07,0,0,0,.22.4,1.51,1.51,0,0,0,.58.35,2.64,2.64,0,0,0,.84.14,2,2,0,0,0,1.24-.39.8.8,0,0,0,.33-.66.78.78,0,0,0-.22-.55,2.14,2.14,0,0,0-.94-.34l-1-.2a2.77,2.77,0,0,1-1.55-.77,1.91,1.91,0,0,1-.5-1.33,2,2,0,0,1,.54-1.36,2.33,2.33,0,0,1,1.42-.76V80.4a1,1,0,0,1,.18-.67.61.61,0,0,1,.49-.22.58.58,0,0,1,.48.22.94.94,0,0,1,.19.67Zm7.59,4.78a1.56,1.56,0,0,1,.32.52,2.55,2.55,0,0,1,.09.81V89a.4.4,0,0,0,.47.5.69.69,0,0,1,.45.22.65.65,0,0,1,.17.47.6.6,0,0,1-.2.47.67.67,0,0,1-.5.2,1.71,1.71,0,0,1-.83-.23,1.9,1.9,0,0,1-.7-.75,1.5,1.5,0,0,1-.19-.78V86.74a.66.66,0,0,0-.09-.39.65.65,0,0,0-.39-.14.76.76,0,0,1-.47-.2.69.69,0,0,1-.16-.47.65.65,0,0,1,.16-.47.76.76,0,0,1,.47-.2.66.66,0,0,0,.37-.13.66.66,0,0,0,.11-.4V82.1a1.66,1.66,0,0,1,.52-1.22,1.62,1.62,0,0,1,1.2-.53.64.64,0,0,1,.5.21.58.58,0,0,1,.2.46.64.64,0,0,1-.17.46.69.69,0,0,1-.45.22c-.19,0-.3,0-.35.11a.58.58,0,0,0-.12.4v2.13a2.16,2.16,0,0,1-.09.7A1.6,1.6,0,0,1,656.76,85.54Zm9.17-1.11a2.94,2.94,0,0,0-.68-.3,2.55,2.55,0,0,0-.74-.11,2.62,2.62,0,0,0-1.23.25c-.14.08-.21.16-.21.25s.09.19.27.29a3.69,3.69,0,0,0,.94.2,10.56,10.56,0,0,1,1.84.37,2.15,2.15,0,0,1,1,.72,1.57,1.57,0,0,1,.37,1,1.47,1.47,0,0,1-.62,1.19,3.73,3.73,0,0,1-2.35.7,4.57,4.57,0,0,1-1.07-.11,3.65,3.65,0,0,1-.9-.29.85.85,0,0,1-.21.14.6.6,0,0,1-.22,0,.62.62,0,0,1-.5-.2,1,1,0,0,1-.19-.69v-.45a1,1,0,0,1,.19-.69.63.63,0,0,1,.48-.2.56.56,0,0,1,.39.14.76.76,0,0,1,.27.45,2.08,2.08,0,0,0,.72.39,3.37,3.37,0,0,0,1,.13,2.9,2.9,0,0,0,1.42-.28c.17-.1.25-.19.25-.3s-.12-.32-.35-.44a6.16,6.16,0,0,0-1.42-.28,4,4,0,0,1-2.15-.65,1.5,1.5,0,0,1-.53-1.18,1.46,1.46,0,0,1,.59-1.18,3.41,3.41,0,0,1,2.16-.64,4.14,4.14,0,0,1,.87.09,3.8,3.8,0,0,1,.83.25l.23-.13a.54.54,0,0,1,.19,0,.56.56,0,0,1,.45.2,1,1,0,0,1,.19.69v.33a1.3,1.3,0,0,1-.09.59.71.71,0,0,1-1,.16A.78.78,0,0,1,665.93,84.43ZM673,80.34v1.4h-1.6v-1.4Zm.17,2.53v4.58h1.61a1,1,0,0,1,.67.18.63.63,0,0,1,0,1,1,1,0,0,1-.67.18h-4.55a1,1,0,0,1-.68-.18.64.64,0,0,1-.21-.49.58.58,0,0,1,.21-.47,1,1,0,0,1,.68-.18h1.61V84.2h-1.08a1,1,0,0,1-.68-.19.64.64,0,0,1-.21-.49.59.59,0,0,1,.21-.46,1,1,0,0,1,.68-.19Zm6.62,4.58h2.35a.87.87,0,0,1,.2-.57.64.64,0,0,1,.45-.18.6.6,0,0,1,.49.2,1,1,0,0,1,.19.69v1.18h-5.8V87.66l3.51-3.46h-2v.14a1,1,0,0,1-.19.67.69.69,0,0,1-1,0,1,1,0,0,1-.19-.67V82.87h5.53V84Zm12.06-1h-5.46a1.63,1.63,0,0,0,.73.85,2.8,2.8,0,0,0,1.44.31,8.29,8.29,0,0,0,2-.31,3.19,3.19,0,0,1,.7-.13.58.58,0,0,1,.45.19.61.61,0,0,1,.19.47.57.57,0,0,1-.2.44,3.17,3.17,0,0,1-1.28.46,8.79,8.79,0,0,1-1.93.22,3.61,3.61,0,0,1-2.57-.9,3,3,0,0,1-1-2.24,2.86,2.86,0,0,1,1-2.28,3.66,3.66,0,0,1,2.41-.87,3.72,3.72,0,0,1,1.48.28,3,3,0,0,1,1,.61,4,4,0,0,1,.78,1.2,2.83,2.83,0,0,1,.2,1.14Zm-1.46-1.33a2,2,0,0,0-.82-.85,2.25,2.25,0,0,0-1.17-.29,2.31,2.31,0,0,0-1.17.29,2,2,0,0,0-.81.85Zm5.82.38a2,2,0,0,1-.33-.52,2.44,2.44,0,0,1-.07-.68V82.21a.51.51,0,0,0-.11-.37.56.56,0,0,0-.38-.14.74.74,0,0,1-.45-.22.64.64,0,0,1-.17-.46.58.58,0,0,1,.2-.46.66.66,0,0,1,.5-.21,1.63,1.63,0,0,1,.84.24,1.79,1.79,0,0,1,.71.75,1.55,1.55,0,0,1,.18.76v2.24a.59.59,0,0,0,.1.39.6.6,0,0,0,.39.14.68.68,0,0,1,.45.2.62.62,0,0,1,.17.47.65.65,0,0,1-.17.47.71.71,0,0,1-.47.2c-.2,0-.32.06-.36.13a.62.62,0,0,0-.11.4v2.35a1.62,1.62,0,0,1-.53,1.23,1.58,1.58,0,0,1-1.19.53.71.71,0,0,1-.51-.2.67.67,0,0,1,0-.92.72.72,0,0,1,.47-.22.57.57,0,0,0,.34-.11.61.61,0,0,0,.13-.41V86.87a3.09,3.09,0,0,1,.07-.81A1.45,1.45,0,0,1,696.19,85.54Z"/><path class="cls-11" d="M703,80l4.28,9.17s0,.16.11.34a.79.79,0,0,1,0,.22.55.55,0,0,1-.18.41.65.65,0,0,1-.46.18.68.68,0,0,1-.42-.12,1.31,1.31,0,0,1-.3-.45l-4.28-9.19a1.49,1.49,0,0,1-.15-.5.62.62,0,0,1,.18-.44.69.69,0,0,1,.47-.2.57.57,0,0,1,.39.12A1.21,1.21,0,0,1,703,80Zm12.43,3.87v1.47a4.58,4.58,0,0,1-.75,2.48A2.37,2.37,0,0,1,712.5,89a2.56,2.56,0,0,1-1.37-.34,3.41,3.41,0,0,1-1-1.31,4.34,4.34,0,0,1-.5-2V83.82a4.58,4.58,0,0,1,.75-2.48,2.37,2.37,0,0,1,2.14-1.21,2.44,2.44,0,0,1,1.36.36,3.23,3.23,0,0,1,1.06,1.3A4.35,4.35,0,0,1,715.39,83.82Zm-1.33,0a3.09,3.09,0,0,0-.61-1.91,1.16,1.16,0,0,0-1-.43,1.25,1.25,0,0,0-1,.48,3,3,0,0,0-.57,1.86v1.47a2.94,2.94,0,0,0,.62,1.89,1.12,1.12,0,0,0,1,.45,1.14,1.14,0,0,0,1-.5,2.86,2.86,0,0,0,.59-1.84Z"/><path class="cls-9" d="M604.76,114H714.05v39H604.76Z"/><path d="M624.08,130.27a3.06,3.06,0,0,1,.91.27.87.87,0,0,1,.19-.1.58.58,0,0,1,.19,0,.62.62,0,0,1,.48.22,1,1,0,0,1,.19.69v.42a1,1,0,0,1-.19.69.62.62,0,0,1-.47.2.7.7,0,0,1-.47-.17.85.85,0,0,1-.2-.52,1.8,1.8,0,0,0-1.17-.37,1.83,1.83,0,0,0-1.08.26.74.74,0,0,0-.34.58.62.62,0,0,0,.2.46,2.16,2.16,0,0,0,.87.32l.89.19a3.51,3.51,0,0,1,1.61.69,2,2,0,0,1,.63,1.53,2.15,2.15,0,0,1-.58,1.48,2.87,2.87,0,0,1-1.66.85v1.14a1,1,0,0,1-.18.67.61.61,0,0,1-.49.22.58.58,0,0,1-.48-.22.94.94,0,0,1-.19-.67v-1.14a4.64,4.64,0,0,1-1-.35.86.86,0,0,1-.53.24.65.65,0,0,1-.5-.2,1,1,0,0,1-.19-.69v-.83a1,1,0,0,1,.19-.69.63.63,0,0,1,.48-.2.61.61,0,0,1,.39.12.65.65,0,0,1,.24.41.89.89,0,0,0,.22.41,1.39,1.39,0,0,0,.57.34,2.75,2.75,0,0,0,.85.14,1.93,1.93,0,0,0,1.23-.39.78.78,0,0,0,.33-.66.72.72,0,0,0-.22-.54,2.07,2.07,0,0,0-.94-.35l-1-.2a2.74,2.74,0,0,1-1.54-.77,1.84,1.84,0,0,1-.5-1.32,1.94,1.94,0,0,1,.53-1.36,2.37,2.37,0,0,1,1.42-.77v-.36a1,1,0,0,1,.19-.67.58.58,0,0,1,.48-.22.61.61,0,0,1,.49.22,1,1,0,0,1,.18.67Zm7.6,4.78a1.52,1.52,0,0,1,.31.52,2.64,2.64,0,0,1,.09.81v2.13a.53.53,0,0,0,.1.37.55.55,0,0,0,.37.13.68.68,0,0,1,.45.21.67.67,0,0,1,.18.47.59.59,0,0,1-.21.47.63.63,0,0,1-.5.21,1.58,1.58,0,0,1-.82-.24,1.73,1.73,0,0,1-.71-.75,1.61,1.61,0,0,1-.19-.78v-2.34a.62.62,0,0,0-.09-.39.6.6,0,0,0-.39-.15.73.73,0,0,1-.47-.2.81.81,0,0,1,0-.94.78.78,0,0,1,.47-.2.83.83,0,0,0,.38-.12.69.69,0,0,0,.1-.41v-2.23a1.68,1.68,0,0,1,.52-1.22,1.59,1.59,0,0,1,1.2-.53.62.62,0,0,1,.5.2.59.59,0,0,1,.21.47.63.63,0,0,1-.18.45.65.65,0,0,1-.45.22.54.54,0,0,0-.34.11.55.55,0,0,0-.13.4v2.13a2.12,2.12,0,0,1-.09.7A1.45,1.45,0,0,1,631.68,135.05Zm9.81-2.43a.69.69,0,0,1,.5-.22.61.61,0,0,1,.47.2,1,1,0,0,1,.18.67v.86a1.06,1.06,0,0,1-.18.69.66.66,0,0,1-.49.2.73.73,0,0,1-.47-.15,1.09,1.09,0,0,1-.2-.49.74.74,0,0,0-.39-.53,2.53,2.53,0,0,0-1.34-.31,2.07,2.07,0,0,0-1.52.56,1.83,1.83,0,0,0-.56,1.39,1.52,1.52,0,0,0,.54,1.23,2.82,2.82,0,0,0,1.82.46,4.7,4.7,0,0,0,1.36-.17,2.18,2.18,0,0,0,.59-.36.79.79,0,0,1,.5-.25.6.6,0,0,1,.47.2.69.69,0,0,1,.2.48c0,.3-.2.57-.59.83a4.82,4.82,0,0,1-2.64.6,4.07,4.07,0,0,1-2.42-.64,2.79,2.79,0,0,1-1.18-2.38,3.09,3.09,0,0,1,1-2.34,3.36,3.36,0,0,1,2.48-.94,4.69,4.69,0,0,1,1,.11A3.22,3.22,0,0,1,641.49,132.62Zm9.39,2.82a2.86,2.86,0,0,1-.44,1.49,3,3,0,0,1-1.27,1.15,3.78,3.78,0,0,1-3.5,0,3,3,0,0,1-1.26-1.14,2.87,2.87,0,0,1-.44-1.51,3.13,3.13,0,0,1,.44-1.56,3,3,0,0,1,1.26-1.22,3.81,3.81,0,0,1,1.75-.44,3.65,3.65,0,0,1,1.75.45,2.92,2.92,0,0,1,1.27,1.21A3.14,3.14,0,0,1,650.88,135.44Zm-1.35,0a1.79,1.79,0,0,0-.45-1.17,2.25,2.25,0,0,0-3.17-.15,1.77,1.77,0,0,0-.61,1.34,1.55,1.55,0,0,0,.61,1.17,2.21,2.21,0,0,0,1.51.53,2.15,2.15,0,0,0,1.5-.53A1.57,1.57,0,0,0,649.53,135.44Zm4.53-3.06v.45a2.56,2.56,0,0,1,.8-.46,2.67,2.67,0,0,1,.95-.16,2.46,2.46,0,0,1,1.88.73,2.17,2.17,0,0,1,.54,1.53V137a.9.9,0,0,1,.63.19.6.6,0,0,1,.2.48.63.63,0,0,1-.2.47,1.05,1.05,0,0,1-.69.19H657a1,1,0,0,1-.69-.19.62.62,0,0,1-.2-.48.61.61,0,0,1,.18-.47.92.92,0,0,1,.65-.19v-2.53a.79.79,0,0,0-.24-.63,1.42,1.42,0,0,0-.92-.26,1.73,1.73,0,0,0-.81.18,3.83,3.83,0,0,0-.88.75V137a1.58,1.58,0,0,1,.66.09.68.68,0,0,1,.11,1,1.05,1.05,0,0,1-.69.19h-1.52a1,1,0,0,1-.68-.19.63.63,0,0,1-.21-.48.66.66,0,0,1,.32-.57,1.55,1.55,0,0,1,.67-.09v-3.25a.9.9,0,0,1-.63-.19.63.63,0,0,1-.2-.48.62.62,0,0,1,.2-.47,1,1,0,0,1,.69-.19Zm9,1.33v2.67c0,.29,0,.49.17.58a1.77,1.77,0,0,0,1,.2,4,4,0,0,0,1.88-.44,1.44,1.44,0,0,1,.53-.15.62.62,0,0,1,.44.2.63.63,0,0,1,.2.47.6.6,0,0,1-.2.44,3.28,3.28,0,0,1-1.27.58,6.68,6.68,0,0,1-1.58.25,2.78,2.78,0,0,1-1.87-.54,1.69,1.69,0,0,1-.61-1.32v-2.94h-.49a1,1,0,0,1-.68-.19.6.6,0,0,1-.21-.48.59.59,0,0,1,.21-.47,1,1,0,0,1,.68-.19h.49v-1.2a1.06,1.06,0,0,1,.17-.69.64.64,0,0,1,.48-.2.66.66,0,0,1,.49.2,1.05,1.05,0,0,1,.19.69v1.2h2.46a1,1,0,0,1,.69.19.61.61,0,0,1,.2.48.59.59,0,0,1-.2.47,1,1,0,0,1-.69.19Zm11.67,2.3h-5.47a1.65,1.65,0,0,0,.73.84,2.82,2.82,0,0,0,1.44.31,8.29,8.29,0,0,0,2-.31,4.14,4.14,0,0,1,.7-.13.62.62,0,0,1,.45.19.63.63,0,0,1,.19.47.57.57,0,0,1-.2.44,3.14,3.14,0,0,1-1.28.47,9.44,9.44,0,0,1-1.93.22,3.62,3.62,0,0,1-2.57-.91,2.94,2.94,0,0,1-1-2.23,2.89,2.89,0,0,1,1-2.29,3.66,3.66,0,0,1,2.41-.87,3.8,3.8,0,0,1,1.49.28,3.19,3.19,0,0,1,1,.61,4,4,0,0,1,.78,1.2,2.9,2.9,0,0,1,.21,1.14Zm-1.47-1.33a2.07,2.07,0,0,0-.82-.86,2.25,2.25,0,0,0-1.17-.28,2.3,2.3,0,0,0-1.17.28,2.11,2.11,0,0,0-.81.86Zm4.78-2.3v.45a2.52,2.52,0,0,1,.79-.46,2.69,2.69,0,0,1,1-.16,2.43,2.43,0,0,1,1.87.73,2.13,2.13,0,0,1,.55,1.53V137a.85.85,0,0,1,.62.19.57.57,0,0,1,.21.48.61.61,0,0,1-.21.47,1,1,0,0,1-.68.19H681a1.05,1.05,0,0,1-.69-.19.66.66,0,0,1-.2-.48.58.58,0,0,1,.19-.47.89.89,0,0,1,.64-.19v-2.53a.82.82,0,0,0-.23-.63,1.45,1.45,0,0,0-.93-.26,1.73,1.73,0,0,0-.81.18,3.63,3.63,0,0,0-.87.75V137a1.5,1.5,0,0,1,.65.09.63.63,0,0,1,.31.58.6.6,0,0,1-.2.47,1,1,0,0,1-.69.19h-1.51a1.05,1.05,0,0,1-.69-.19.66.66,0,0,1-.2-.48.65.65,0,0,1,.31-.57,1.58,1.58,0,0,1,.67-.09v-3.25a.85.85,0,0,1-.62-.19.6.6,0,0,1-.21-.48.59.59,0,0,1,.21-.47,1,1,0,0,1,.68-.19Zm9,1.33v2.67a.76.76,0,0,0,.17.58,1.83,1.83,0,0,0,1,.2,4,4,0,0,0,1.87-.44,1.49,1.49,0,0,1,.53-.15.69.69,0,0,1,.64.67.57.57,0,0,1-.2.44,3.2,3.2,0,0,1-1.27.58,6.61,6.61,0,0,1-1.57.25,2.81,2.81,0,0,1-1.88-.54,1.69,1.69,0,0,1-.61-1.32v-2.94h-.48a1,1,0,0,1-.69-.19.59.59,0,0,1-.2-.48.59.59,0,0,1,.2-.47,1,1,0,0,1,.69-.19h.48v-1.2a1.13,1.13,0,0,1,.17-.69.66.66,0,0,1,.49-.2.63.63,0,0,1,.48.2,1,1,0,0,1,.19.69v1.2h2.47a1,1,0,0,1,.69.19.64.64,0,0,1,.2.48.62.62,0,0,1-.2.47,1,1,0,0,1-.69.19Zm8,1.34a1.57,1.57,0,0,1-.33-.51,2.51,2.51,0,0,1-.08-.69v-2.13a.48.48,0,0,0-.11-.37.56.56,0,0,0-.37-.14.69.69,0,0,1-.45-.22.63.63,0,0,1-.18-.45.59.59,0,0,1,.21-.47.65.65,0,0,1,.5-.2,1.61,1.61,0,0,1,.84.23,1.83,1.83,0,0,1,.7.75,1.47,1.47,0,0,1,.19.77v2.23a.55.55,0,0,0,.1.39.6.6,0,0,0,.39.14.72.72,0,0,1,.45.2.67.67,0,0,1-.47,1.14c-.2,0-.32.07-.36.13a.63.63,0,0,0-.11.41v2.34a1.66,1.66,0,0,1-.53,1.23,1.59,1.59,0,0,1-1.19.54.66.66,0,0,1-.51-.21.59.59,0,0,1-.21-.47.64.64,0,0,1,.18-.45.77.77,0,0,1,.46-.22.58.58,0,0,0,.35-.11.6.6,0,0,0,.12-.4v-2.13a3.09,3.09,0,0,1,.08-.81A1.33,1.33,0,0,1,695.1,135.05Z"/><text class="cls-1" transform="translate(752.15 145.66)">)</text></svg>