
<svg id="Layer_1" data-name="Layer 1" xmlns="http://www.w3.org/2000/svg" viewBox="0 0 808.15 262.87"><defs><style>.cls-1{fill:#ffe599;}.cls-1,.cls-3{fill-rule:evenodd;}.cls-2{fill:none;stroke:#595959;stroke-linejoin:round;}.cls-3{fill-opacity:0;}.cls-4{fill:#242729;}.cls-5{fill:#202122;}</style></defs><path class="cls-1" d="M25.72,80.39h0a21.68,21.68,0,0,1,21.7-21.7h128.3a21.85,21.85,0,0,1,21.8,21.8v86.9a21.68,21.68,0,0,1-21.7,21.7H47.42a21.68,21.68,0,0,1-21.7-21.7Z"/><path class="cls-2" d="M25.72,80.39h0a21.68,21.68,0,0,1,21.7-21.7h128.3a21.85,21.85,0,0,1,21.8,21.8v86.9a21.68,21.68,0,0,1-21.7,21.7H47.42a21.68,21.68,0,0,1-21.7-21.7Z"/><path class="cls-3" d="M25.32,86.49l172.1-1.3"/><path class="cls-2" d="M25.32,86.49l172.1-1.3"/><path class="cls-3" d="M23.52,62.69h175.7v28.7H23.52Z"/><path d="M47,71.19a1.61,1.61,0,0,1,.9.3c.1,0,.1-.1.2-.1h.2a.76.76,0,0,1,.5.2,1.17,1.17,0,0,1,.2.7v.4a1.17,1.17,0,0,1-.2.7.76.76,0,0,1-.5.2c-.2,0-.3-.1-.5-.2a.76.76,0,0,1-.2-.5,2.14,2.14,0,0,0-1.2-.4,1.8,1.8,0,0,0-1.1.3.86.86,0,0,0-.3.6c0,.2.1.3.2.5a2.19,2.19,0,0,0,.9.3l.9.2a4,4,0,0,1,1.6.7,2,2,0,0,1,.6,1.5,2.2,2.2,0,0,1-.6,1.5,2.72,2.72,0,0,1-1.7.8V80a1.45,1.45,0,0,1-.2.7.73.73,0,0,1-1,0,1.17,1.17,0,0,1-.2-.7v-1.1l-1-.3a.65.65,0,0,1-.5.2.76.76,0,0,1-.5-.2,1.17,1.17,0,0,1-.2-.7v-.8a1.17,1.17,0,0,1,.2-.7.76.76,0,0,1,.5-.2c.2,0,.3,0,.4.1a.52.52,0,0,1,.2.4c.1.2.1.3.2.4a1.63,1.63,0,0,0,.6.3,2.49,2.49,0,0,0,.8.1,1.59,1.59,0,0,0,1.2-.4.91.91,0,0,0,.3-.7.76.76,0,0,0-.2-.5,3,3,0,0,0-.9-.3l-1-.2a2.19,2.19,0,0,1-1.5-.8,2.11,2.11,0,0,1-.5-1.3,2.39,2.39,0,0,1,.5-1.4,2.48,2.48,0,0,1,1.4-.8v-.4a1.45,1.45,0,0,1,.2-.7.73.73,0,0,1,1,0,1.17,1.17,0,0,1,.2.7v.5Zm7.6,4.8c.2.2.3.3.3.5a1.72,1.72,0,0,1,.1.8v2.1c0,.2,0,.3.1.4s.2.1.4.1.3.1.5.2a.76.76,0,0,1,.2.5c0,.2-.1.3-.2.5a.76.76,0,0,1-.5.2,1.88,1.88,0,0,1-.8-.2c-.3-.1-.5-.4-.7-.8a1.88,1.88,0,0,1-.2-.8v-2.3c0-.2,0-.3-.1-.4s-.2-.1-.4-.1a.76.76,0,0,1-.5-.2c-.2-.2-.3-.3-.3-.5a.68.68,0,0,1,.7-.7c.2,0,.3-.1.4-.1s.1-.2.1-.4v-2.2a1.66,1.66,0,0,1,.5-1.2,1.35,1.35,0,0,1,1.2-.5.68.68,0,0,1,.7.7c0,.2-.1.3-.2.5a.76.76,0,0,1-.5.2.44.44,0,0,1-.3-.1c-.1.1-.1.2-.1.4v2.1a1.48,1.48,0,0,1-.1.7Zm7.4-1.4v2.7a.85.85,0,0,0,.2.6,2.15,2.15,0,0,0,1,.2,4.06,4.06,0,0,0,1.9-.4,1.69,1.69,0,0,1,.5-.2.52.52,0,0,1,.4.2.76.76,0,0,1,.2.5.52.52,0,0,1-.2.4,3.12,3.12,0,0,1-1.3.6,5,5,0,0,1-1.6.2,3.31,3.31,0,0,1-1.9-.5,1.76,1.76,0,0,1-.6-1.3v-2.9h-.5a1.17,1.17,0,0,1-.7-.2.76.76,0,0,1-.2-.5c0-.2.1-.3.2-.5a1.17,1.17,0,0,1,.7-.2h.5v-1.2a1.17,1.17,0,0,1,.2-.7.72.72,0,0,1,1,0,1.17,1.17,0,0,1,.2.7v1.2h2.5a1.17,1.17,0,0,1,.7.2.76.76,0,0,1,.2.5c0,.2-.1.3-.2.5a1.17,1.17,0,0,1-.7.2H62Zm7.5,4.6-2.3-4.5a.64.64,0,0,1-.5-1.1,1.17,1.17,0,0,1,.7-.2h1.2a1.17,1.17,0,0,1,.7.2.76.76,0,0,1,.2.5c0,.2-.1.3-.2.5s-.4.2-.7.2l1.6,3.1,1.6-3.1a.85.85,0,0,1-.6-.2.76.76,0,0,1-.2-.5c0-.2.1-.3.2-.5a1.17,1.17,0,0,1,.7-.2h1.3a1.45,1.45,0,0,1,.7.2c.2.1.2.3.2.5s-.1.3-.2.5-.3.2-.5.2l-3.1,6c.3,0,.6,0,.7.1a.6.6,0,0,1,.3.6.76.76,0,0,1-.2.5,1.17,1.17,0,0,1-.7.2h-2.9a1.17,1.17,0,0,1-.7-.2.73.73,0,0,1,0-1,1.17,1.17,0,0,1,.7-.2h1.3Zm7.1-.7v2.2h.8a1.17,1.17,0,0,1,.7.2.73.73,0,0,1,0,1,1.17,1.17,0,0,1-.7.2H75a1.17,1.17,0,0,1-.7-.2.73.73,0,0,1,0-1,1.17,1.17,0,0,1,.7-.2h.2v-6H75a1.17,1.17,0,0,1-.7-.2.76.76,0,0,1-.2-.5c0-.2.1-.3.2-.5a1.17,1.17,0,0,1,.7-.2h1.6v.5a3.13,3.13,0,0,1,1-.5,3.55,3.55,0,0,1,1-.2,3.17,3.17,0,0,1,2.3.9,3,3,0,0,1,1,2.1,2.79,2.79,0,0,1-1.1,2.2,3.14,3.14,0,0,1-2.1.7,3.4,3.4,0,0,1-1-.1A4.87,4.87,0,0,1,76.62,78.49Zm4-2.3a2.54,2.54,0,0,0-.2-.7,1.58,1.58,0,0,0-.7-.7,2,2,0,0,0-1.1-.3,1.72,1.72,0,0,0-1.6.8,1.43,1.43,0,0,0-.4,1,1.22,1.22,0,0,0,.6,1,2.21,2.21,0,0,0,2.8,0A1.54,1.54,0,0,0,80.62,76.19Zm9,.7h-5.5a1.39,1.39,0,0,0,.7.8,2.65,2.65,0,0,0,1.4.3,8.79,8.79,0,0,0,2-.3,2.25,2.25,0,0,1,.7-.1c.2,0,.3.1.5.2s.2.3.2.5a.52.52,0,0,1-.2.4,3.41,3.41,0,0,1-1.3.5,13.66,13.66,0,0,1-1.9.2,3.74,3.74,0,0,1-2.6-.9,3,3,0,0,1-1-2.2,2.9,2.9,0,0,1,1-2.3,3.58,3.58,0,0,1,2.4-.9,4,4,0,0,1,1.5.3,2.89,2.89,0,0,1,1,.6,3.16,3.16,0,0,1,1,2.3v.6Zm-1.4-1.3a2.36,2.36,0,0,0-.8-.9,2.13,2.13,0,0,0-1.2-.3,2.66,2.66,0,0,0-1.2.3,1.76,1.76,0,0,0-.8.9ZM94,76c-.2-.2-.3-.3-.3-.5a1.48,1.48,0,0,1-.1-.7v-2.1c0-.2,0-.3-.1-.4s-.2-.1-.4-.1-.3-.1-.5-.2a1.27,1.27,0,0,1-.1-.6c0-.2.1-.3.2-.5a.76.76,0,0,1,.5-.2,1.88,1.88,0,0,1,.8.2c.3.1.5.4.7.8a1.88,1.88,0,0,1,.2.8v2.2c0,.2,0,.3.1.4s.2.1.4.1.3.1.5.2a.76.76,0,0,1,.2.5c0,.2-.1.3-.2.5a.76.76,0,0,1-.5.2c-.2,0-.3.1-.4.1s-.1.2-.1.4v2.3a1.66,1.66,0,0,1-.5,1.2,1.35,1.35,0,0,1-1.2.5.76.76,0,0,1-.5-.2c-.2,0-.2-.1-.2-.3s.1-.3.2-.5a.76.76,0,0,1,.5-.2.44.44,0,0,0,.3-.1c.1-.1.1-.2.1-.4v-2.1a1.72,1.72,0,0,1,.1-.8A.55.55,0,0,1,94,76Z"/><path class="cls-4" d="M107.82,78.59v2.5H99v-2.5h.9v1.5H107v-1.5Z"/><path d="M113.12,71.19a1.61,1.61,0,0,1,.9.3c.1,0,.1-.1.2-.1h.2a.76.76,0,0,1,.5.2,1.17,1.17,0,0,1,.2.7v.4a1.17,1.17,0,0,1-.2.7.76.76,0,0,1-.5.2c-.2,0-.3-.1-.5-.2a.76.76,0,0,1-.2-.5,2.14,2.14,0,0,0-1.2-.4,1.8,1.8,0,0,0-1.1.3.86.86,0,0,0-.3.6c0,.2.1.3.2.5a2.19,2.19,0,0,0,.9.3l.9.2a4,4,0,0,1,1.6.7,2,2,0,0,1,.6,1.5,2.2,2.2,0,0,1-.6,1.5,2.72,2.72,0,0,1-1.7.8V80a1.45,1.45,0,0,1-.2.7.72.72,0,0,1-1,0,1.17,1.17,0,0,1-.2-.7v-1.1l-1-.3a.65.65,0,0,1-.5.2.76.76,0,0,1-.5-.2c-.1-.1-.1-.4-.1-.8V77a1.17,1.17,0,0,1,.2-.7.76.76,0,0,1,.5-.2c.2,0,.3,0,.4.1a.52.52,0,0,1,.2.4c.1.2.1.3.2.4a1.63,1.63,0,0,0,.6.3,2.49,2.49,0,0,0,.8.1,1.59,1.59,0,0,0,1.2-.4.91.91,0,0,0,.3-.7.76.76,0,0,0-.2-.5,3,3,0,0,0-.9-.3l-1-.2a2.19,2.19,0,0,1-1.5-.8,2.11,2.11,0,0,1-.5-1.3,2.39,2.39,0,0,1,.5-1.4,2.48,2.48,0,0,1,1.4-.8v-.4a1.45,1.45,0,0,1,.2-.7.73.73,0,0,1,1,0,1.17,1.17,0,0,1,.2.7Zm7.6,4.8c.2.2.3.3.3.5a1.72,1.72,0,0,1,.1.8v2.1c0,.2,0,.3.1.4s.2.1.4.1.3.1.5.2.2.3.2.5-.1.3-.2.5a.76.76,0,0,1-.5.2,1.88,1.88,0,0,1-.8-.2c-.3-.1-.5-.4-.7-.8a1.88,1.88,0,0,1-.2-.8v-2.3c0-.2,0-.3-.1-.4s-.2-.1-.4-.1a.7.7,0,1,1,0-1.4c.2,0,.3-.1.4-.1s.1-.2.1-.4v-2.2a1.66,1.66,0,0,1,.5-1.2,1.35,1.35,0,0,1,1.2-.5.68.68,0,0,1,.7.7c0,.2-.1.3-.2.5s-.3.2-.5.2a.44.44,0,0,1-.3-.1c-.1.1-.1.2-.1.4v2.1a1.48,1.48,0,0,1-.1.7A2.09,2.09,0,0,1,120.72,76Zm9.2-1.1a4.88,4.88,0,0,0-.7-.3,1.7,1.7,0,0,0-.7-.1,3.73,3.73,0,0,0-1.2.2l-.2.2a.75.75,0,0,0,.3.3,4.12,4.12,0,0,0,.9.2,4.76,4.76,0,0,1,1.8.4,2,2,0,0,1,1,.7,1.78,1.78,0,0,1,.4,1,1.43,1.43,0,0,1-.6,1.2,3.51,3.51,0,0,1-2.3.7,4.1,4.1,0,0,1-1.1-.1l-.9-.3c-.1.1-.1.1-.2.1h-.2a.76.76,0,0,1-.5-.2,1.17,1.17,0,0,1-.2-.7v-.5a1.17,1.17,0,0,1,.2-.7.76.76,0,0,1,.5-.2c.2,0,.3,0,.4.1a1.07,1.07,0,0,1,.3.5,1.61,1.61,0,0,0,.7.4,3.08,3.08,0,0,0,1,.1,2.65,2.65,0,0,0,1.4-.3c.2-.1.2-.2.2-.3s-.1-.3-.3-.4a6.12,6.12,0,0,0-1.4-.3,3.54,3.54,0,0,1-2.2-.7,1.35,1.35,0,0,1-.5-1.2,1.43,1.43,0,0,1,.6-1.2,3.8,3.8,0,0,1,2.2-.6,2.77,2.77,0,0,1,.9.1c.3.1.6.1.8.2a.31.31,0,0,1,.2-.1h.2c.2,0,.3.1.5.2a1.17,1.17,0,0,1,.2.7v.3c0,.3,0,.5-.1.6a.6.6,0,0,1-.6.3c-.2,0-.3,0-.4-.1C130,75.19,129.92,75,129.92,74.89Zm7-4.1v1.4h-1.6v-1.4Zm.2,2.5v4.6h1.6a1.45,1.45,0,0,1,.7.2.76.76,0,0,1,.2.5c0,.2-.1.3-.2.5a1.17,1.17,0,0,1-.7.2h-4.5a1.45,1.45,0,0,1-.7-.2.72.72,0,0,1,0-1,1.17,1.17,0,0,1,.7-.2h1.6v-3.2h-1.1a1.45,1.45,0,0,1-.7-.2.76.76,0,0,1-.2-.5c0-.2.1-.3.2-.5a1.17,1.17,0,0,1,.7-.2Zm6.6,4.6H146a1.42,1.42,0,0,1,.2-.6c.1-.2.3-.2.5-.2a.76.76,0,0,1,.5.2,1.17,1.17,0,0,1,.2.7v1.2h-5.8v-1.1l3.5-3.5h-2v.1a1.45,1.45,0,0,1-.2.7c-.1.2-.3.2-.5.2a.76.76,0,0,1-.5-.2,1.17,1.17,0,0,1-.2-.7v-1.5h5.5v1.1Zm12.1-1h-5.5a1.39,1.39,0,0,0,.7.8,2.65,2.65,0,0,0,1.4.3,8.79,8.79,0,0,0,2-.3,2.25,2.25,0,0,1,.7-.1c.2,0,.3.1.5.2s.2.3.2.5a.52.52,0,0,1-.2.4,3.41,3.41,0,0,1-1.3.5,13.66,13.66,0,0,1-1.9.2,3.74,3.74,0,0,1-2.6-.9,3,3,0,0,1-1-2.2,2.9,2.9,0,0,1,1-2.3,3.58,3.58,0,0,1,2.4-.9,4,4,0,0,1,1.5.3,2.89,2.89,0,0,1,1,.6,3.16,3.16,0,0,1,1,2.3v.6Zm-1.5-1.3a2.36,2.36,0,0,0-.8-.9,2.13,2.13,0,0,0-1.2-.3,2.66,2.66,0,0,0-1.2.3,1.76,1.76,0,0,0-.8.9Zm5.9.4c-.2-.2-.3-.3-.3-.5a1.48,1.48,0,0,1-.1-.7v-2.1c0-.2,0-.3-.1-.4s-.2-.1-.4-.1-.3-.1-.5-.2a.76.76,0,0,1-.2-.5c0-.2.1-.3.2-.5a.76.76,0,0,1,.5-.2,1.88,1.88,0,0,1,.8.2c.3.1.5.4.7.8a1.88,1.88,0,0,1,.2.8v2.2c0,.2,0,.3.1.4s.2.1.4.1.3.1.5.2a.76.76,0,0,1,.2.5c0,.2-.1.3-.2.5a.76.76,0,0,1-.5.2c-.2,0-.3.1-.4.1s-.1.2-.1.4v2.3a1.66,1.66,0,0,1-.5,1.2,1.35,1.35,0,0,1-1.2.5.68.68,0,0,1-.7-.7c0-.2.1-.3.2-.5a.76.76,0,0,1,.5-.2.44.44,0,0,0,.3-.1c.1-.1.1-.2.1-.4v-2.1a1.72,1.72,0,0,1,.1-.8C159.92,76.29,160,76.09,160.22,76Z"/><path class="cls-5" d="M166.92,70.39l4.3,9.2c0,.1.1.2.1.3v.2a.52.52,0,0,1-.2.4.76.76,0,0,1-.5.2c-.2,0-.3,0-.4-.1a1.07,1.07,0,0,1-.3-.5l-4.3-9.2a1.69,1.69,0,0,1-.2-.5.52.52,0,0,1,.2-.4.76.76,0,0,1,.5-.2c.2,0,.3,0,.4.1A.7.7,0,0,1,166.92,70.39Zm12.5,3.8v1.5a3.93,3.93,0,0,1-.8,2.5,2.47,2.47,0,0,1-2.1,1.2,3.19,3.19,0,0,1-1.4-.3,2.8,2.8,0,0,1-1-1.3,4.55,4.55,0,0,1-.5-2v-1.6a3.93,3.93,0,0,1,.8-2.5,2.35,2.35,0,0,1,2.1-1.2,2.3,2.3,0,0,1,1.4.4,3.72,3.72,0,0,1,1.1,1.3A7.11,7.11,0,0,1,179.42,74.19Zm-1.4,0a3.08,3.08,0,0,0-.6-1.9,1.16,1.16,0,0,0-1-.4,1.39,1.39,0,0,0-1,.5,2.88,2.88,0,0,0-.6,1.9v1.5a3.08,3.08,0,0,0,.6,1.9,1.1,1.1,0,0,0,1,.5,1.39,1.39,0,0,0,1-.5,2.79,2.79,0,0,0,.6-1.8Z"/><path class="cls-3" d="M56.72,104.39H166v39H56.72Z"/><path d="M76.12,120.69a1.61,1.61,0,0,1,.9.3c.1,0,.1-.1.2-.1h.2a.76.76,0,0,1,.5.2,1.17,1.17,0,0,1,.2.7v.4a1.17,1.17,0,0,1-.2.7.76.76,0,0,1-.5.2c-.2,0-.3-.1-.5-.2a.76.76,0,0,1-.2-.5,2.14,2.14,0,0,0-1.2-.4,1.8,1.8,0,0,0-1.1.3.86.86,0,0,0-.3.6c0,.2.1.3.2.5a2.19,2.19,0,0,0,.9.3l.9.2a4,4,0,0,1,1.6.7,2,2,0,0,1,.6,1.5,2.2,2.2,0,0,1-.6,1.5,2.72,2.72,0,0,1-1.7.8v1.1a1.45,1.45,0,0,1-.2.7.72.72,0,0,1-1,0,1.17,1.17,0,0,1-.2-.7v-1.1l-1-.3a.6.6,0,0,1-.4.1.76.76,0,0,1-.5-.2.85.85,0,0,1-.2-.6v-.8a1.17,1.17,0,0,1,.2-.7.76.76,0,0,1,.5-.2c.2,0,.3,0,.4.1a.52.52,0,0,1,.2.4c.1.2.1.3.2.4a1.63,1.63,0,0,0,.6.3,2.49,2.49,0,0,0,.8.1,1.59,1.59,0,0,0,1.2-.4.91.91,0,0,0,.3-.7.76.76,0,0,0-.2-.5,3,3,0,0,0-.9-.3l-1-.2a2.19,2.19,0,0,1-1.5-.8,2.11,2.11,0,0,1-.5-1.3,2.39,2.39,0,0,1,.5-1.4,2.48,2.48,0,0,1,1.4-.8v-.4a1.45,1.45,0,0,1,.2-.7.73.73,0,0,1,1,0,1.17,1.17,0,0,1,.2.7Zm7.5,4.8c.2.2.3.3.3.5a1.72,1.72,0,0,1,.1.8v2.1c0,.2,0,.3.1.4s.2.1.4.1.3.1.5.2.2.3.2.5-.1.3-.2.5a.76.76,0,0,1-.5.2,1.88,1.88,0,0,1-.8-.2c-.3-.1-.5-.4-.7-.8a1.88,1.88,0,0,1-.2-.8v-2.3c0-.2,0-.3-.1-.4a.75.75,0,0,0-.5-.1.7.7,0,1,1,0-1.4c.2,0,.3-.1.4-.1s.1-.2.1-.4v-2.2a1.66,1.66,0,0,1,.5-1.2,1.35,1.35,0,0,1,1.2-.5.68.68,0,0,1,.7.7c0,.2-.1.3-.2.5s-.3.2-.5.2a.44.44,0,0,0-.3.1c-.1.1-.1.2-.1.4v2.1a1.48,1.48,0,0,1-.1.7A1.73,1.73,0,0,1,83.62,125.49Zm9.9-2.5c.2-.1.3-.2.5-.2s.3.1.5.2.2.4.2.7v.9a1.17,1.17,0,0,1-.2.7.76.76,0,0,1-.5.2c-.2,0-.3-.1-.5-.2a.59.59,0,0,1-.2-.5,1,1,0,0,0-.4-.5,2.5,2.5,0,0,0-1.3-.3,2,2,0,0,0-1.5.6,1.82,1.82,0,0,0-.6,1.4,1.66,1.66,0,0,0,.5,1.2,3,3,0,0,0,1.8.5,5.21,5.21,0,0,0,1.4-.2,2.09,2.09,0,0,0,.6-.4.65.65,0,0,1,.5-.2c.2,0,.3.1.5.2a.76.76,0,0,1,.2.5.94.94,0,0,1-.6.8,4.76,4.76,0,0,1-2.6.6,4.27,4.27,0,0,1-2.4-.6,2.85,2.85,0,0,1-1.2-2.4,2.9,2.9,0,0,1,1-2.3,3.49,3.49,0,0,1,2.5-.9,3.08,3.08,0,0,1,1,.1A1.18,1.18,0,0,1,93.52,123Zm9.3,2.9a2.82,2.82,0,0,1-.4,1.5,3,3,0,0,1-1.3,1.2,3.66,3.66,0,0,1-1.8.4,3.92,3.92,0,0,1-1.8-.4,3.61,3.61,0,0,1-1.3-1.1,2.6,2.6,0,0,1-.4-1.5,3.17,3.17,0,0,1,.4-1.6,3,3,0,0,1,1.3-1.2,3.66,3.66,0,0,1,1.8-.4,3.74,3.74,0,0,1,1.8.5,3,3,0,0,1,1.3,1.2A2,2,0,0,1,102.82,125.89Zm-1.3,0a2.06,2.06,0,0,0-2.2-1.9,2,2,0,0,0-1.5.6,1.76,1.76,0,0,0-.6,1.3,1.73,1.73,0,0,0,.6,1.2,2,2,0,0,0,1.5.5,2.46,2.46,0,0,0,1.5-.5A1.55,1.55,0,0,0,101.52,125.89Zm4.5-3.1v.5a2.18,2.18,0,0,1,.8-.5,3,3,0,0,1,1-.2,2.49,2.49,0,0,1,1.9.7,2,2,0,0,1,.5,1.5v2.5a.85.85,0,0,1,.6.2.76.76,0,0,1,.2.5c0,.2-.1.3-.2.5a1.17,1.17,0,0,1-.7.2h-1.2a1.17,1.17,0,0,1-.7-.2.72.72,0,0,1,0-1,.85.85,0,0,1,.6-.2v-2.5a.85.85,0,0,0-.2-.6,1.22,1.22,0,0,0-.9-.3,1.88,1.88,0,0,0-.8.2,5.06,5.06,0,0,0-.9.8v2.5c.3,0,.6,0,.7.1a.6.6,0,0,1,.3.6c0,.2-.1.3-.2.5a1.17,1.17,0,0,1-.7.2h-1.5a1.17,1.17,0,0,1-.7-.2.76.76,0,0,1-.2-.5.86.86,0,0,1,.3-.6c.1-.1.3-.1.7-.1v-3.2a.85.85,0,0,1-.6-.2.76.76,0,0,1-.2-.5c0-.2.1-.3.2-.5a1.17,1.17,0,0,1,.7-.2Zm9,1.3v2.7a.85.85,0,0,0,.2.6,2.15,2.15,0,0,0,1,.2,4.06,4.06,0,0,0,1.9-.4,1.69,1.69,0,0,1,.5-.2.52.52,0,0,1,.4.2.76.76,0,0,1,.2.5.52.52,0,0,1-.2.4,3.12,3.12,0,0,1-1.3.6,5,5,0,0,1-1.6.2,3.31,3.31,0,0,1-1.9-.5,1.76,1.76,0,0,1-.6-1.3v-2.9h-.5a1.17,1.17,0,0,1-.7-.2.76.76,0,0,1-.2-.5c0-.2.1-.3.2-.5a1.17,1.17,0,0,1,.7-.2h.5v-1.2a1.17,1.17,0,0,1,.2-.7.73.73,0,0,1,1,0,1.17,1.17,0,0,1,.2.7v1.2h2.5a1.17,1.17,0,0,1,.7.2.76.76,0,0,1,.2.5c0,.2-.1.3-.2.5a1.17,1.17,0,0,1-.7.2H115Zm11.7,2.3h-5.5a1.39,1.39,0,0,0,.7.8,2.9,2.9,0,0,0,1.4.3,8.79,8.79,0,0,0,2-.3,2.25,2.25,0,0,1,.7-.1c.2,0,.3.1.5.2s.2.3.2.5a.52.52,0,0,1-.2.4,3.41,3.41,0,0,1-1.3.5,13.66,13.66,0,0,1-1.9.2,3.74,3.74,0,0,1-2.6-.9,3,3,0,0,1-1-2.2,2.9,2.9,0,0,1,1-2.3,3.58,3.58,0,0,1,2.4-.9,4,4,0,0,1,1.5.3,2.89,2.89,0,0,1,1,.6,3.16,3.16,0,0,1,1,2.3v.6Zm-1.5-1.3a2.36,2.36,0,0,0-.8-.9,2.13,2.13,0,0,0-1.2-.3,2.66,2.66,0,0,0-1.2.3,2.36,2.36,0,0,0-.8.9Zm4.8-2.3v.5a2.18,2.18,0,0,1,.8-.5,3,3,0,0,1,1-.2,2.49,2.49,0,0,1,1.9.7,2,2,0,0,1,.5,1.5v2.5a.85.85,0,0,1,.6.2.76.76,0,0,1,.2.5c0,.2-.1.3-.2.5s-.4.2-.7.2h-1.2a1.17,1.17,0,0,1-.7-.2.72.72,0,0,1,0-1,.85.85,0,0,1,.6-.2v-2.5a.85.85,0,0,0-.2-.6,1.22,1.22,0,0,0-.9-.3,1.88,1.88,0,0,0-.8.2,5.06,5.06,0,0,0-.9.8v2.5c.3,0,.6,0,.7.1a.6.6,0,0,1,.3.6c0,.2-.1.3-.2.5s-.4.2-.7.2h-1.5a1.17,1.17,0,0,1-.7-.2.76.76,0,0,1-.2-.5.86.86,0,0,1,.3-.6c.1-.1.3-.1.7-.1v-3.2a.85.85,0,0,1-.6-.2.76.76,0,0,1-.2-.5c0-.2.1-.3.2-.5s.4-.2.7-.2Zm9,1.3v2.7a.85.85,0,0,0,.2.6,2.15,2.15,0,0,0,1,.2,4.06,4.06,0,0,0,1.9-.4,1.69,1.69,0,0,1,.5-.2.52.52,0,0,1,.4.2.76.76,0,0,1,.2.5.52.52,0,0,1-.2.4,3.12,3.12,0,0,1-1.3.6,5,5,0,0,1-1.6.2,3.31,3.31,0,0,1-1.9-.5,1.76,1.76,0,0,1-.6-1.3v-2.9h-.5a1.17,1.17,0,0,1-.7-.2.76.76,0,0,1-.2-.5c0-.2.1-.3.2-.5a1.17,1.17,0,0,1,.7-.2h.5v-1.2a1.17,1.17,0,0,1,.2-.7.73.73,0,0,1,1,0,1.17,1.17,0,0,1,.2.7v1.2h2.5a1.17,1.17,0,0,1,.7.2.76.76,0,0,1,.2.5c0,.2-.1.3-.2.5a1.17,1.17,0,0,1-.7.2H139Zm8.1,1.4c-.2-.2-.3-.3-.3-.5a1.48,1.48,0,0,1-.1-.7v-2.1c0-.2,0-.3-.1-.4s-.2-.1-.4-.1-.3-.1-.5-.2a.76.76,0,0,1-.2-.5c0-.2.1-.3.2-.5a.76.76,0,0,1,.5-.2,1.88,1.88,0,0,1,.8.2c.3.1.5.4.7.8a1.88,1.88,0,0,1,.2.8v2.2c0,.2,0,.3.1.4s.2.1.4.1.3.1.5.2a.76.76,0,0,1,.2.5c0,.2-.1.3-.2.5a.76.76,0,0,1-.5.2c-.2,0-.3.1-.4.1s-.1.2-.1.4V129a1.66,1.66,0,0,1-.5,1.2,1.35,1.35,0,0,1-1.2.5.68.68,0,0,1-.7-.7c0-.2.1-.3.2-.5a.76.76,0,0,1,.5-.2.44.44,0,0,0,.3-.1c.1-.1.1-.2.1-.4v-2.1a1.72,1.72,0,0,1,.1-.8Z"/></svg>
