<svg id="gitbom_logo" data-name="gitbom logo" xmlns="http://www.w3.org/2000/svg" viewBox="0 0 1626.78 447.99"><defs><style>.cls-1{fill:#f14e32;}</style></defs><path id="git" d="M677.29,122.39H598c-40-10.49-130.49-7.76-130.49,74.79,0,30.09,15,51.23,35,61-25.1,23-37,33.85-37,49.21,0,11,4.47,21.14,17.89,26.81-14.27,13.41-22.4,23.15-22.4,41.45,0,32.11,28.05,50.82,101.63,50.82,70.75,0,111.79-26.42,111.79-73.18,0-58.66-45.16-56.5-151.63-63l13.43-21.55c27.27,7.58,118.7,10,118.7-67.89,0-18.7-7.73-31.71-15-41.07l37.41-2.84Zm-63.42,241.9c0,32.06-104.89,32.1-104.89,2.43,0-8.14,5.27-15,10.57-21.54C597.26,350.48,613.87,348.55,613.87,364.29ZM563.06,229.71c-52.8,0-50.46-71.16,1.2-71.16C613.8,158.55,615.08,229.71,563.06,229.71Zm133.3,100.51v-32.1c26.75-3.66,27.24-2,27.24-11V167.61c0-8.5-2.05-7.38-27.24-16.26l4.47-32.92H785V287.14c0,6.51.4,7.32,6.51,8.14l20.73,2.84v32.1ZM748.81,85.91c-23.17,0-36.59-13.43-36.59-36.61s13.42-35.77,36.59-35.77c23.58,0,37,12.62,37,35.77S772.39,85.91,748.81,85.91ZM973,314.46c-17.49,8.53-43.1,16.26-66.28,16.26-48.38,0-66.67-19.5-66.67-65.46V158.75c0-5.42,1.05-4.06-31.71-4.06V118.5c35.78-4.07,50-22,54.47-66.27h38.63c0,65.83-1.34,61.81,3.26,61.81H962v40.65H901.44v97.15c0,6.92-4.92,51.41,60.57,26.84Z" transform="translate(0)"/><path id="git-alt" class="cls-1" d="M439.55,204.05,244,8.45a28.86,28.86,0,0,0-40.81,0L162.53,49.08l51.52,51.52c27.06-9.14,52.68,16.77,43.39,43.68l49.66,49.66c34.23-11.8,61.18,31,35.47,56.69-26.49,26.49-70.21-2.87-56-37.34L240.22,167V288.85c25.3,12.54,22.26,41.85,9.08,55a34.31,34.31,0,1,1-37.3-56v-123c-20.8-8.51-24.6-30.74-18.64-45L142.57,69,8.45,203.14a28.86,28.86,0,0,0,0,40.81l195.61,195.6a28.86,28.86,0,0,0,40.8,0L439.55,244.86a28.86,28.86,0,0,0,0-40.81Z" transform="translate(0)"/><path d="M1140.33,231q10.05,13.5,10.05,33,0,27-19.35,42.3t-53.25,15.3h-77.4q-8.7,0-13.65-4.8t-5-13.5V128.36q0-8.7,5-13.5t13.65-4.8h74.4q33,0,51.75,14.55t18.75,40.65q0,16.8-8.85,29.1t-24.45,18Q1130.28,217.46,1140.33,231Zm-120.75-31.8h48.9q39.9,0,39.9-29.7,0-15-9.9-22.2t-30-7.2h-48.9Zm84.6,84.9q9.6-7.5,9.6-23.4T1104,237q-9.75-7.8-30.45-7.8h-54v62.4h54Q1094.58,291.56,1104.18,284.06Z" transform="translate(0)"/><path d="M1227.33,311.06q-22.65-13.2-34.95-37.8t-12.3-57.6q0-33,12.15-57.45a87.28,87.28,0,0,1,35-37.65q22.8-13.2,53.7-13.2t53.55,13.2q22.65,13.2,34.8,37.65t12.15,57.45q0,33-12.3,57.6t-34.95,37.8q-22.65,13.2-53.25,13.2Q1250,324.26,1227.33,311.06Zm99-37.8q16.35-20.1,16.35-57.6t-16.35-57.45q-16.35-20-45.45-20-29.4,0-45.75,20t-16.35,57.45q0,37.5,16.35,57.6t45.75,20.1Q1310,293.36,1326.33,273.26Z" transform="translate(0)"/><path d="M1621.68,113.81q5.1,5.25,5.1,14v177.6q0,8.4-4.8,13.2t-12.6,4.8q-7.8,0-12.3-4.8t-4.5-13.2V181.76l-51,96.6a29.79,29.79,0,0,1-7.8,9.75,16,16,0,0,1-9.9,3.15,16.59,16.59,0,0,1-9.9-3q-4.2-3-7.8-9.9l-51.3-95.1v122.1q0,8.1-4.65,13.05t-12.45,4.95q-7.8,0-12.3-4.8t-4.5-13.2V127.76q0-8.7,5-14t13.35-5.25q11.7,0,18.3,12.9l66.6,126.9,66.3-126.9q6.6-12.9,17.7-12.9Q1616.58,108.56,1621.68,113.81Z" transform="translate(0)"/></svg>