<svg id="gitbom_logo" data-name="gitbom logo" xmlns="http://www.w3.org/2000/svg" viewBox="0 0 1649.88 447.99"><defs><style>.cls-1{fill:#f14e32;}.cls-2{font-size:300px;font-family:Nunito-Bold, Nunito;font-weight:700;}</style></defs><path id="git" d="M677.29,122.39H598c-40-10.49-130.49-7.76-130.49,74.79,0,30.09,15,51.23,35,61-25.1,23-37,33.85-37,49.21,0,11,4.47,21.14,17.89,26.81-14.27,13.41-22.4,23.15-22.4,41.45,0,32.11,28.05,50.82,101.63,50.82,70.75,0,111.79-26.42,111.79-73.18,0-58.66-45.16-56.5-151.63-63l13.43-21.55c27.27,7.58,118.7,10,118.7-67.89,0-18.7-7.73-31.71-15-41.07l37.41-2.84Zm-63.42,241.9c0,32.06-104.89,32.1-104.89,2.43,0-8.14,5.27-15,10.57-21.54C597.26,350.48,613.87,348.55,613.87,364.29ZM563.06,229.71c-52.8,0-50.46-71.16,1.2-71.16C613.8,158.55,615.08,229.71,563.06,229.71Zm133.3,100.51v-32.1c26.75-3.66,27.24-2,27.24-11V167.61c0-8.5-2.05-7.38-27.24-16.26l4.47-32.92H785V287.14c0,6.51.4,7.32,6.51,8.14l20.73,2.84v32.1ZM748.81,85.91c-23.17,0-36.59-13.43-36.59-36.61s13.42-35.77,36.59-35.77c23.58,0,37,12.62,37,35.77S772.39,85.91,748.81,85.91ZM973,314.46c-17.49,8.53-43.1,16.26-66.28,16.26-48.38,0-66.67-19.5-66.67-65.46V158.75c0-5.42,1.05-4.06-31.71-4.06V118.5c35.78-4.07,50-22,54.47-66.27h38.63c0,65.83-1.34,61.81,3.26,61.81H962v40.65H901.44v97.15c0,6.92-4.92,51.41,60.57,26.84Z"/><path id="git-alt" class="cls-1" d="M439.55,204.05,244,8.45a28.86,28.86,0,0,0-40.81,0L162.53,49.08l51.52,51.52c27.06-9.14,52.68,16.77,43.39,43.68l49.66,49.66c34.23-11.8,61.18,31,35.47,56.69-26.49,26.49-70.21-2.87-56-37.34L240.22,167V288.85c25.3,12.54,22.26,41.85,9.08,55a34.31,34.31,0,1,1-37.3-56v-123c-20.8-8.51-24.6-30.74-18.64-45L142.57,69,8.45,203.14a28.86,28.86,0,0,0,0,40.81l195.61,195.6a28.86,28.86,0,0,0,40.8,0L439.55,244.86a28.86,28.86,0,0,0,0-40.81Z"/><text class="cls-2" transform="translate(958.98 321.56)">BOM</text></svg>