<svg id="gitbom_logo" data-name="gitbom logo" xmlns="http://www.w3.org/2000/svg" viewBox="0 0 1188.88 1078.35"><defs><style>.cls-1{fill:#f14e32;}.cls-2{font-size:300px;font-family:Nunito-Bold, Nunito;font-weight:700;}</style></defs><path id="logo" class="cls-1" d="M914.33,303.23,623.72,12.55a42.92,42.92,0,0,0-60.65,0L502.65,72.93l76.56,76.57c40.22-13.59,78.29,24.92,64.49,64.91l73.79,73.8c50.87-17.54,90.92,46.07,52.72,84.24C730.84,411.82,665.87,368.19,687,317L618.1,248.17V429.25c37.6,18.64,33.08,62.2,13.5,81.74a51,51,0,0,1-72.15,0c-26.11-26.16-16.45-69.71,16.72-83.22V245c-30.91-12.65-36.56-45.68-27.7-66.88L473,102.54,273.67,301.88a42.9,42.9,0,0,0,0,60.65l290.7,290.68a42.89,42.89,0,0,0,60.63,0L914.33,363.88a42.9,42.9,0,0,0,0-60.65Z"/><g id="text"><path id="git" d="M216.29,774.27H137C97,763.78,6.51,766.51,6.51,849.06c0,30.09,15,51.23,35,61-25.1,23-37,33.85-37,49.21,0,11,4.47,21.14,17.89,26.81C8.13,999.49,0,1009.23,0,1027.53c0,32.11,28.05,50.82,101.63,50.82,70.75,0,111.79-26.42,111.79-73.18,0-58.66-45.16-56.5-151.63-63l13.43-21.55c27.27,7.58,118.7,10,118.7-67.89,0-18.7-7.73-31.71-15-41.07l37.41-2.84Zm-63.42,241.9c0,32.06-104.89,32.1-104.89,2.43,0-8.14,5.27-15,10.57-21.54C136.26,1002.36,152.87,1000.43,152.87,1016.17ZM102.06,881.59c-52.8,0-50.46-71.16,1.2-71.16C152.8,810.43,154.08,881.59,102.06,881.59ZM235.36,982.1V950c26.75-3.66,27.24-2,27.24-11V819.49c0-8.5-2.05-7.38-27.24-16.26l4.47-32.92H324V939c0,6.51.4,7.32,6.51,8.14L351.24,950v32.1Zm52.45-244.31c-23.17,0-36.59-13.43-36.59-36.61s13.42-35.77,36.59-35.77c23.58,0,37,12.62,37,35.77S311.39,737.79,287.81,737.79ZM512,966.34c-17.49,8.53-43.1,16.26-66.28,16.26-48.38,0-66.67-19.5-66.67-65.46V810.63c0-5.42,1.05-4.06-31.71-4.06V770.38c35.78-4.07,50-22,54.47-66.27h38.63c0,65.83-1.34,61.81,3.26,61.81H501v40.65H440.44v97.15c0,6.92-4.92,51.41,60.57,26.84Z"/><text class="cls-2" transform="translate(497.98 973.44)">BOM</text></g></svg>