<?xml version="1.0" encoding="UTF-8" standalone="no"?><!DOCTYPE svg PUBLIC "-//W3C//DTD SVG 1.1//EN" "http://www.w3.org/Graphics/SVG/1.1/DTD/svg11.dtd"><svg width="100%" height="100%" viewBox="0 0 3000 3000" version="1.1" xmlns="http://www.w3.org/2000/svg" xmlns:xlink="http://www.w3.org/1999/xlink" xml:space="preserve" xmlns:serif="http://www.serif.com/" style="fill-rule:evenodd;clip-rule:evenodd;stroke-linejoin:round;stroke-miterlimit:2;"><path d="M390.01,2691.17c-39.2,-0 -73.3,-8.8 -102.3,-26.4c-29,-17.6 -51.3,-42.6 -66.9,-75c-15.6,-32.4 -23.4,-70.6 -23.4,-114.6c-0,-44.4 7.7,-82.9 23.1,-115.5c15.4,-32.6 37.6,-57.6 66.6,-75c29,-17.4 63.3,-26.1 102.9,-26.1c39.6,-0 73.9,8.7 102.9,26.1c29,17.4 51.2,42.4 66.6,75c15.4,32.6 23.1,70.9 23.1,114.9c-0,44 -7.8,82.3 -23.4,114.9c-15.6,32.6 -37.9,57.7 -66.9,75.3c-29,17.6 -63.1,26.4 -102.3,26.4Zm-0,-42c44.8,-0 79.7,-15.1 104.7,-45.3c25,-30.2 37.5,-73.3 37.5,-129.3c-0,-56 -12.4,-99 -37.2,-129c-24.8,-30 -59.8,-45 -105,-45c-44.8,-0 -79.7,15.1 -104.7,45.3c-25,30.2 -37.5,73.1 -37.5,128.7c-0,55.6 12.5,98.6 37.5,129c25,30.4 59.9,45.6 104.7,45.6Z" style="fill:#67aa44;fill-rule:nonzero;"/><path d="M989.41,2386.97c64.8,-0 97.2,38.6 97.2,115.8l-0,162.6c-0,7.6 -2.2,13.5 -6.6,17.7c-4.4,4.2 -10.2,6.3 -17.4,6.3c-7.2,-0 -13.1,-2.1 -17.7,-6.3c-4.6,-4.2 -6.9,-10.1 -6.9,-17.7l-0,-161.4c-0,-26.8 -4.8,-46.2 -14.4,-58.2c-9.6,-12 -24.6,-18 -45,-18c-24.4,-0 -43.6,8.2 -57.6,24.6c-14,16.4 -21,38.6 -21,66.6l-0,146.4c-0,7.6 -2.3,13.5 -6.9,17.7c-4.6,4.2 -10.5,6.3 -17.7,6.3c-7.2,-0 -13,-2.1 -17.4,-6.3c-4.4,-4.2 -6.6,-10.1 -6.6,-17.7l-0,-161.4c-0,-26.8 -4.8,-46.2 -14.4,-58.2c-9.6,-12 -24.8,-18 -45.6,-18c-24,-0 -43.1,8.2 -57.3,24.6c-14.2,16.4 -21.3,38.6 -21.3,66.6l-0,146.4c-0,7.6 -2.2,13.5 -6.6,17.7c-4.4,4.2 -10.2,6.3 -17.4,6.3c-7.2,-0 -13.1,-2.1 -17.7,-6.3c-4.6,-4.2 -6.9,-10.1 -6.9,-17.7l-0,-253.2c-0,-7.2 2.3,-13 6.9,-17.4c4.6,-4.4 10.5,-6.6 17.7,-6.6c6.8,-0 12.4,2.1 16.8,6.3c4.4,4.2 6.6,9.9 6.6,17.1l-0,28.8c8.8,-17.2 21,-30.4 36.6,-39.6c15.6,-9.2 33.6,-13.8 54,-13.8c45.6,-0 75.4,19.2 89.4,57.6c8.4,-17.6 21.2,-31.6 38.4,-42c17.2,-10.4 36.8,-15.6 58.8,-15.6Z" style="fill:#67aa44;fill-rule:nonzero;"/><path d="M1322.41,2386.97c70,-0 105,38.6 105,115.8l-0,162.6c-0,7.6 -2.1,13.5 -6.3,17.7c-4.2,4.2 -10.1,6.3 -17.7,6.3c-7.6,-0 -13.6,-2.1 -18,-6.3c-4.4,-4.2 -6.6,-10.1 -6.6,-17.7l-0,-159.6c-0,-27.2 -5.3,-47 -15.9,-59.4c-10.6,-12.4 -27.5,-18.6 -50.7,-18.6c-26.8,-0 -48.2,8.2 -64.2,24.6c-16,16.4 -24,38.6 -24,66.6l-0,146.4c-0,7.6 -2.1,13.5 -6.3,17.7c-4.2,4.2 -10.1,6.3 -17.7,6.3c-7.6,-0 -13.6,-2.1 -18,-6.3c-4.4,-4.2 -6.6,-10.1 -6.6,-17.7l-0,-253.2c-0,-7.2 2.2,-13 6.6,-17.4c4.4,-4.4 10.4,-6.6 18,-6.6c7.2,-0 12.9,2.2 17.1,6.6c4.2,4.4 6.3,10 6.3,16.8l-0,30.6c9.6,-18 23,-31.7 40.2,-41.1c17.2,-9.4 36.8,-14.1 58.8,-14.1Z" style="fill:#67aa44;fill-rule:nonzero;"/><path d="M1540.81,2689.37c-7.2,-0 -13.1,-2.1 -17.7,-6.3c-4.6,-4.2 -6.9,-10.1 -6.9,-17.7l-0,-253.2c-0,-7.6 2.3,-13.5 6.9,-17.7c4.6,-4.2 10.5,-6.3 17.7,-6.3c7.2,-0 13,2.1 17.4,6.3c4.4,4.2 6.6,10.1 6.6,17.7l-0,253.2c-0,8 -2.2,14 -6.6,18c-4.4,4 -10.2,6 -17.4,6Zm-0,-364.2c-9.6,-0 -17.4,-2.8 -23.4,-8.4c-6,-5.6 -9,-13 -9,-22.2c-0,-8.8 3,-16 9,-21.6c6,-5.6 13.8,-8.4 23.4,-8.4c9.6,-0 17.4,2.8 23.4,8.4c6,5.6 9,12.8 9,21.6c-0,9.2 -3,16.6 -9,22.2c-6,5.6 -13.8,8.4 -23.4,8.4Z" style="fill:#67aa44;fill-rule:nonzero;"/><path d="M1902.61,2469.17c24.4,6.4 43.3,18.4 56.7,36c13.4,17.6 20.1,39.6 20.1,66c-0,37.2 -12.2,65.7 -36.6,85.5c-24.4,19.8 -59,29.7 -103.8,29.7l-151.2,-0c-7.6,-0 -13.7,-2.2 -18.3,-6.6c-4.6,-4.4 -6.9,-10.2 -6.9,-17.4l-0,-375c-0,-7.2 2.3,-13 6.9,-17.4c4.6,-4.4 10.7,-6.6 18.3,-6.6l144.6,-0c43.6,-0 77.4,9.6 101.4,28.8c24,19.2 36,46.4 36,81.6c-0,22.8 -5.9,42.4 -17.7,58.8c-11.8,16.4 -28.3,28.6 -49.5,36.6Zm-191.4,-18l114,-0c31.6,-0 55.5,-6.4 71.7,-19.2c16.2,-12.8 24.3,-31.4 24.3,-55.8c-0,-48 -32,-72 -96,-72l-114,-0l-0,147Zm123,194.4c33.2,-0 57.7,-6.1 73.5,-18.3c15.8,-12.2 23.7,-31.3 23.7,-57.3c-0,-52 -32.4,-78 -97.2,-78l-123,-0l-0,153.6l123,-0Z" style="fill:#67aa44;fill-rule:nonzero;"/><path d="M2244.01,2691.17c-39.2,-0 -73.3,-8.8 -102.3,-26.4c-29,-17.6 -51.3,-42.6 -66.9,-75c-15.6,-32.4 -23.4,-70.6 -23.4,-114.6c-0,-44.4 7.7,-82.9 23.1,-115.5c15.4,-32.6 37.6,-57.6 66.6,-75c29,-17.4 63.3,-26.1 102.9,-26.1c39.6,-0 73.9,8.7 102.9,26.1c29,17.4 51.2,42.4 66.6,75c15.4,32.6 23.1,70.9 23.1,114.9c-0,44 -7.8,82.3 -23.4,114.9c-15.6,32.6 -37.9,57.7 -66.9,75.3c-29,17.6 -63.1,26.4 -102.3,26.4Zm-0,-42c44.8,-0 79.7,-15.1 104.7,-45.3c25,-30.2 37.5,-73.3 37.5,-129.3c-0,-56 -12.4,-99 -37.2,-129c-24.8,-30 -59.8,-45 -105,-45c-44.8,-0 -79.7,15.1 -104.7,45.3c-25,30.2 -37.5,73.1 -37.5,128.7c-0,55.6 12.5,98.6 37.5,129c25,30.4 59.9,45.6 104.7,45.6Z" style="fill:#67aa44;fill-rule:nonzero;"/><path d="M2848.21,2655.77c2.8,4.4 4.2,9 4.2,13.8c-0,6 -2.3,10.9 -6.9,14.7c-4.6,3.8 -9.9,5.7 -15.9,5.7c-9.2,-0 -16.4,-4 -21.6,-12l-80.4,-127.2c-10.4,-16.4 -21.2,-27.7 -32.4,-33.9c-11.2,-6.2 -26.4,-9.3 -45.6,-9.3l-75.6,-0l-0,156.6c-0,7.6 -2.2,13.7 -6.6,18.3c-4.4,4.6 -10.2,6.9 -17.4,6.9c-7.6,-0 -13.6,-2.3 -18,-6.9c-4.4,-4.6 -6.6,-10.7 -6.6,-18.3l-0,-376.8c-0,-7.2 2.3,-13 6.9,-17.4c4.6,-4.4 10.7,-6.6 18.3,-6.6l148.8,-0c46,-0 81.1,10.2 105.3,30.6c24.2,20.4 36.3,50.4 36.3,90c-0,33.6 -9.7,60.6 -29.1,81c-19.4,20.4 -47.1,32.8 -83.1,37.2c10,3.2 19,8.4 27,15.6c8,7.2 16,17.2 24,30l68.4,108Zm-153,-189c32.8,-0 57.3,-6.8 73.5,-20.4c16.2,-13.6 24.3,-34.2 24.3,-61.8c-0,-27.2 -8,-47.4 -24,-60.6c-16,-13.2 -40.6,-19.8 -73.8,-19.8l-121.2,-0l-0,162.6l121.2,-0Z" style="fill:#67aa44;fill-rule:nonzero;"/><path d="M2358.33,1365.52c-9.458,-32.667 -31.542,-59.042 -65.458,-78.584c-15.875,-65.083 -43.834,-111.625 -74.417,-144.708c30.917,-37.167 45.833,-88.708 43.958,-150.708c12.5,-10.709 40.584,-39.834 44.125,-84.459c3.542,-44.625 -18.375,-90.708 -65.166,-136.958c-2.643,-2.613 -6.214,-4.08 -9.93,-4.08c-4.43,0 -8.612,2.084 -11.279,5.622c-2.333,3.125 -57.5,77.166 -42.125,147.208c6.709,30.583 25.667,55.292 56.125,73.708c1.292,40.542 -5.041,91.292 -36,129.792c-15.41,-13.543 -32.294,-25.311 -50.333,-35.083c-32.214,-17.152 -67.341,-28.16 -103.583,-32.459c28.125,-16.916 70.416,-37.833 109.208,-39.125c7.568,-0.256 13.654,-6.552 13.654,-14.125c-0,-7.753 -6.38,-14.133 -14.133,-14.133c-0.16,0 -0.32,0.003 -0.479,0.008c-69.5,2.292 -143.917,56.125 -156.084,65.292c-30.1,0.888 -59.865,6.585 -88.166,16.875c-20.276,7.772 -42.002,11.043 -63.667,9.583c47.292,-13.291 107.833,-45.541 127.167,-123.5l-0,-0.208c1.416,-5.125 36.291,-126.167 160.708,-148.042c6.732,-1.179 11.691,-7.082 11.691,-13.916c0,-7.751 -6.378,-14.129 -14.128,-14.129c-0.818,0 -1.633,0.071 -2.438,0.212c-72.417,12.75 -118.083,54.583 -145.833,93.417c0.791,-13.959 1.208,-27.292 1.583,-39.959c0.708,-21.875 1.333,-41.666 3.5,-60c5.542,-47.625 21.5,-83.333 76,-110.708c28.298,13.622 59.223,20.93 90.625,21.417c44.118,0.61 86.381,-18.04 115.667,-51.042c2.42,-2.611 3.766,-6.043 3.766,-9.603c0,-4.402 -2.058,-8.56 -5.558,-11.23c-1.958,-1.5 -48.708,-36.625 -105.167,-36.625c-43.625,-0 -80.333,20.375 -109.166,60.416c-45.334,22.167 -69.125,50 -81.917,82.334c-18.208,-41.917 -56.375,-95 -133.75,-102.584c-3.951,-0.371 -7.883,0.929 -10.833,3.584c-2.936,2.688 -4.627,6.478 -4.667,10.458c0,2.958 0.25,73.583 45.833,119.375c22.959,23.083 53.125,35.417 89.584,37.042c-1.125,14.958 -1.625,30.375 -2.125,46.291c-0.514,34.479 -3.298,68.887 -8.334,103c-8.333,52.125 -37.958,88.959 -87.5,109.459c-14.034,5.726 -28.647,9.917 -43.583,12.5c18.458,-38.25 46.167,-122.334 -19.875,-194.042c-2.708,-2.917 -6.52,-4.566 -10.5,-4.542c-3.974,0.011 -7.763,1.708 -10.417,4.667c-2.041,2.25 -50,56.375 -45.208,121.958c1.214,16.151 5.664,31.895 13.083,46.292c-25.208,-14.333 -51.708,-19.458 -83.666,-5.792c-73.167,31.209 -91.125,128.042 -94.834,190.709c-10.433,-6.346 -22.413,-9.705 -34.625,-9.709c-12.584,0.357 -24.868,3.944 -35.666,10.417c-1.14,-21.896 -3.982,-43.67 -8.5,-65.125c-1.25,-16.25 -12.959,-195.833 81.541,-280.042c26.105,-22.537 53.665,-43.331 82.5,-62.25c13.125,-8.916 25.834,-17.625 37.834,-26.666c27.041,38.416 64.125,58.625 108.125,58.625c51.541,-0 94.791,-27.459 96.625,-28.625c4.037,-2.587 6.486,-7.064 6.486,-11.859c0,-3.165 -1.067,-6.24 -3.028,-8.725c-29.866,-39.021 -76.62,-61.546 -125.75,-60.583c-10.858,0.022 -21.697,0.9 -32.417,2.625c20.167,-28.042 30.834,-63.125 25,-113.083c15.25,-38.334 15.917,-74.209 1.75,-106.625c-26.333,-60.25 -94.041,-85.667 -96.916,-86.75c-1.555,-0.567 -3.197,-0.857 -4.852,-0.857c-6.401,-0 -12.044,4.338 -13.69,10.523c-28.625,108.334 59.708,173.209 85.792,189.709c8.583,83.875 -35.5,114.25 -101,158.958c-10.459,7.125 -21.5,14.708 -32.834,22.833c17.875,-44.166 28.584,-105.166 0.375,-173.083c-2.112,-5.407 -7.351,-8.986 -13.157,-8.986c-7.748,0 -14.125,6.376 -14.125,14.125c0,1.961 0.409,3.9 1.199,5.694c48.417,116.667 -34.667,210.959 -38.375,215.084c-0.138,0.156 -0.263,0.323 -0.375,0.5c-38.833,41 -64.708,102.333 -75,178.708c-1.083,7.944 -1.972,15.681 -2.667,23.208c-9.086,-19.891 -17.03,-40.286 -23.791,-61.083c-14.629,-40.826 -17.516,-84.949 -8.334,-127.333c6.546,-26.466 14.999,-52.422 25.292,-77.667c5.292,-14 10.792,-28.458 15.583,-42.958c8.414,-24.202 13.515,-49.431 15.167,-75c3.375,-63.459 -36.25,-115.959 -82.833,-146.625c33.333,-7.917 59.5,-24.334 77.666,-49.167c38.834,-53.042 26.75,-124.417 26.25,-127.417c-0.694,-3.92 -3.01,-7.371 -6.375,-9.5c-3.354,-2.133 -7.463,-2.739 -11.291,-1.666c-107.792,29.625 -119.667,138.25 -120.834,169.416c-32.416,-13.208 -71.375,-21.791 -119.208,-26.208c-0.371,-0.029 -0.743,-0.044 -1.116,-0.044c-7.748,-0 -14.125,6.376 -14.125,14.125c0,7.181 5.476,13.277 12.616,14.044c45.083,4.167 81.542,12.125 111.375,24.292c50.417,20.583 103.125,72.291 99.667,137.25c-1.422,21.751 -5.623,43.232 -12.5,63.916c-5.551,-19.823 -17.219,-37.398 -33.334,-50.208c-26.375,-19.792 -62.75,-21.417 -108.125,-4.958c-5.576,2.027 -9.309,7.358 -9.309,13.291c-0,7.759 6.384,14.143 14.143,14.143c1.648,0 3.284,-0.288 4.833,-0.851c35.792,-13 63.208,-12.5 81.458,0.958c29.792,22.25 29.875,74.25 29.625,84.375c-9.114,22.952 -16.578,46.526 -22.333,70.542c-10.32,47.458 -7.158,96.869 9.125,142.625c2.375,6.917 4.875,14.208 7.583,21.708c-5.193,-3.339 -10.656,-6.238 -16.333,-8.666c-31.958,-13.667 -58.333,-8.542 -83.667,5.833c7.496,-14.383 12.03,-30.125 13.334,-46.292c4.833,-65.583 -43.209,-119.708 -45.25,-121.958c-2.675,-2.92 -6.457,-4.585 -10.417,-4.585c-3.96,-0 -7.742,1.665 -10.417,4.585c-66.083,71.75 -38.333,155.833 -19.916,194.083c-14.636,-2.552 -28.964,-6.63 -42.75,-12.166c-50.25,-20.417 -80.042,-57.375 -88.542,-109.792c-4.966,-34.118 -7.68,-68.526 -8.125,-103c-0.458,-15.917 -0.958,-31.333 -2.125,-46.292c36.458,-1.625 66.667,-13.958 89.625,-37.041c45.542,-45.834 45.833,-116.417 45.833,-119.375c-0.034,-7.748 -6.418,-14.105 -14.166,-14.105c-0.445,0 -0.89,0.021 -1.334,0.063c-77.375,7.583 -115.541,60.667 -133.75,102.583c-12.791,-32.208 -36.583,-60.166 -81.916,-82.333c-28.834,-40.042 -65.5,-60.417 -109.167,-60.417c-56.458,0 -103.167,35.125 -105.125,36.625c-3.503,2.679 -5.563,6.845 -5.563,11.255c0,3.546 1.332,6.966 3.73,9.579c29.307,32.84 71.488,51.374 115.5,50.75c31.388,-0.493 62.298,-7.801 90.583,-21.417c54.5,27.458 70.458,63.083 76.042,110.792c2.125,18.166 2.75,38.041 3.458,59.916c0.375,12.5 0.792,26 1.583,39.959c-27.625,-38.834 -73.291,-80.667 -145.833,-93.417c-0.805,-0.141 -1.62,-0.212 -2.437,-0.212c-7.751,0 -14.129,6.378 -14.129,14.129c0,6.834 4.959,12.737 11.691,13.916c124.375,21.875 159.25,142.834 160.708,148.042l0,0.208c19.292,77.75 79.584,110.042 126.834,123.417c-21.535,1.44 -43.129,-1.801 -63.292,-9.5c-24.685,-8.971 -50.506,-14.441 -76.708,-16.25c-9.042,-6.917 -85.542,-63.542 -156.917,-65.917c-0.153,-0.005 -0.305,-0.007 -0.458,-0.007c-7.753,-0 -14.133,6.379 -14.133,14.132c0,7.58 6.098,13.879 13.674,14.125c38,1.25 79.5,21.459 107.625,38.209c-39.421,3.451 -77.751,14.786 -112.708,33.333c-18.039,9.772 -34.923,21.54 -50.333,35.083c-30.959,-38.5 -37.5,-89.25 -36,-129.791c30.458,-18.417 49.416,-43.125 56.125,-73.709c15.375,-70.041 -39.75,-144.083 -42.125,-147.208c-2.667,-3.537 -6.849,-5.621 -11.279,-5.621c-3.716,-0 -7.287,1.467 -9.93,4.079c-46.791,46.25 -68.708,92.334 -65.166,136.959c3.541,44.625 31.833,73.75 44.166,84.458c-2.041,62 13.042,113.542 43.917,150.708c-30.583,33.084 -58.542,79.625 -74.417,144.709c-33.916,19.541 -56,45.833 -65.458,78.583c-18.25,63.167 17.583,126.042 19.125,128.667c2.546,4.325 7.19,7.003 12.208,7.041c2.984,0.019 5.9,-0.899 8.334,-2.625c97.583,-69.5 60.541,-186.375 53.541,-205.75c12.834,-52.166 35.417,-96.208 66.667,-130.458c44.708,37.958 110.833,53.5 196.708,46.208c35.261,-2.796 69.765,-11.722 101.959,-26.375c-1.084,0.5 -2.459,5.5 -2.959,6.625c-1,2.417 -1.958,4.834 -2.833,7.25c-1.867,5.094 -3.466,10.281 -4.792,15.542c-2.387,10.982 -3.974,22.122 -4.75,33.333c-1.443,17.376 -6.907,34.181 -15.958,49.084c-2.617,4.255 -5.512,8.334 -8.667,12.208c-4.97,5.986 -10.556,11.433 -16.666,16.25c-41.709,33.667 -109.5,42 -201.459,24.083c-0.885,-0.171 -1.785,-0.258 -2.687,-0.258c-7.753,0 -14.133,6.38 -14.133,14.133c-0,6.743 4.826,12.593 11.445,13.875c29.27,5.905 59.02,9.113 88.875,9.584c-3.017,2.922 -5.868,6.01 -8.541,9.25c-37.5,45.833 -30.125,110.583 -29.792,113.333c0.857,7.077 6.913,12.468 14.042,12.5c1.008,-0.008 2.014,-0.12 3,-0.333c104.166,-22.709 115.916,-130.417 117.208,-150.709c14.607,-5.792 28.271,-13.726 40.542,-23.541c13.638,-11.005 25.087,-24.476 33.75,-39.709c14.666,40.292 44.708,81 90,121.667c-0.292,33.75 9.541,62 29.541,84.042c39.875,43.833 104.959,46.041 107.709,46.083l0.5,-0c7.748,-0 14.125,-6.376 14.125,-14.125c0.01,-1.021 -0.088,-2.041 -0.292,-3.042c-9.208,-115.25 -133.667,-136.416 -134.958,-136.625l-0.709,0c-60.75,-55.375 -90.375,-109.333 -88,-160.541c2.542,-54.375 41.417,-90.709 54.167,-101.375c6.278,-4.834 12.361,-9.709 18.25,-14.625c-1.932,19.038 0.344,38.271 6.667,56.333c46.125,125.542 130.125,127.208 134.291,127.208c7.749,0 14.125,-6.376 14.125,-14.125c0,-7.748 -6.376,-14.125 -14.125,-14.125c-0.833,0 -68.166,-1.166 -107.666,-108.708c-5.79,-16.89 -7.083,-35.001 -3.75,-52.542c5.125,-31.166 32.708,-53.583 59.833,-66.166c8.957,-4.388 18.707,-6.924 28.667,-7.459c8.794,0.061 17.494,1.815 25.625,5.167c30.291,12.917 47.208,40.5 58.833,69.75c11.625,29.25 16.083,60.417 18.542,91.292c2.25,28 0.916,57.083 0.416,85.208c-0.25,13.625 0,27.208 0,40.833l0,472.209c-0.02,0.319 -0.02,0.639 0,0.958c0.406,7.471 6.664,13.399 14.146,13.399c7.482,-0 13.74,-5.928 14.146,-13.399l0,-150.958c5.5,-5.375 19.417,-17.084 35.958,-17.292c11.625,-0.375 23.125,5.667 34.25,17.25l0,115.5c0,2.208 -0.958,44.583 -61.666,76.625l-0.75,0.417c-17.638,8.939 -36.247,15.818 -55.459,20.5c-3.791,0.958 -7.291,2.041 -10.791,3.125c-0.412,0.057 -0.816,0.155 -1.209,0.291l-0.583,0.209c-20.646,6.07 -39.92,16.089 -56.75,29.5c-39.958,25.5 -91.167,68.583 -120.833,134.166c-0.292,0.417 -0.584,0.75 -0.834,1.167c-0.25,0.417 -32.583,57.208 -122.625,54.167l-0.416,-0c-0.077,-0.002 -0.153,-0.002 -0.229,-0.002c-7.75,-0 -14.127,6.377 -14.127,14.127c-0,7.663 6.235,14 13.897,14.125l7.459,-0c44.125,-0 76.166,-12.5 98.458,-26.875c-5.961,29.894 -7.366,60.519 -4.167,90.833c0.52,7.32 6.662,13.078 14,13.125c0.472,0.041 0.946,0.041 1.417,-0c7.634,-0.847 13.249,-7.773 12.5,-15.417c-4.995,-43.882 1.198,-88.322 18,-129.166l0.5,-0.875c0.537,-0.99 0.957,-2.038 1.25,-3.125c13.673,-30.445 33.099,-57.964 57.208,-81.042c-6.541,39.333 9.75,76.333 29.167,91.875c2.499,1.986 5.599,3.068 8.792,3.068c7.751,0 14.13,-6.379 14.13,-14.131c0,-4.305 -1.968,-8.383 -5.339,-11.062c-11.833,-9.417 -25,-38.5 -18.458,-68.583c4.136,-18.374 14.762,-34.653 29.917,-45.834c14.768,-9.075 30.333,-16.788 46.5,-23.041c3.25,-1 6.541,-1.959 9.958,-2.834c3.417,-0.875 5.792,-1.583 8.625,-2.375c-7.04,12.185 -10.935,25.934 -11.333,40c-0,22.334 10.416,42.375 31.125,59.709l0.333,0.416c0.25,0 1.292,1.125 2.958,2.375c3.959,3.209 7.792,6.459 11.459,9.792c2.625,7.042 9.083,28.125 0.708,46.167c-6.208,13.416 -19.875,23.083 -40.625,28.791c-6.122,1.674 -10.4,7.278 -10.4,13.625c-0,7.749 6.376,14.125 14.125,14.125c0.008,0 0.017,0 0.025,0c1.266,-0.002 2.527,-0.17 3.75,-0.5c29.167,-8 48.875,-22.833 58.75,-44.125c3.193,-6.963 5.26,-14.389 6.125,-22c17.167,24.209 27.125,50 28,74c1.042,30.084 -11.583,57.334 -37.5,81.042c-3.198,2.682 -5.048,6.649 -5.048,10.823c-0,7.749 6.376,14.125 14.125,14.125c3.733,-0 7.319,-1.481 9.965,-4.115c31.916,-29.166 48.041,-64.708 46.708,-102.916c-1.125,-31.334 -14.458,-64.417 -37.208,-94.625c6.484,0.786 13.01,1.175 19.541,1.166c24.893,-0.307 49.522,-5.165 72.667,-14.333c5.593,-2.011 9.345,-7.348 9.345,-13.292c0,-7.749 -6.376,-14.125 -14.125,-14.125c-1.787,0 -3.559,0.34 -5.22,1c-74.5,28.25 -117.708,0.75 -127.167,-6.416c-0.375,-0.292 -0.708,-0.625 -1.125,-0.917c-15.541,-12.5 -23.083,-25.25 -23,-39.583c0,-29.5 31.5,-56.792 37.167,-61.459c76.5,-40.583 76.292,-98.75 76.25,-101.5l0,-521.5c-0.584,-31.349 1.914,-62.681 7.458,-93.541c5.5,-28.542 15.709,-58.334 33.792,-81.625c9.698,-12.326 22.276,-22.085 36.625,-28.417c28.583,-12.208 62.042,1.625 84.375,20.292c6.716,5.352 12.661,11.605 17.667,18.583c5.801,8.677 9.863,18.399 11.958,28.625c3.534,17.837 2.297,36.294 -3.583,53.5c-38.917,106.417 -104.917,108.542 -107.584,108.75c-7.748,-0 -14.125,6.376 -14.125,14.125c0,7.749 6.377,14.125 14.125,14.125c4.167,-0 88.125,-1.667 134.25,-127.208c6.343,-18.057 8.62,-37.295 6.667,-56.334c5.861,4.917 11.944,9.792 18.25,14.625c12.958,10.667 51.792,47 54.167,101.375c2.375,51.209 -27.25,105.167 -88,160.542l-0.667,-0c-1.292,-0 -127.208,21.625 -135.083,138.708c-0.284,3.956 1.125,7.851 3.875,10.709c2.664,2.785 6.353,4.367 10.208,4.375l0.375,-0c2.75,-0 67.833,-2.25 107.708,-46.084c20,-22.041 29.834,-50.291 29.542,-84.083c45.292,-40.667 75.333,-81.333 89.958,-121.625c8.663,15.233 20.112,28.703 33.75,39.708c11.189,8.876 23.523,16.206 36.667,21.792c0.708,14.708 9.542,128.958 117.292,152.458c1,0.214 2.019,0.326 3.041,0.334c7.12,-0.035 13.163,-5.431 14,-12.5c0.334,-2.75 7.75,-67.459 -29.791,-113.334c-2.605,-3.222 -5.387,-6.296 -8.334,-9.208l1.084,-0c30.791,-0.299 61.485,-3.521 91.666,-9.625c6.62,-1.282 11.446,-7.132 11.446,-13.875c-0,-7.753 -6.38,-14.133 -14.133,-14.133c-0.902,0 -1.802,0.086 -2.688,0.258c-92,18 -159.875,9.667 -201.875,-23.667c-13.615,-10.935 -24.525,-24.867 -31.875,-40.708c-7.541,-16.292 -8.333,-34.25 -10.625,-51.792c-2.118,-16.622 -6.843,-32.807 -14,-47.958c32.194,14.653 66.698,23.579 101.959,26.375c85.958,7.333 152,-8.333 196.708,-46.208c31.25,34.25 53.833,78.291 66.667,130.458c-7,19.375 -44.084,136.25 53.5,205.75c2.434,1.726 5.349,2.644 8.333,2.625c1.009,-0.01 2.014,-0.122 3,-0.333c3.88,-0.83 7.23,-3.27 9.208,-6.709c1.459,-2.75 37.292,-65.625 19.042,-128.791Zm-152.667,-452.625c-9.125,-41.417 14.125,-87.5 27.834,-110.209c32.25,35.5 47.333,69.709 44.916,101.792c-2.333,30.25 -20.125,51.75 -30.583,61.958c-0.347,-0.021 -0.695,-0.021 -1.042,0c-0.346,-0.023 -0.694,-0.023 -1.041,0c-21.834,-13.875 -35.334,-31.875 -40.084,-53.541Zm-43.333,-309.334c30.208,0 57.958,12.75 73.958,21.834c-22.916,19.839 -52.359,30.553 -82.666,30.083c-23.636,-0.374 -46.985,-5.253 -68.792,-14.375c21.583,-24.958 47.625,-37.542 77.5,-37.542Zm-297,92.167c-7.008,-15.726 -11.628,-32.41 -13.708,-49.5c36.416,7.917 65.041,29.75 85.125,65.042c8.17,14.606 14.456,30.188 18.708,46.375c-42.25,-2.834 -72.542,-23.625 -90.125,-61.917Zm-3.25,101.417c-20.808,10.114 -43.539,15.669 -66.667,16.291c-33.75,0 -61.708,-14.75 -83.333,-43.958c18.673,-5.97 38.146,-9.061 57.75,-9.167c36.875,0 67.792,12.25 92.25,36.834Zm-157.458,-232.334c-26.5,-31.333 -37.209,-66 -31.875,-103.208c19.041,10 50.958,30.917 65.666,64.542c9.417,21.625 10.292,45.833 2.542,71.666c-13.442,-9.438 -25.649,-20.525 -36.333,-33Zm-300.417,-106.75c13.75,-38.666 38.292,-65.333 73.125,-79.458c0.917,21.542 -1.167,59.833 -22.833,89.333c-13.917,18.959 -34.25,31.709 -60.542,38.125c1.382,-16.367 4.826,-32.495 10.25,-48Zm-282.792,254.167c20.084,-35.792 48.834,-57.875 85.584,-65.875c-2.667,20.833 -10.917,57.25 -36.25,82.708c-17.125,17.209 -39.834,26.875 -67.625,28.75c4.194,-15.962 10.381,-31.333 18.416,-45.75l-0.125,0.167Zm-216.541,-56.75c-30.31,0.482 -59.757,-10.234 -82.667,-30.083c15.958,-9.084 43.75,-21.834 73.917,-21.834c30.166,0 55.916,12.5 77.583,37.5c-21.822,9.128 -45.183,14.021 -68.833,14.417Zm-125,249c-2.417,-32.083 12.5,-66.292 44.916,-101.792c13.75,22.625 37,68.792 27.834,110.209c-4.75,21.666 -18.25,39.666 -40.084,53.708c-0.346,-0.023 -0.694,-0.023 -1.041,-0c-0.347,-0.021 -0.695,-0.021 -1.042,-0c-10.167,-10.458 -27.958,-31.875 -30.292,-62.125l-0.291,-0Zm258.541,516.667c-13.625,32.166 -35.625,53.916 -65.583,64.833c0.417,-19.208 4.458,-51.083 24.125,-75c13.514,-15.929 32.207,-26.611 52.792,-30.167c-1.992,13.918 -5.701,27.536 -11.042,40.542l-0.292,-0.208Zm326.667,104.875c-18.958,-3.25 -50,-11.959 -70.833,-34.959c-13.262,-15.027 -20.998,-34.145 -21.917,-54.166c0.663,-0.497 1.289,-1.04 1.875,-1.625c12.73,4.036 24.94,9.56 36.375,16.458c30.125,18.25 48.458,43.25 54.792,74.5l-0.292,-0.208Zm-92.458,-630.667c12.166,17.708 30.625,51.125 27.916,87.5c-1.708,23.542 -12.208,45.208 -31.166,64.583c-7.476,-14.626 -13.076,-30.138 -16.667,-46.166c-8.875,-39.875 -2,-75.5 19.917,-105.917Zm-535.959,569.583c-8.333,-19.791 -19.458,-56.333 -9.25,-91.666c6.542,-22.667 21.25,-41.667 43.792,-56.75c4.384,16.127 6.695,32.747 6.875,49.458c0.167,40.75 -13.75,73.917 -41.417,98.958Zm317.667,-284.5c-76.708,6.542 -135.125,-6.25 -173.958,-37.916c13.442,-11.715 28.143,-21.903 43.833,-30.375c66.696,-35.238 145.17,-41.057 216.333,-16.042c26.455,10.152 54.974,13.769 83.125,10.542c-3.958,3.291 -8.041,6.541 -12.208,9.791l-1.375,1.084c-39.083,30.041 -87.792,57.125 -155.75,62.916Zm475.833,54.5c11.375,-0.25 22.584,5.375 33.334,16.417c-0,10.583 0.583,17.917 0.75,20.25l-0,158.333c-10.408,-6.361 -22.386,-9.695 -34.584,-9.625c-12.572,0.351 -24.844,3.939 -35.625,10.417l0,-159.125c0,-2.333 0.584,-9.583 0.709,-20.125c6.166,-5.667 19.583,-16.167 35.416,-16.542Zm0.417,380.542l-0.708,-0c-12.573,0.35 -24.845,3.939 -35.625,10.417l-0,-159.917c5.5,-5.375 19.416,-17.042 35.958,-17.25c11.625,-0.25 23.125,5.667 34.25,17.208l0,159.125c-10.219,-6.192 -21.926,-9.504 -33.875,-9.583Zm233.583,-124.333c-20.833,22.958 -51.833,31.708 -70.833,35.041c12,-58.333 62.792,-82.125 90.625,-90.958c0.64,0.629 1.322,1.214 2.042,1.75c-0.906,20.009 -8.611,39.122 -21.834,54.167Zm317.5,-4.959c-57.375,-20.833 -72.833,-77.166 -77.041,-105.375c20.591,3.515 39.302,14.169 52.833,30.084c19.625,23.916 23.75,55.958 24.208,75.291Zm-295.833,-590.791c21.917,30.208 28.667,65.5 20.125,105.25c-3.538,16.375 -9.167,32.227 -16.75,47.166c-18.917,-19.375 -29.375,-40.958 -31.125,-64.416c-2.792,-36.625 15.75,-70.209 27.917,-88l-0.167,-0Zm218.25,285.041c-67.958,-5.791 -116.667,-32.875 -155.75,-62.916l-1.375,-1.084c-4.167,-3.25 -8.333,-6.5 -12.167,-9.791c28.138,3.225 56.643,-0.391 83.084,-10.542c71.163,-25.015 149.637,-19.196 216.333,16.042c15.69,8.472 30.391,18.66 43.833,30.375c-38.625,31.666 -97.041,44.458 -173.791,37.916l-0.167,0Zm317.667,284.5c-27.667,-25 -41.667,-58.333 -41.375,-98.875c0.169,-16.709 2.466,-33.329 6.833,-49.458c22.5,15 37.208,34 43.792,56.583c10.375,35.125 -0.834,71.792 -9.084,91.75l-0.166,0Z" style="fill:#218bcb;fill-rule:nonzero;"/><path d="M1529.29,1360.31c8.584,0 15.542,-10.875 15.542,-24.291c0,-13.417 -6.958,-24.25 -15.542,-24.25c-8.583,-0 -15.5,10.875 -15.5,24.25c0,13.375 6.917,24.291 15.5,24.291Z" style="fill:#67aa44;fill-rule:nonzero;"/><path d="M1529.29,1518.14c-8.583,-0 -15.5,10.833 -15.5,24.25c0,13.416 6.917,24.291 15.5,24.291c8.584,0 15.542,-10.875 15.542,-24.291c0,-13.417 -6.958,-24.25 -15.542,-24.25Z" style="fill:#67aa44;fill-rule:nonzero;"/><path d="M1544.83,1724.35c0,-13.417 -6.958,-24.292 -15.542,-24.292c-8.583,0 -15.5,10.875 -15.5,24.292c0,13.417 6.917,24.25 15.5,24.25c8.584,-0 15.542,-10.833 15.542,-24.25Z" style="fill:#67aa44;fill-rule:nonzero;"/><path d="M1926.29,2096.81c-88.875,2.709 -121.208,-51.916 -122.666,-54.166c-0.226,-0.391 -0.476,-0.767 -0.75,-1.125c-53.417,-117.917 -176.584,-163.292 -178.25,-163.875c-0.377,-0.141 -0.768,-0.239 -1.167,-0.292c-2.417,-1 -4.75,-2 -7.292,-2.958c-4.426,-1.548 -8.932,-2.856 -13.5,-3.917c-2.541,-0.625 -5,-1.208 -7.375,-1.958c-1.381,-0.438 -2.821,-0.661 -4.27,-0.661c-7.757,0 -14.14,6.383 -14.14,14.14c-0,6.147 4.009,11.622 9.869,13.479c2.958,0.917 6.041,1.708 9.166,2.458c3.539,0.79 7.031,1.778 10.459,2.959c50.416,18.75 81.416,48.5 87.208,83.875c4.167,25 -5.208,47.166 -16.667,56.333c-2.983,2.685 -4.689,6.516 -4.689,10.53c-0,7.772 6.395,14.167 14.166,14.167c2.986,-0 5.897,-0.944 8.315,-2.697c17.125,-13.875 32.75,-45.833 26.667,-82.917c-0.417,-2.291 -0.959,-4.791 -1.542,-7.333c45.833,44.708 87.5,113.625 77.458,213.75c-0.043,0.451 -0.065,0.903 -0.065,1.356c0,7.241 5.567,13.368 12.774,14.061c0.457,0.041 0.917,0.041 1.375,-0c7.234,-0.007 13.36,-5.553 14.083,-12.75c3.201,-30.315 1.796,-60.94 -4.167,-90.834c22.292,14.334 54.375,26.875 98.459,26.875l7.458,0c7.584,-0.235 13.694,-6.537 13.694,-14.125c0,-7.752 -6.379,-14.131 -14.131,-14.131c-0.146,-0 -0.292,0.002 -0.438,0.006l-0.042,-0.25Z" style="fill:#218bcb;fill-rule:nonzero;"/><path d="M1048.62,621.685c-0,0.014 -0,0.028 -0,0.042c-0,7.543 -6.207,13.75 -13.75,13.75c-7.543,-0 -13.75,-6.207 -13.75,-13.75c-0,-7.543 6.207,-13.75 13.75,-13.75c0.014,-0 0.027,-0 0.041,-0c7.521,-0 13.709,6.188 13.709,13.708Z" style="fill:#67aa44;fill-rule:nonzero;"/><path d="M2037.17,621.685l0,0.042c0,7.543 -6.207,13.75 -13.75,13.75c-7.543,-0 -13.75,-6.207 -13.75,-13.75c0,-7.543 6.207,-13.75 13.75,-13.75c0.014,-0 0.028,-0 0.042,-0c7.52,-0 13.708,6.188 13.708,13.708Z" style="fill:#67aa44;fill-rule:nonzero;"/><path d="M1199.92,996.144c0,7.543 -6.207,13.75 -13.75,13.75c-7.543,-0 -13.75,-6.207 -13.75,-13.75c0,-7.543 6.207,-13.75 13.75,-13.75l0.042,-0c7.52,-0 13.708,6.188 13.708,13.708c0,0.014 0,0.028 0,0.042Z" style="fill:#67aa44;fill-rule:nonzero;"/><path d="M2277.21,1138.85c0,0.014 0,0.028 0,0.042c0,7.543 -6.207,13.75 -13.75,13.75c-7.543,-0 -13.75,-6.207 -13.75,-13.75c0,-7.543 6.207,-13.75 13.75,-13.75c0.014,-0 0.028,-0 0.042,-0c7.52,-0 13.708,6.188 13.708,13.708Z" style="fill:#67aa44;fill-rule:nonzero;"/><path d="M807.458,1138.85c0,0.014 0,0.028 0,0.042c0,7.543 -6.207,13.75 -13.75,13.75c-7.543,-0 -13.75,-6.207 -13.75,-13.75c0,-7.543 6.207,-13.75 13.75,-13.75c0.014,-0 0.028,-0 0.042,-0c7.52,-0 13.708,6.188 13.708,13.708Z" style="fill:#67aa44;fill-rule:nonzero;"/><path d="M1121.83,1236.89c0,7.52 -6.188,13.708 -13.708,13.708c-7.52,-0 -13.709,-6.188 -13.709,-13.708c0,-7.521 6.189,-13.709 13.709,-13.709c7.52,0 13.708,6.188 13.708,13.709Z" style="fill:#67aa44;fill-rule:nonzero;"/><path d="M1968.29,1236.89c0,7.52 -6.188,13.708 -13.708,13.708c-7.52,-0 -13.708,-6.188 -13.708,-13.708c-0,-7.521 6.188,-13.709 13.708,-13.709c7.52,0 13.708,6.188 13.708,13.709Z" style="fill:#67aa44;fill-rule:nonzero;"/><path d="M1527.5,837.727c-0,0.014 -0,0.028 -0,0.042c-0,7.543 -6.207,13.75 -13.75,13.75c-7.543,-0 -13.75,-6.207 -13.75,-13.75c-0,-7.543 6.207,-13.75 13.75,-13.75c0.014,-0 0.027,-0 0.041,-0c7.521,-0 13.709,6.188 13.709,13.708Z" style="fill:#67aa44;fill-rule:nonzero;"/><path d="M1670.29,729.977c0,0.014 0,0.028 0,0.042c0,7.543 -6.207,13.75 -13.75,13.75c-7.543,-0 -13.75,-6.207 -13.75,-13.75c0,-7.543 6.207,-13.75 13.75,-13.75c7.528,-0 13.728,6.181 13.75,13.708Z" style="fill:#67aa44;fill-rule:nonzero;"/><path d="M1393.88,594.227c-0,0.014 -0,0.028 -0,0.042c-0,7.543 -6.207,13.75 -13.75,13.75c-7.543,-0 -13.75,-6.207 -13.75,-13.75c-0,-7.543 6.207,-13.75 13.75,-13.75c7.527,-0 13.727,6.181 13.75,13.708Z" style="fill:#67aa44;fill-rule:nonzero;"/><path d="M1034.92,897.81c0,0.014 0,0.028 0,0.042c0,7.543 -6.207,13.75 -13.75,13.75c-7.543,-0 -13.75,-6.207 -13.75,-13.75c0,-7.543 6.207,-13.75 13.75,-13.75c7.528,-0 13.728,6.181 13.75,13.708Z" style="fill:#67aa44;fill-rule:nonzero;"/><path d="M2050.71,897.81c0,0.014 0,0.028 0,0.042c0,7.543 -6.207,13.75 -13.75,13.75c-7.543,-0 -13.75,-6.207 -13.75,-13.75c0,-7.543 6.207,-13.75 13.75,-13.75c0.014,-0 0.028,-0 0.042,-0c7.52,-0 13.708,6.188 13.708,13.708Z" style="fill:#67aa44;fill-rule:nonzero;"/><path d="M1691,982.394c-0,0.014 -0,0.027 -0,0.041c-0,7.543 -6.207,13.75 -13.75,13.75c-7.543,0 -13.75,-6.207 -13.75,-13.75c-0,-7.543 6.207,-13.75 13.75,-13.75c7.527,0 13.727,6.181 13.75,13.709Z" style="fill:#67aa44;fill-rule:nonzero;"/></svg>